{
.formatVersion = 3;
axes = (
{
name = Weight;
tag = wght;
},
{
name = Width;
tag = wdth;
}
);
classes = (
{
code = "nuktaknda uni200D";
name = markAttachmentSet1;
},
{
code = "aavowelsignknda ivowelsignknda iivowelsignknda uvowelsignknda uuvowelsignknda evowelsignknda eevowelsignknda aivowelsignknda ovowelsignknda oovowelsignknda auvowelsignknda lengthmarkknda aavowelsignaltknda evowelsignaltknda uvowelsignaltknda uuvowelsignaltknda uvowelsignalt2knda uuvowelsignalt2knda uvowelsignlaknda uuvowelsignlaknda";
name = vowelsigns;
},
{
code = "baknda bhaknda caknda chaknda daknda ddaknda ddhaknda dhaknda gaknda ghaknda haknda jaknda januktaknda janyaknda jhaknda kaknda kassaknda khaknda laknda llaknda maknda naknda nnaknda paknda phaknda phanuktaknda raknda saknda shaknda ssaknda taknda thaknda ttaknda tthaknda vaknda yaknda";
name = consonants;
},
{
code = "basubscriptknda bhasubscriptknda casubscriptknda chasubscriptknda dasubscriptknda ddasubscriptknda ddhasubscriptknda dhasubscriptknda fasubscriptknda gasubscriptknda ghasubscriptknda hasubscriptknda jasubscriptknda jhasubscriptknda kasubscriptknda khasubscriptknda lasubscriptknda llasubscriptknda masubscriptknda nasubscriptknda ngasubscriptknda nnasubscriptknda nyasubscriptknda pasubscriptknda phasubscriptknda rasubscriptknda rrasubscriptknda sasubscriptknda shasubscriptknda ssasubscriptknda tasubscriptknda thasubscriptknda ttasubscriptknda tthasubscriptknda vasubscriptknda yasubscriptknda";
name = subscripts;
},
{

glyphs = (
{
glyphname = .notdef;
layers = (
{
background = {
shapes = (
{
closed = 1;
nodes = (
(94,0,l),
(505,0,l),
(505,714,l),
(94,714,l)
);
},
{
closed = 1;
nodes = (
(145,51,l),
(145,663,l),
(454,663,l),
(454,51,l)
);
}
);
};
layerId = "D8BA631F-EBB2-4072-BC3E-5C4A99E1B6C7";
shapes = (
{
closed = 1;
nodes = (
(94,0,l),
(505,0,l),
(505,714,l),
(94,714,l)
);
},
{
closed = 1;
nodes = (
(145,51,l),
(145,663,l),
(454,663,l),
(454,51,l)
);
}
);
width = 599;
}
);
},
{
glyphname = uni0C80;
layers = (
{
anchors = (
{
name = Anchor5;
position = "{331, -24}";
}
);
background = {
shapes = (
{
closed = 1;
nodes = (
(521,10,o),
(634,94,o),
(634,264,cs),
(634,304,o),
(628,342,o),
(619,369,c),
(449,334,l),
(454,314,o),
(456,295,o),
(456,272,cs),
(456,185,o),
(398,155,o),
(331,155,cs),
(263,155,o),
(206,183,o),
(206,270,cs),
(206,294,o),
(208,314,o),
(214,336,c),
(43,370,l),
(34,346,o),
(28,304,o),
(28,264,cs),
(28,99,o),
(139,10,o),
(331,10,cs)
);
},
{
closed = 1;
nodes = (
(382,195,o),
(417,225,o),
(417,273,cs),
(417,322,o),
(384,353,o),
(331,353,cs),
(280,353,o),
(245,323,o),
(245,273,cs),
(245,225,o),
(278,195,o),
(331,195,cs)
);
}
);
};
layerId = "D8BA631F-EBB2-4072-BC3E-5C4A99E1B6C7";
shapes = (
{
closed = 1;
nodes = (
(521,10,o),
(634,94,o),
(634,264,cs),
(634,304,o),
(628,342,o),
(619,369,c),
(449,334,l),
(454,314,o),
(456,295,o),
(456,272,cs),
(456,185,o),
(398,155,o),
(331,155,cs),
(263,155,o),
(206,183,o),
(206,270,cs),
(206,294,o),
(208,314,o),
(214,336,c),
(43,370,l),
(34,346,o),
(28,304,o),
(28,264,cs),
(28,99,o),
(139,10,o),
(331,10,cs)
);
},
{
closed = 1;
nodes = (
(382,195,o),
(417,225,o),
(417,273,cs),
(417,322,o),
(384,353,o),
(331,353,cs),
(280,353,o),
(245,323,o),
(245,273,cs),
(245,225,o),
(278,195,o),
(331,195,cs)
);
}
);
width = 662;
}
);
unicode = 3200;
},
{
glyphname = candrabinduknda;
layers = (
{
anchors = (
{
name = _Anchor5;
position = "{-278, -259}";
}
);
background = {
shapes = (
{
closed = 1;
nodes = (
(-139,585,o),
(-53,636,o),
(-53,753,cs),
(-53,773,o),
(-56,793,o),
(-60,809,c),
(-189,790,l),
(-185,779,o),
(-184,767,o),
(-184,755,cs),
(-184,710,o),
(-224,685,o),
(-278,685,cs),
(-330,685,o),
(-372,703,o),
(-372,753,cs),
(-372,766,o),
(-371,773,o),
(-368,785,c),
(-495,809,l),
(-500,793,o),
(-503,772,o),
(-503,753,cs),
(-503,637,o),
(-410,585,o),
(-278,585,cs)
);
},
{
closed = 1;
nodes = (
(-237,701,o),
(-215,723,o),
(-215,756,cs),
(-215,786,o),
(-238,808,o),
(-279,808,cs),
(-321,808,o),
(-342,786,o),
(-342,756,cs),
(-342,723,o),
(-321,701,o),
(-279,701,cs)
);
}
);
};
layerId = "D8BA631F-EBB2-4072-BC3E-5C4A99E1B6C7";
shapes = (
{
closed = 1;
nodes = (
(-139,585,o),
(-53,636,o),
(-53,753,cs),
(-53,773,o),
(-56,793,o),
(-60,809,c),
(-189,790,l),
(-185,779,o),
(-184,767,o),
(-184,755,cs),
(-184,710,o),
(-224,685,o),
(-278,685,cs),
(-330,685,o),
(-372,703,o),
(-372,753,cs),
(-372,766,o),
(-371,773,o),
(-368,785,c),
(-495,809,l),
(-500,793,o),
(-503,772,o),
(-503,753,cs),
(-503,637,o),
(-410,585,o),
(-278,585,cs)
);
},
{
closed = 1;
nodes = (
(-237,701,o),
(-215,723,o),
(-215,756,cs),
(-215,786,o),
(-238,808,o),
(-279,808,cs),
(-321,808,o),
(-342,786,o),
(-342,756,cs),
(-342,723,o),
(-321,701,o),
(-279,701,cs)
);
}
);
width = 0;
}
);
unicode = 3201;
},
{
glyphname = anusvaraknda;
layers = (
{
background = {
shapes = (
{
closed = 1;
nodes = (
(507,-12,o),
(614,88,o),
(614,251,cs),
(614,400,o),
(515,514,o),
(322,514,cs),
(130,514,o),
(28,405,o),
(28,251,cs),
(28,80,o),
(144,-12,o),
(320,-12,cs)
);
},
{
closed = 1;
nodes = (
(255,140,o),
(217,183,o),
(217,253,cs),
(217,316,o),
(250,366,o),
(323,366,cs),
(386,366,o),
(425,323,o),
(425,253,cs),
(425,189,o),
(393,140,o),
(318,140,cs)
);
}
);
};
layerId = "D8BA631F-EBB2-4072-BC3E-5C4A99E1B6C7";
shapes = (
{
closed = 1;
nodes = (
(507,-12,o),
(614,88,o),
(614,251,cs),
(614,400,o),
(515,514,o),
(322,514,cs),
(130,514,o),
(28,405,o),
(28,251,cs),
(28,80,o),
(144,-12,o),
(320,-12,cs)
);
},
{
closed = 1;
nodes = (
(255,140,o),
(217,183,o),
(217,253,cs),
(217,316,o),
(250,366,o),
(323,366,cs),
(386,366,o),
(425,323,o),
(425,253,cs),
(425,189,o),
(393,140,o),
(318,140,cs)
);
}
);
width = 642;
}
);
unicode = 3202;
},
{
glyphname = visargaknda;
layers = (
{
background = {
shapes = (
{
closed = 1;
nodes = (
(28,314,o),
(82,259,o),
(183,259,cs),
(286,259,o),
(340,312,o),
(340,385,cs),
(340,459,o),
(285,512,o),
(183,512,cs),
(83,512,o),
(28,457,o),
(28,385,cs)
);
},
{
closed = 1;
nodes = (
(145,407,o),
(160,423,o),
(183,423,cs),
(208,423,o),
(223,407,o),
(223,386,cs),
(223,365,o),
(209,348,o),
(183,348,cs),
(159,348,o),
(145,365,o),
(145,386,cs)
);
},
{
closed = 1;
nodes = (
(28,42,o),
(82,-12,o),
(183,-12,cs),
(286,-12,o),
(340,43,o),
(340,114,cs),
(340,188,o),
(285,242,o),
(183,242,cs),
(83,242,o),
(28,188,o),
(28,114,cs)
);
},
{
closed = 1;
nodes = (
(145,138,o),
(160,153,o),
(183,153,cs),
(208,153,o),
(223,138,o),
(223,117,cs),
(223,94,o),
(209,77,o),
(183,77,cs),
(159,77,o),
(145,94,o),
(145,117,cs)
);
}
);
};
layerId = "D8BA631F-EBB2-4072-BC3E-5C4A99E1B6C7";
shapes = (
{
closed = 1;
nodes = (
(28,314,o),
(82,259,o),
(183,259,cs),
(286,259,o),
(340,312,o),
(340,385,cs),
(340,459,o),
(285,512,o),
(183,512,cs),
(83,512,o),
(28,457,o),
(28,385,cs)
);
},
{
closed = 1;
nodes = (
(145,407,o),
(160,423,o),
(183,423,cs),
(208,423,o),
(223,407,o),
(223,386,cs),
(223,365,o),
(209,348,o),
(183,348,cs),
(159,348,o),
(145,365,o),
(145,386,cs)
);
},
{
closed = 1;
nodes = (
(28,42,o),
(82,-12,o),
(183,-12,cs),
(286,-12,o),
(340,43,o),
(340,114,cs),
(340,188,o),
(285,242,o),
(183,242,cs),
(83,242,o),
(28,188,o),
(28,114,cs)
);
},
{
closed = 1;
nodes = (
(145,138,o),
(160,153,o),
(183,153,cs),
(208,153,o),
(223,138,o),
(223,117,cs),
(223,94,o),
(209,77,o),
(183,77,cs),
(159,77,o),
(145,94,o),
(145,117,cs)
);
}
);
width = 368;
}
);
unicode = 3203;
},
{
glyphname = uni0C84;
layers = (
{
background = {
shapes = (
{
closed = 1;
nodes = (
(63,575,l),
(47,500,o),
(40,433,o),
(40,369,cs),
(40,18,o),
(272,-178,o),
(601,-178,cs),
(934,-178,o),
(1136,-8,o),
(1136,298,cs),
(1136,582,o),
(941,747,o),
(680,747,cs),
(437,747,o),
(267,608,o),
(267,384,cs),
(267,185,o),
(405,58,o),
(603,58,cs),
(793,58,o),
(914,158,o),
(914,318,cs),
(914,455,o),
(812,551,o),
(675,551,cs),
(557,551,o),
(470,483,o),
(470,384,cs),
(470,290,o),
(537,229,o),
(624,229,cs),
(680,229,o),
(705,241,o),
(726,255,c),
(681,367,l),
(667,360,o),
(658,357,o),
(649,357,cs),
(633,357,o),
(616,362,o),
(616,388,cs),
(616,412,o),
(636,423,o),
(665,423,cs),
(726,423,o),
(765,388,o),
(765,318,cs),
(765,231,o),
(709,187,o),
(603,187,cs),
(488,187,o),
(416,258,o),
(416,381,cs),
(416,544,o),
(531,616,o),
(680,616,cs),
(851,616,o),
(984,510,o),
(984,300,cs),
(984,68,o),
(828,-44,o),
(603,-44,cs),
(363,-44,o),
(189,95,o),
(189,374,cs),
(189,449,o),
(196,505,o),
(212,567,c)
);
}
);
};
layerId = "D8BA631F-EBB2-4072-BC3E-5C4A99E1B6C7";
shapes = (
{
closed = 1;
nodes = (
(63,575,l),
(47,500,o),
(40,433,o),
(40,369,cs),
(40,18,o),
(272,-178,o),
(601,-178,cs),
(934,-178,o),
(1136,-8,o),
(1136,298,cs),
(1136,582,o),
(941,747,o),
(680,747,cs),
(437,747,o),
(267,608,o),
(267,384,cs),
(267,185,o),
(405,58,o),
(603,58,cs),
(793,58,o),
(914,158,o),
(914,318,cs),
(914,455,o),
(812,551,o),
(675,551,cs),
(557,551,o),
(470,483,o),
(470,384,cs),
(470,290,o),
(537,229,o),
(624,229,cs),
(680,229,o),
(705,241,o),
(726,255,c),
(681,367,l),
(667,360,o),
(658,357,o),
(649,357,cs),
(633,357,o),
(616,362,o),
(616,388,cs),
(616,412,o),
(636,423,o),
(665,423,cs),
(726,423,o),
(765,388,o),
(765,318,cs),
(765,231,o),
(709,187,o),
(603,187,cs),
(488,187,o),
(416,258,o),
(416,381,cs),
(416,544,o),
(531,616,o),
(680,616,cs),
(851,616,o),
(984,510,o),
(984,300,cs),
(984,68,o),
(828,-44,o),
(603,-44,cs),
(363,-44,o),
(189,95,o),
(189,374,cs),
(189,449,o),
(196,505,o),
(212,567,c)
);
}
);
width = 1176;
}
);
unicode = 3204;
},
{
glyphname = aknda;
layers = (
{
anchors = (
{
name = Anchor5;
position = "{515, -24}";
}
);
background = {
shapes = (
{
closed = 1;
nodes = (
(276,152,o),
(204,236,o),
(204,301,cs),
(204,332,ls),
(204,416,o),
(238,456,o),
(279,456,cs),
(304,456,o),
(318,442,o),
(318,417,cs),
(318,385,o),
(294,368,o),
(247,368,cs),
(186,368,o),
(147,418,o),
(132,445,c),
(107,318,l),
(139,285,o),
(214,243,o),
(278,243,cs),
(398,243,o),
(475,290,o),
(475,411,cs),
(475,505,o),
(413,586,o),
(287,586,cs),
(134,586,o),
(27,490,o),
(27,332,cs),
(27,124,o),
(184,-12,o),
(504,-12,cs),
(813,-12,o),
(1003,91,o),
(1003,340,cs),
(1003,465,o),
(917,586,o),
(739,586,cs),
(599,586,o),
(544,521,o),
(544,444,cs),
(544,402,o),
(557,381,o),
(574,358,c),
(468,358,l),
(468,219,l),
(762,219,l),
(762,349,l),
(730,358,o),
(707,381,o),
(707,410,cs),
(707,433,o),
(723,449,o),
(745,449,cs),
(788,449,o),
(813,400,o),
(813,344,cs),
(813,191,o),
(704,152,o),
(507,152,cs)
);
}
);
};
layerId = "D8BA631F-EBB2-4072-BC3E-5C4A99E1B6C7";
shapes = (
{
closed = 1;
nodes = (
(276,152,o),
(204,236,o),
(204,301,cs),
(204,332,ls),
(204,416,o),
(238,456,o),
(279,456,cs),
(304,456,o),
(318,442,o),
(318,417,cs),
(318,385,o),
(294,368,o),
(247,368,cs),
(186,368,o),
(147,418,o),
(132,445,c),
(107,318,l),
(139,285,o),
(214,243,o),
(278,243,cs),
(398,243,o),
(475,290,o),
(475,411,cs),
(475,505,o),
(413,586,o),
(287,586,cs),
(134,586,o),
(27,490,o),
(27,332,cs),
(27,124,o),
(184,-12,o),
(504,-12,cs),
(813,-12,o),
(1003,91,o),
(1003,340,cs),
(1003,465,o),
(917,586,o),
(739,586,cs),
(599,586,o),
(544,521,o),
(544,444,cs),
(544,402,o),
(557,381,o),
(574,358,c),
(468,358,l),
(468,219,l),
(762,219,l),
(762,349,l),
(730,358,o),
(707,381,o),
(707,410,cs),
(707,433,o),
(723,449,o),
(745,449,cs),
(788,449,o),
(813,400,o),
(813,344,cs),
(813,191,o),
(704,152,o),
(507,152,cs)
);
}
);
width = 1030;
}
);
unicode = 3205;
},
{
glyphname = aaknda;
layers = (
{
anchors = (
{
name = Anchor5;
position = "{504, -24}";
}
);
background = {
shapes = (
{
closed = 1;
nodes = (
(812,-12,o),
(959,70,o),
(959,206,cs),
(959,259,o),
(931,298,o),
(873,328,c),
(854,341,o),
(848,343,o),
(827,352,cs),
(754,382,o),
(723,399,o),
(723,425,cs),
(723,440,o),
(734,455,o),
(764,455,cs),
(795,455,o),
(812,439,o),
(812,417,cs),
(812,378,o),
(775,362,o),
(734,358,c),
(469,358,l),
(469,219,l),
(694,219,ls),
(773,219,o),
(845,238,o),
(886,263,cs),
(954,304,o),
(987,360,o),
(987,424,cs),
(987,513,o),
(907,586,o),
(763,586,cs),
(645,586,o),
(562,540,o),
(562,447,cs),
(562,389,o),
(599,337,o),
(688,308,cs),
(700,304,o),
(725,293,o),
(737,287,cs),
(758,278,o),
(773,262,o),
(773,240,cs),
(773,186,o),
(691,152,o),
(511,152,cs),
(276,152,o),
(204,236,o),
(204,301,cs),
(204,332,ls),
(204,416,o),
(238,456,o),
(279,456,cs),
(304,456,o),
(318,442,o),
(318,417,cs),
(318,385,o),
(294,368,o),
(247,368,cs),
(186,368,o),
(147,418,o),
(132,445,c),
(107,318,l),
(139,285,o),
(214,243,o),
(278,243,cs),
(398,243,o),
(475,290,o),
(475,411,cs),
(475,505,o),
(413,586,o),
(287,586,cs),
(134,586,o),
(27,490,o),
(27,332,cs),
(27,124,o),
(181,-12,o),
(514,-12,cs)
);
}
);
};
layerId = "D8BA631F-EBB2-4072-BC3E-5C4A99E1B6C7";
shapes = (
{
closed = 1;
nodes = (
(812,-12,o),
(959,70,o),
(959,206,cs),
(959,259,o),
(931,298,o),
(873,328,c),
(854,341,o),
(848,343,o),
(827,352,cs),
(754,382,o),
(723,399,o),
(723,425,cs),
(723,440,o),
(734,455,o),
(764,455,cs),
(795,455,o),
(812,439,o),
(812,417,cs),
(812,378,o),
(775,362,o),
(734,358,c),
(469,358,l),
(469,219,l),
(694,219,ls),
(773,219,o),
(845,238,o),
(886,263,cs),
(954,304,o),
(987,360,o),
(987,424,cs),
(987,513,o),
(907,586,o),
(763,586,cs),
(645,586,o),
(562,540,o),
(562,447,cs),
(562,389,o),
(599,337,o),
(688,308,cs),
(700,304,o),
(725,293,o),
(737,287,c),
(758,278,o),
(773,262,o),
(773,240,cs),
(773,186,o),
(691,152,o),
(511,152,cs),
(276,152,o),
(204,236,o),
(204,301,cs),
(204,332,ls),
(204,416,o),
(238,456,o),
(279,456,cs),
(304,456,o),
(318,442,o),
(318,417,cs),
(318,385,o),
(294,368,o),
(247,368,cs),
(186,368,o),
(147,418,o),
(132,445,c),
(107,318,l),
(139,285,o),
(214,243,o),
(278,243,cs),
(398,243,o),
(475,290,o),
(475,411,cs),
(475,505,o),
(413,586,o),
(287,586,cs),
(134,586,o),
(27,490,o),
(27,332,cs),
(27,124,o),
(181,-12,o),
(514,-12,cs)
);
}
);
width = 1009;
}
);
unicode = 3206;
},
{
glyphname = iknda;
layers = (
{
anchors = (
{
name = Anchor5;
position = "{435, -24}";
}
);
background = {
shapes = (
{
closed = 1;
nodes = (
(521,-12,o),
(605,10,o),
(687,66,c),
(724,80,l),
(799,133,o),
(841,218,o),
(841,324,cs),
(841,492,o),
(747,586,o),
(592,586,cs),
(513,586,o),
(457,556,o),
(404,505,c),
(423,504,l),
(367,560,o),
(317,586,o),
(232,586,cs),
(104,586,o),
(21,521,o),
(21,413,cs),
(21,370,o),
(33,328,o),
(45,299,c),
(223,348,l),
(217,361,o),
(212,376,o),
(212,394,cs),
(212,420,o),
(230,436,o),
(255,436,cs),
(292,436,o),
(323,412,o),
(328,343,c),
(494,343,l),
(501,401,o),
(532,426,o),
(572,426,cs),
(621,426,o),
(651,392,o),
(651,325,cs),
(651,225,o),
(577,129,o),
(425,129,cs),
(355,129,o),
(342,142,o),
(342,160,cs),
(342,175,o),
(356,187,o),
(397,187,cs),
(527,187,o),
(606,81,o),
(623,-55,c),
(814,-24,l),
(796,61,o),
(759,129,o),
(699,186,c),
(612,276,o),
(525,319,o),
(394,319,cs),
(236,319,o),
(165,252,o),
(165,157,cs),
(165,58,o),
(232,-12,o),
(410,-12,cs)
);
}
);
};
layerId = "D8BA631F-EBB2-4072-BC3E-5C4A99E1B6C7";
shapes = (
{
closed = 1;
nodes = (
(521,-12,o),
(605,10,o),
(687,66,c),
(724,80,l),
(799,133,o),
(841,218,o),
(841,324,cs),
(841,492,o),
(747,586,o),
(592,586,cs),
(513,586,o),
(457,556,o),
(404,505,c),
(423,504,l),
(367,560,o),
(317,586,o),
(232,586,cs),
(104,586,o),
(21,521,o),
(21,413,cs),
(21,370,o),
(33,328,o),
(45,299,c),
(223,348,l),
(217,361,o),
(212,376,o),
(212,394,cs),
(212,420,o),
(230,436,o),
(255,436,cs),
(292,436,o),
(323,412,o),
(328,343,c),
(494,343,l),
(501,401,o),
(532,426,o),
(572,426,cs),
(621,426,o),
(651,392,o),
(651,325,cs),
(651,225,o),
(577,129,o),
(425,129,cs),
(355,129,o),
(342,142,o),
(342,160,cs),
(342,175,o),
(356,187,o),
(397,187,cs),
(527,187,o),
(606,81,o),
(623,-55,c),
(814,-24,l),
(796,61,o),
(759,129,o),
(699,186,c),
(612,276,o),
(525,319,o),
(394,319,cs),
(236,319,o),
(165,252,o),
(165,157,cs),
(165,58,o),
(232,-12,o),
(410,-12,cs)
);
}
);
width = 871;
}
);
unicode = 3207;
},
{
glyphname = iiknda;
layers = (
{
anchors = (
{
name = Anchor5;
position = "{399, -24}";
}
);
background = {
shapes = (
{
closed = 1;
nodes = (
(618,-12,o),
(730,78,o),
(730,243,cs),
(730,326,o),
(694,406,o),
(615,451,c),
(586,427,l),
(634,437,o),
(667,457,o),
(688,480,cs),
(714,508,o),
(730,546,o),
(730,597,cs),
(730,654,o),
(714,713,o),
(645,798,c),
(505,715,l),
(537,678,o),
(549,652,o),
(549,623,cs),
(549,606,o),
(544,594,o),
(533,587,cs),
(518,577,o),
(495,574,o),
(437,574,cs),
(68,574,l),
(68,418,l),
(239,418,l),
(217,443,l),
(115,412,o),
(68,336,o),
(68,240,cs),
(68,81,o),
(188,-12,o),
(402,-12,cs)
);
},
{
closed = 1;
nodes = (
(311,147,o),
(256,189,o),
(256,281,cs),
(256,297,o),
(258,313,o),
(262,328,cs),
(277,381,o),
(324,418,o),
(400,418,cs),
(469,418,o),
(517,385,o),
(534,333,cs),
(539,317,o),
(542,300,o),
(542,281,cs),
(542,198,o),
(495,147,o),
(400,147,cs)
);
},
{
closed = 1;
nodes = (
(854,6,l),
(1011,17,o),
(1074,64,o),
(1074,156,cs),
(1074,209,o),
(1046,248,o),
(996,288,c),
(967,326,l),
(917,371,o),
(906,387,o),
(906,408,cs),
(906,429,o),
(919,442,o),
(941,442,cs),
(964,442,o),
(975,424,o),
(975,406,cs),
(975,360,o),
(919,355,o),
(869,355,cs),
(20,355,l),
(20,217,l),
(792,217,ls),
(980,217,o),
(1121,259,o),
(1121,411,cs),
(1121,499,o),
(1057,567,o),
(931,567,cs),
(831,567,o),
(764,511,o),
(764,434,cs),
(764,382,o),
(797,343,o),
(837,304,c),
(851,255,l),
(888,237,o),
(912,215,o),
(912,195,cs),
(912,174,o),
(899,161,o),
(835,159,c)
);
}
);
};
layerId = "D8BA631F-EBB2-4072-BC3E-5C4A99E1B6C7";
shapes = (
{
closed = 1;
nodes = (
(618,-12,o),
(730,78,o),
(730,243,cs),
(730,326,o),
(694,406,o),
(615,451,c),
(586,427,l),
(634,437,o),
(667,457,o),
(688,480,cs),
(714,508,o),
(730,546,o),
(730,597,cs),
(730,654,o),
(714,713,o),
(645,798,c),
(505,715,l),
(537,678,o),
(549,652,o),
(549,623,cs),
(549,606,o),
(544,594,o),
(533,587,cs),
(518,577,o),
(495,574,o),
(437,574,cs),
(68,574,l),
(68,418,l),
(239,418,l),
(217,443,l),
(115,412,o),
(68,336,o),
(68,240,cs),
(68,81,o),
(188,-12,o),
(402,-12,cs)
);
},
{
closed = 1;
nodes = (
(311,147,o),
(256,189,o),
(256,281,cs),
(256,297,o),
(258,313,o),
(262,328,cs),
(277,381,o),
(324,418,o),
(400,418,cs),
(469,418,o),
(517,385,o),
(534,333,cs),
(539,317,o),
(542,300,o),
(542,281,cs),
(542,198,o),
(495,147,o),
(400,147,cs)
);
},
{
closed = 1;
nodes = (
(854,6,l),
(1011,17,o),
(1074,64,o),
(1074,156,cs),
(1074,209,o),
(1046,248,o),
(996,288,c),
(967,326,l),
(917,371,o),
(906,387,o),
(906,408,cs),
(906,429,o),
(919,442,o),
(941,442,cs),
(964,442,o),
(975,424,o),
(975,406,cs),
(975,360,o),
(919,355,o),
(869,355,cs),
(20,355,l),
(20,217,l),
(792,217,ls),
(980,217,o),
(1121,259,o),
(1121,411,cs),
(1121,499,o),
(1057,567,o),
(931,567,cs),
(831,567,o),
(764,511,o),
(764,434,cs),
(764,382,o),
(797,343,o),
(837,304,c),
(851,255,l),
(888,237,o),
(912,215,o),
(912,195,cs),
(912,174,o),
(899,161,o),
(835,159,c)
);
}
);
width = 1140;
}
);
unicode = 3208;
},
{
glyphname = uknda;
layers = (
{
anchors = (
{
name = Anchor5;
position = "{704, -24}";
}
);
background = {
shapes = (
{
closed = 1;
nodes = (
(1293,-12,o),
(1378,94,o),
(1378,246,cs),
(1378,394,o),
(1296,509,o),
(1169,588,c),
(1043,446,l),
(1130,390,o),
(1188,323,o),
(1188,242,cs),
(1188,181,o),
(1158,150,o),
(1096,150,cs),
(1064,150,o),
(1037,158,o),
(1021,178,cs),
(1005,198,o),
(998,222,o),
(998,272,cs),
(998,349,ls),
(998,447,o),
(973,508,o),
(914,547,cs),
(878,571,o),
(827,586,o),
(764,586,cs),
(600,586,o),
(530,499,o),
(530,407,cs),
(530,350,o),
(537,311,o),
(537,269,cs),
(537,188,o),
(490,150,o),
(395,150,cs),
(243,150,o),
(201,251,o),
(201,314,cs),
(201,330,ls),
(201,412,o),
(239,456,o),
(280,456,cs),
(305,456,o),
(319,442,o),
(319,418,cs),
(319,385,o),
(295,368,o),
(248,368,cs),
(187,368,o),
(148,418,o),
(133,445,c),
(108,318,l),
(140,285,o),
(211,243,o),
(294,243,cs),
(413,243,o),
(488,293,o),
(488,410,cs),
(488,508,o),
(421,586,o),
(295,586,cs),
(135,586,o),
(28,489,o),
(28,316,cs),
(28,121,o),
(158,-12,o),
(398,-12,cs),
(596,-12,o),
(725,58,o),
(725,242,cs),
(725,285,o),
(718,330,o),
(718,367,cs),
(718,406,o),
(733,429,o),
(762,429,cs),
(777,429,o),
(787,424,o),
(794,416,cs),
(808,401,o),
(810,373,o),
(810,332,cs),
(810,275,ls),
(810,158,o),
(835,104,o),
(873,62,cs),
(919,11,o),
(994,-12,o),
(1093,-12,cs)
);
}
);
};
layerId = "D8BA631F-EBB2-4072-BC3E-5C4A99E1B6C7";
shapes = (
{
closed = 1;
nodes = (
(1293,-12,o),
(1378,94,o),
(1378,246,cs),
(1378,394,o),
(1296,509,o),
(1169,588,c),
(1043,446,l),
(1130,390,o),
(1188,323,o),
(1188,242,cs),
(1188,181,o),
(1158,150,o),
(1096,150,cs),
(1064,150,o),
(1037,158,o),
(1021,178,cs),
(1005,198,o),
(998,222,o),
(998,272,cs),
(998,349,ls),
(998,447,o),
(973,508,o),
(914,547,cs),
(878,571,o),
(827,586,o),
(764,586,cs),
(600,586,o),
(530,499,o),
(530,407,cs),
(530,350,o),
(537,311,o),
(537,269,cs),
(537,188,o),
(490,150,o),
(395,150,cs),
(243,150,o),
(201,251,o),
(201,314,cs),
(201,330,ls),
(201,412,o),
(239,456,o),
(280,456,cs),
(305,456,o),
(319,442,o),
(319,418,cs),
(319,385,o),
(295,368,o),
(248,368,cs),
(187,368,o),
(148,418,o),
(133,445,c),
(108,318,l),
(140,285,o),
(211,243,o),
(294,243,cs),
(413,243,o),
(488,293,o),
(488,410,cs),
(488,508,o),
(421,586,o),
(295,586,cs),
(135,586,o),
(28,489,o),
(28,316,cs),
(28,121,o),
(158,-12,o),
(398,-12,cs),
(596,-12,o),
(725,58,o),
(725,242,cs),
(725,285,o),
(718,330,o),
(718,367,cs),
(718,406,o),
(733,429,o),
(762,429,cs),
(777,429,o),
(787,424,o),
(794,416,cs),
(808,401,o),
(810,373,o),
(810,332,cs),
(810,275,ls),
(810,158,o),
(835,104,o),
(873,62,cs),
(919,11,o),
(994,-12,o),
(1093,-12,cs)
);
}
);
width = 1411;
}
);
unicode = 3209;
},
{
glyphname = uuknda;
layers = (
{
anchors = (
{
name = Anchor5;
position = "{928, -24}";
}
);
background = {
shapes = (
{
closed = 1;
nodes = (
(1191,-12,o),
(1277,60,o),
(1277,182,cs),
(1277,219,o),
(1274,252,o),
(1274,286,cs),
(1274,385,o),
(1335,426,o),
(1438,426,cs),
(1566,426,o),
(1639,351,o),
(1639,254,cs),
(1639,181,o),
(1602,135,o),
(1530,135,cs),
(1473,135,o),
(1455,168,o),
(1455,196,cs),
(1455,204,o),
(1455,212,o),
(1458,227,c),
(1438,192,l),
(1459,171,o),
(1479,167,o),
(1500,167,cs),
(1553,167,o),
(1576,195,o),
(1576,240,cs),
(1576,292,o),
(1543,328,o),
(1468,328,cs),
(1375,328,o),
(1323,259,o),
(1323,179,cs),
(1323,58,o),
(1405,-12,o),
(1555,-12,cs),
(1727,-12,o),
(1826,97,o),
(1826,258,cs),
(1826,420,o),
(1716,586,o),
(1430,586,cs),
(1238,586,o),
(1086,505,o),
(1086,322,cs),
(1086,281,o),
(1091,248,o),
(1091,213,cs),
(1091,163,o),
(1076,145,o),
(1046,145,cs),
(1032,145,o),
(1022,150,o),
(1015,157,cs),
(1000,172,o),
(998,200,o),
(998,242,cs),
(998,349,ls),
(998,447,o),
(973,508,o),
(914,547,cs),
(878,571,o),
(827,586,o),
(764,586,cs),
(600,586,o),
(530,499,o),
(530,407,cs),
(530,350,o),
(537,311,o),
(537,269,cs),
(537,188,o),
(490,150,o),
(395,150,cs),
(243,150,o),
(201,251,o),
(201,314,cs),
(201,330,ls),
(201,412,o),
(239,456,o),
(280,456,cs),
(305,456,o),
(319,442,o),
(319,418,cs),
(319,385,o),
(295,368,o),
(248,368,cs),
(187,368,o),
(148,418,o),
(133,445,c),
(108,318,l),
(140,285,o),
(211,243,o),
(294,243,cs),
(413,243,o),
(488,293,o),
(488,410,cs),
(488,508,o),
(421,586,o),
(295,586,cs),
(135,586,o),
(28,489,o),
(28,316,cs),
(28,121,o),
(158,-12,o),
(398,-12,cs),
(596,-12,o),
(725,58,o),
(725,242,cs),
(725,285,o),
(718,330,o),
(718,367,cs),
(718,406,o),
(733,429,o),
(762,429,cs),
(777,429,o),
(787,424,o),
(794,416,cs),
(808,401,o),
(810,374,o),
(810,332,cs),
(810,221,ls),
(810,143,o),
(824,90,o),
(858,53,cs),
(904,4,o),
(967,-12,o),
(1048,-12,cs)
);
}
);
};
layerId = "D8BA631F-EBB2-4072-BC3E-5C4A99E1B6C7";
shapes = (
{
closed = 1;
nodes = (
(1191,-12,o),
(1277,60,o),
(1277,182,cs),
(1277,219,o),
(1274,252,o),
(1274,286,cs),
(1274,385,o),
(1335,426,o),
(1438,426,cs),
(1566,426,o),
(1639,351,o),
(1639,254,cs),
(1639,181,o),
(1602,135,o),
(1530,135,cs),
(1473,135,o),
(1455,168,o),
(1455,196,cs),
(1455,204,o),
(1455,212,o),
(1458,227,c),
(1438,192,l),
(1459,171,o),
(1479,167,o),
(1500,167,cs),
(1553,167,o),
(1576,195,o),
(1576,240,cs),
(1576,292,o),
(1543,328,o),
(1468,328,cs),
(1375,328,o),
(1323,259,o),
(1323,179,cs),
(1323,58,o),
(1405,-12,o),
(1555,-12,cs),
(1727,-12,o),
(1826,97,o),
(1826,258,cs),
(1826,420,o),
(1716,586,o),
(1430,586,cs),
(1238,586,o),
(1086,505,o),
(1086,322,cs),
(1086,281,o),
(1091,248,o),
(1091,213,cs),
(1091,163,o),
(1076,145,o),
(1046,145,cs),
(1032,145,o),
(1022,150,o),
(1015,157,cs),
(1000,172,o),
(998,200,o),
(998,242,cs),
(998,349,ls),
(998,447,o),
(973,508,o),
(914,547,cs),
(878,571,o),
(827,586,o),
(764,586,cs),
(600,586,o),
(530,499,o),
(530,407,cs),
(530,350,o),
(537,311,o),
(537,269,cs),
(537,188,o),
(490,150,o),
(395,150,cs),
(243,150,o),
(201,251,o),
(201,314,cs),
(201,330,ls),
(201,412,o),
(239,456,o),
(280,456,cs),
(305,456,o),
(319,442,o),
(319,418,cs),
(319,385,o),
(295,368,o),
(248,368,cs),
(187,368,o),
(148,418,o),
(133,445,c),
(108,318,l),
(140,285,o),
(211,243,o),
(294,243,cs),
(413,243,o),
(488,293,o),
(488,410,cs),
(488,508,o),
(421,586,o),
(295,586,cs),
(135,586,o),
(28,489,o),
(28,316,cs),
(28,121,o),
(158,-12,o),
(398,-12,cs),
(596,-12,o),
(725,58,o),
(725,242,cs),
(725,285,o),
(718,330,o),
(718,367,cs),
(718,406,o),
(733,429,o),
(762,429,cs),
(777,429,o),
(787,424,o),
(794,416,cs),
(808,401,o),
(810,374,o),
(810,332,cs),
(810,221,ls),
(810,143,o),
(824,90,o),
(858,53,cs),
(904,4,o),
(967,-12,o),
(1048,-12,cs)
);
}
);
width = 1858;
}
);
unicode = 3210;
},
{
glyphname = rvocalicknda;
layers = (
{
anchors = (
{
name = Anchor5;
position = "{683, -24}";
}
);
background = {
shapes = (
{
closed = 1;
nodes = (
(486,-12,o),
(563,120,o),
(563,287,cs),
(563,434,o),
(469,586,o),
(240,586,cs),
(90,586,o),
(22,518,o),
(22,437,cs),
(22,328,o),
(112,291,o),
(199,291,cs),
(298,291,o),
(363,332,o),
(363,415,cs),
(363,431,o),
(358,455,o),
(342,477,c),
(225,470,l),
(244,466,o),
(259,453,o),
(259,434,cs),
(259,418,o),
(243,409,o),
(216,409,cs),
(190,409,o),
(177,418,o),
(177,434,cs),
(177,454,o),
(192,463,o),
(221,463,cs),
(249,463,o),
(273,458,o),
(293,450,cs),
(304,445,o),
(316,440,o),
(325,433,cs),
(362,405,o),
(379,353,o),
(379,288,cs),
(379,217,o),
(371,170,o),
(341,141,cs),
(333,133,o),
(323,129,o),
(311,124,cs),
(291,115,o),
(265,111,o),
(232,111,cs),
(188,111,o),
(181,125,o),
(181,140,cs),
(181,154,o),
(193,165,o),
(222,165,cs),
(247,165,o),
(263,153,o),
(263,135,cs),
(263,122,o),
(256,105,o),
(239,97,c),
(345,96,l),
(360,117,o),
(367,141,o),
(367,159,cs),
(367,245,o),
(299,283,o),
(201,283,cs),
(108,283,o),
(26,239,o),
(26,143,cs),
(26,50,o),
(104,-12,o),
(247,-12,cs)
);
},
{
closed = 1;
nodes = (
(882,-12,o),
(950,86,o),
(950,218,cs),
(950,374,o),
(840,480,o),
(678,542,c),
(610,427,l),
(704,393,o),
(760,322,o),
(760,241,cs),
(760,179,o),
(724,150,o),
(661,150,cs),
(602,150,o),
(562,181,o),
(518,247,c),
(416,132,l),
(503,32,o),
(590,-12,o),
(681,-12,cs)
);
},
{
closed = 1;
nodes = (
(700,418,ls),
(802,418,o),
(866,435,o),
(908,480,cs),
(934,508,o),
(950,546,o),
(950,597,cs),
(950,654,o),
(934,713,o),
(865,798,c),
(725,715,l),
(757,678,o),
(769,652,o),
(769,623,cs),
(769,606,o),
(764,594,o),
(753,587,cs),
(738,577,o),
(715,574,o),
(657,574,cs),
(567,574,l),
(567,418,l)
);
},
{
closed = 1;
nodes = (
(1249,-12,o),
(1334,86,o),
(1334,245,cs),
(1334,416,o),
(1219,524,o),
(1085,588,c),
(986,429,l),
(1069,383,o),
(1143,336,o),
(1143,246,cs),
(1143,183,o),
(1106,151,o),
(1048,151,cs),
(978,151,o),
(935,187,o),
(883,246,c),
(791,133,l),
(878,33,o),
(960,-12,o),
(1075,-12,cs)
);
}
);
};
layerId = "D8BA631F-EBB2-4072-BC3E-5C4A99E1B6C7";
shapes = (
{
closed = 1;
nodes = (
(486,-12,o),
(563,120,o),
(563,287,cs),
(563,434,o),
(469,586,o),
(240,586,cs),
(90,586,o),
(22,518,o),
(22,437,cs),
(22,328,o),
(112,291,o),
(199,291,cs),
(298,291,o),
(363,332,o),
(363,415,cs),
(363,431,o),
(358,455,o),
(342,477,c),
(225,470,l),
(244,466,o),
(259,453,o),
(259,434,cs),
(259,418,o),
(243,409,o),
(216,409,cs),
(190,409,o),
(177,418,o),
(177,434,cs),
(177,454,o),
(192,463,o),
(221,463,cs),
(249,463,o),
(273,458,o),
(293,450,cs),
(304,445,o),
(316,440,o),
(325,433,cs),
(362,405,o),
(379,353,o),
(379,288,cs),
(379,217,o),
(371,170,o),
(341,141,cs),
(333,133,o),
(323,129,o),
(311,124,cs),
(291,115,o),
(265,111,o),
(232,111,cs),
(188,111,o),
(181,125,o),
(181,140,cs),
(181,154,o),
(193,165,o),
(222,165,cs),
(247,165,o),
(263,153,o),
(263,135,cs),
(263,122,o),
(256,105,o),
(239,97,c),
(345,96,l),
(360,117,o),
(367,141,o),
(367,159,cs),
(367,245,o),
(299,283,o),
(201,283,cs),
(108,283,o),
(26,239,o),
(26,143,cs),
(26,50,o),
(104,-12,o),
(247,-12,cs)
);
},
{
closed = 1;
nodes = (
(882,-12,o),
(950,86,o),
(950,218,cs),
(950,374,o),
(840,480,o),
(678,542,c),
(610,427,l),
(704,393,o),
(760,322,o),
(760,241,cs),
(760,179,o),
(724,150,o),
(661,150,cs),
(602,150,o),
(562,181,o),
(518,247,c),
(416,132,l),
(503,32,o),
(590,-12,o),
(681,-12,cs)
);
},
{
closed = 1;
nodes = (
(700,418,ls),
(802,418,o),
(866,435,o),
(908,480,cs),
(934,508,o),
(950,546,o),
(950,597,cs),
(950,654,o),
(934,713,o),
(865,798,c),
(725,715,l),
(757,678,o),
(769,652,o),
(769,623,cs),
(769,606,o),
(764,594,o),
(753,587,cs),
(738,577,o),
(715,574,o),
(657,574,cs),
(567,574,l),
(567,418,l)
);
},
{
closed = 1;
nodes = (
(1249,-12,o),
(1334,86,o),
(1334,245,cs),
(1334,416,o),
(1219,524,o),
(1085,588,c),
(986,429,l),
(1069,383,o),
(1143,336,o),
(1143,246,cs),
(1143,183,o),
(1106,151,o),
(1048,151,cs),
(978,151,o),
(935,187,o),
(883,246,c),
(791,133,l),
(878,33,o),
(960,-12,o),
(1075,-12,cs)
);
}
);
width = 1367;
}
);
unicode = 3211;
},
{
glyphname = lvocalicknda;
layers = (
{
anchors = (
{
name = Anchor5;
position = "{476, -24}";
}
);
background = {
shapes = (
{
closed = 1;
nodes = (
(783,173,l),
(730,142,o),
(688,122,o),
(637,122,cs),
(612,122,o),
(597,128,o),
(597,146,cs),
(597,162,o),
(605,174,o),
(675,213,cs),
(795,280,o),
(821,343,o),
(821,409,cs),
(821,505,o),
(747,586,o),
(610,586,cs),
(513,586,o),
(456,553,o),
(403,502,c),
(423,505,l),
(367,560,o),
(317,586,o),
(232,586,cs),
(104,586,o),
(21,521,o),
(21,413,cs),
(21,370,o),
(33,328,o),
(45,299,c),
(223,348,l),
(217,361,o),
(212,376,o),
(212,394,cs),
(212,420,o),
(230,436,o),
(255,436,cs),
(292,436,o),
(323,412,o),
(328,343,c),
(494,343,l),
(501,396,o),
(535,427,o),
(584,427,cs),
(610,427,o),
(630,415,o),
(630,391,cs),
(630,368,o),
(614,353,o),
(555,317,cs),
(437,245,o),
(407,196,o),
(407,123,cs),
(407,44,o),
(463,-39,o),
(622,-39,cs),
(712,-39,o),
(795,-12,o),
(866,31,c)
);
}
);
};
layerId = "D8BA631F-EBB2-4072-BC3E-5C4A99E1B6C7";
shapes = (
{
closed = 1;
nodes = (
(783,173,l),
(730,142,o),
(688,122,o),
(637,122,cs),
(612,122,o),
(597,128,o),
(597,146,cs),
(597,162,o),
(605,174,o),
(675,213,cs),
(795,280,o),
(821,343,o),
(821,409,cs),
(821,505,o),
(747,586,o),
(610,586,cs),
(513,586,o),
(456,553,o),
(403,502,c),
(423,505,l),
(367,560,o),
(317,586,o),
(232,586,cs),
(104,586,o),
(21,521,o),
(21,413,cs),
(21,370,o),
(33,328,o),
(45,299,c),
(223,348,l),
(217,361,o),
(212,376,o),
(212,394,cs),
(212,420,o),
(230,436,o),
(255,436,cs),
(292,436,o),
(323,412,o),
(328,343,c),
(494,343,l),
(501,396,o),
(535,427,o),
(584,427,cs),
(610,427,o),
(630,415,o),
(630,391,cs),
(630,368,o),
(614,353,o),
(555,317,cs),
(437,245,o),
(407,196,o),
(407,123,cs),
(407,44,o),
(463,-39,o),
(622,-39,cs),
(712,-39,o),
(795,-12,o),
(866,31,c)
);
}
);
width = 876;
}
);
unicode = 3212;
},
{
glyphname = eknda;
layers = (
{
anchors = (
{
name = Anchor5;
position = "{460, -24}";
}
);
background = {
shapes = (
{
closed = 1;
nodes = (
(792,-12,o),
(891,37,o),
(891,220,cs),
(891,429,o),
(736,608,o),
(285,609,c),
(271,439,l),
(529,436,o),
(700,376,o),
(700,223,cs),
(700,173,o),
(684,150,o),
(646,150,cs),
(609,150,o),
(580,174,o),
(577,238,c),
(411,238,l),
(398,177,o),
(362,145,o),
(286,145,cs),
(212,145,o),
(182,161,o),
(182,195,cs),
(182,211,o),
(192,225,o),
(211,225,cs),
(228,225,o),
(237,214,o),
(237,197,cs),
(237,193,o),
(237,186,o),
(236,182,c),
(359,176,l),
(367,191,o),
(372,217,o),
(372,239,cs),
(372,308,o),
(327,357,o),
(215,357,cs),
(101,357,o),
(23,293,o),
(23,183,cs),
(23,65,o),
(102,-12,o),
(260,-12,cs),
(392,-12,o),
(457,27,o),
(533,98,c),
(453,105,l),
(510,31,o),
(565,-12,o),
(685,-12,cs)
);
}
);
};
layerId = "D8BA631F-EBB2-4072-BC3E-5C4A99E1B6C7";
shapes = (
{
closed = 1;
nodes = (
(792,-12,o),
(891,37,o),
(891,220,cs),
(891,429,o),
(736,608,o),
(285,609,c),
(271,439,l),
(529,436,o),
(700,376,o),
(700,223,cs),
(700,173,o),
(684,150,o),
(646,150,cs),
(609,150,o),
(580,174,o),
(577,238,c),
(411,238,l),
(398,177,o),
(362,145,o),
(286,145,cs),
(212,145,o),
(182,161,o),
(182,195,cs),
(182,211,o),
(192,225,o),
(211,225,cs),
(228,225,o),
(237,214,o),
(237,197,cs),
(237,193,o),
(237,186,o),
(236,182,c),
(359,176,l),
(367,191,o),
(372,217,o),
(372,239,cs),
(372,308,o),
(327,357,o),
(215,357,cs),
(101,357,o),
(23,293,o),
(23,183,cs),
(23,65,o),
(102,-12,o),
(260,-12,cs),
(392,-12,o),
(457,27,o),
(533,98,c),
(453,105,l),
(510,31,o),
(565,-12,o),
(685,-12,cs)
);
}
);
width = 920;
}
);
unicode = 3214;
},
{
glyphname = eeknda;
layers = (
{
anchors = (
{
name = Anchor5;
position = "{460, -24}";
}
);
background = {
shapes = (
{
closed = 1;
nodes = (
(792,-12,o),
(891,37,o),
(891,222,cs),
(891,409,o),
(755,572,o),
(400,609,c),
(389,542,o),
(372,509,o),
(330,509,cs),
(287,509,o),
(272,542,o),
(271,609,c),
(90,594,l),
(99,423,o),
(198,372,o),
(323,372,cs),
(426,372,o),
(501,412,o),
(542,500,c),
(452,435,l),
(571,413,o),
(700,357,o),
(700,225,cs),
(700,173,o),
(684,150,o),
(646,150,cs),
(609,150,o),
(580,174,o),
(577,238,c),
(411,238,l),
(398,177,o),
(362,145,o),
(286,145,cs),
(212,145,o),
(182,161,o),
(182,195,cs),
(182,211,o),
(192,225,o),
(211,225,cs),
(228,225,o),
(237,214,o),
(237,197,cs),
(237,193,o),
(237,186,o),
(236,182,c),
(359,176,l),
(367,191,o),
(372,217,o),
(372,239,cs),
(372,308,o),
(327,357,o),
(215,357,cs),
(101,357,o),
(23,293,o),
(23,183,cs),
(23,65,o),
(102,-12,o),
(260,-12,cs),
(392,-12,o),
(457,27,o),
(533,98,c),
(453,105,l),
(510,31,o),
(565,-12,o),
(685,-12,cs)
);
}
);
};
layerId = "D8BA631F-EBB2-4072-BC3E-5C4A99E1B6C7";
shapes = (
{
closed = 1;
nodes = (
(792,-12,o),
(891,37,o),
(891,222,cs),
(891,409,o),
(755,572,o),
(400,609,c),
(389,542,o),
(372,509,o),
(330,509,cs),
(287,509,o),
(272,542,o),
(271,609,c),
(90,594,l),
(99,423,o),
(198,372,o),
(323,372,cs),
(426,372,o),
(501,412,o),
(542,500,c),
(452,435,l),
(571,413,o),
(700,357,o),
(700,225,cs),
(700,173,o),
(684,150,o),
(646,150,cs),
(609,150,o),
(580,174,o),
(577,238,c),
(411,238,l),
(398,177,o),
(362,145,o),
(286,145,cs),
(212,145,o),
(182,161,o),
(182,195,cs),
(182,211,o),
(192,225,o),
(211,225,cs),
(228,225,o),
(237,214,o),
(237,197,cs),
(237,193,o),
(237,186,o),
(236,182,c),
(359,176,l),
(367,191,o),
(372,217,o),
(372,239,cs),
(372,308,o),
(327,357,o),
(215,357,cs),
(101,357,o),
(23,293,o),
(23,183,cs),
(23,65,o),
(102,-12,o),
(260,-12,cs),
(392,-12,o),
(457,27,o),
(533,98,c),
(453,105,l),
(510,31,o),
(565,-12,o),
(685,-12,cs)
);
}
);
width = 920;
}
);
unicode = 3215;
},
{
glyphname = aiknda;
layers = (
{
anchors = (
{
name = Anchor5;
position = "{472, -24}";
}
);
background = {
shapes = (
{
closed = 1;
nodes = (
(816,-12,o),
(911,58,o),
(911,262,cs),
(911,470,o),
(802,586,o),
(649,586,cs),
(566,586,o),
(509,559,o),
(454,499,c),
(479,494,l),
(425,547,o),
(375,586,o),
(264,586,cs),
(129,586,o),
(51,524,o),
(51,427,cs),
(51,405,o),
(56,373,o),
(67,347,c),
(236,378,l),
(234,384,o),
(233,390,o),
(233,396,cs),
(233,418,o),
(251,429,o),
(281,429,cs),
(327,429,o),
(357,404,o),
(381,363,c),
(546,363,l),
(558,396,o),
(584,424,o),
(626,424,cs),
(671,424,o),
(721,385,o),
(721,263,cs),
(721,199,o),
(705,150,o),
(652,150,cs),
(619,150,o),
(590,174,o),
(587,238,c),
(421,238,l),
(408,177,o),
(372,145,o),
(296,145,cs),
(222,145,o),
(192,161,o),
(192,195,cs),
(192,211,o),
(202,225,o),
(221,225,cs),
(238,225,o),
(247,214,o),
(247,197,cs),
(247,193,o),
(247,186,o),
(246,182,c),
(369,176,l),
(377,191,o),
(382,217,o),
(382,239,cs),
(382,308,o),
(337,357,o),
(225,357,cs),
(111,357,o),
(33,293,o),
(33,183,cs),
(33,65,o),
(112,-12,o),
(270,-12,cs),
(402,-12,o),
(467,27,o),
(543,98,c),
(463,105,l),
(520,31,o),
(570,-12,o),
(679,-12,cs)
);
}
);
};
layerId = "D8BA631F-EBB2-4072-BC3E-5C4A99E1B6C7";
shapes = (
{
closed = 1;
nodes = (
(816,-12,o),
(911,58,o),
(911,262,cs),
(911,470,o),
(802,586,o),
(649,586,cs),
(566,586,o),
(509,559,o),
(454,499,c),
(479,494,l),
(425,547,o),
(375,586,o),
(264,586,cs),
(129,586,o),
(51,524,o),
(51,427,cs),
(51,405,o),
(56,373,o),
(67,347,c),
(236,378,l),
(234,384,o),
(233,390,o),
(233,396,cs),
(233,418,o),
(251,429,o),
(281,429,cs),
(327,429,o),
(357,404,o),
(381,363,c),
(546,363,l),
(558,396,o),
(584,424,o),
(626,424,cs),
(671,424,o),
(721,385,o),
(721,263,cs),
(721,199,o),
(705,150,o),
(652,150,cs),
(619,150,o),
(590,174,o),
(587,238,c),
(421,238,l),
(408,177,o),
(372,145,o),
(296,145,cs),
(222,145,o),
(192,161,o),
(192,195,cs),
(192,211,o),
(202,225,o),
(221,225,cs),
(238,225,o),
(247,214,o),
(247,197,cs),
(247,193,o),
(247,186,o),
(246,182,c),
(369,176,l),
(377,191,o),
(382,217,o),
(382,239,cs),
(382,308,o),
(337,357,o),
(225,357,cs),
(111,357,o),
(33,293,o),
(33,183,cs),
(33,65,o),
(112,-12,o),
(270,-12,cs),
(402,-12,o),
(467,27,o),
(543,98,c),
(463,105,l),
(520,31,o),
(570,-12,o),
(679,-12,cs)
);
}
);
width = 945;
}
);
unicode = 3216;
},
{
glyphname = oknda;
layers = (
{
anchors = (
{
name = Anchor5;
position = "{461, -24}";
}
);
background = {
shapes = (
{
closed = 1;
nodes = (
(817,-12,o),
(900,56,o),
(900,198,cs),
(900,249,o),
(884,301,o),
(844,353,c),
(686,275,l),
(700,258,o),
(710,234,o),
(710,208,cs),
(710,174,o),
(687,150,o),
(644,150,cs),
(589,150,o),
(563,176,o),
(557,238,c),
(389,238,l),
(380,182,o),
(350,145,o),
(286,145,cs),
(251,145,o),
(237,156,o),
(237,176,cs),
(237,192,o),
(244,204,o),
(300,238,cs),
(421,310,o),
(458,353,o),
(458,434,cs),
(458,505,o),
(409,586,o),
(243,586,cs),
(91,586,o),
(21,527,o),
(21,433,cs),
(21,394,o),
(34,351,o),
(50,324,c),
(210,379,l),
(203,391,o),
(199,405,o),
(199,417,cs),
(199,437,o),
(212,451,o),
(238,451,cs),
(261,451,o),
(272,441,o),
(272,424,cs),
(272,403,o),
(262,388,o),
(207,357,cs),
(72,281,o),
(48,230,o),
(48,157,cs),
(48,59,o),
(112,-12,o),
(255,-12,cs),
(335,-12,o),
(418,-2,o),
(510,99,c),
(433,105,l),
(490,31,o),
(550,-12,o),
(661,-12,cs)
);
}
);
};
layerId = "D8BA631F-EBB2-4072-BC3E-5C4A99E1B6C7";
shapes = (
{
closed = 1;
nodes = (
(817,-12,o),
(900,56,o),
(900,198,cs),
(900,249,o),
(884,301,o),
(844,353,c),
(686,275,l),
(700,258,o),
(710,234,o),
(710,208,cs),
(710,174,o),
(687,150,o),
(644,150,cs),
(589,150,o),
(563,176,o),
(557,238,c),
(389,238,l),
(380,182,o),
(350,145,o),
(286,145,cs),
(251,145,o),
(237,156,o),
(237,176,cs),
(237,192,o),
(244,204,o),
(300,238,cs),
(421,310,o),
(458,353,o),
(458,434,cs),
(458,505,o),
(409,586,o),
(243,586,cs),
(91,586,o),
(21,527,o),
(21,433,cs),
(21,394,o),
(34,351,o),
(50,324,c),
(210,379,l),
(203,391,o),
(199,405,o),
(199,417,cs),
(199,437,o),
(212,451,o),
(238,451,cs),
(261,451,o),
(272,441,o),
(272,424,cs),
(272,403,o),
(262,388,o),
(207,357,cs),
(72,281,o),
(48,230,o),
(48,157,cs),
(48,59,o),
(112,-12,o),
(255,-12,cs),
(335,-12,o),
(418,-2,o),
(510,99,c),
(433,105,l),
(490,31,o),
(550,-12,o),
(661,-12,cs)
);
}
);
width = 923;
}
);
unicode = 3218;
},
{
glyphname = ooknda;
layers = (
{
anchors = (
{
name = Anchor5;
position = "{461, -24}";
}
);
background = {
shapes = (
{
closed = 1;
nodes = (
(294,567,l),
(265,583,o),
(249,596,o),
(249,615,cs),
(249,632,o),
(259,647,o),
(315,652,c),
(301,798,l),
(128,794,o),
(70,726,o),
(70,651,cs),
(70,589,o),
(108,549,o),
(158,508,c)
);
},
{
alignment = -1;
ref = oknda;
}
);
};
layerId = "D8BA631F-EBB2-4072-BC3E-5C4A99E1B6C7";
shapes = (
{
closed = 1;
nodes = (
(294,567,l),
(265,583,o),
(249,596,o),
(249,615,cs),
(249,632,o),
(259,647,o),
(315,652,c),
(301,798,l),
(128,794,o),
(70,726,o),
(70,651,cs),
(70,589,o),
(108,549,o),
(158,508,c)
);
},
{
alignment = -1;
ref = oknda;
}
);
width = 923;
}
);
unicode = 3219;
},
{
glyphname = auknda;
layers = (
{
anchors = (
{
name = Anchor5;
position = "{462, -24}";
}
);
background = {
shapes = (
{
closed = 1;
nodes = (
(817,-12,o),
(900,56,o),
(900,192,cs),
(900,245,o),
(886,292,o),
(853,339,c),
(693,266,l),
(703,250,o),
(710,230,o),
(710,208,cs),
(710,174,o),
(687,150,o),
(644,150,cs),
(589,150,o),
(563,176,o),
(557,238,c),
(389,238,l),
(380,182,o),
(350,145,o),
(286,145,cs),
(251,145,o),
(237,156,o),
(237,176,cs),
(237,192,o),
(244,204,o),
(300,238,cs),
(421,310,o),
(458,353,o),
(458,434,cs),
(458,505,o),
(409,586,o),
(243,586,cs),
(91,586,o),
(21,527,o),
(21,433,cs),
(21,394,o),
(34,351,o),
(50,324,c),
(210,379,l),
(203,391,o),
(199,405,o),
(199,417,cs),
(199,437,o),
(212,451,o),
(238,451,cs),
(261,451,o),
(272,441,o),
(272,424,cs),
(272,403,o),
(262,388,o),
(207,357,cs),
(72,281,o),
(48,230,o),
(48,157,cs),
(48,59,o),
(112,-12,o),
(255,-12,cs),
(335,-12,o),
(418,-2,o),
(510,99,c),
(433,105,l),
(490,31,o),
(550,-12,o),
(661,-12,cs)
);
},
{
closed = 1;
nodes = (
(195,469,ls),
(254,469,o),
(314,470,o),
(353,498,cs),
(394,527,o),
(400,571,o),
(400,588,cs),
(400,625,o),
(373,670,o),
(336,695,c),
(196,668,l),
(219,645,o),
(231,628,o),
(231,611,cs),
(231,604,o),
(230,599,o),
(226,595,cs),
(220,589,o),
(211,586,o),
(181,586,cs),
(86,586,l),
(87,469,l)
);
},
{
closed = 1;
nodes = (
(784,305,o),
(881,383,o),
(881,532,cs),
(881,616,o),
(852,681,o),
(801,722,cs),
(741,771,o),
(668,792,o),
(533,792,cs),
(40,792,l),
(40,643,l),
(508,643,ls),
(602,643,o),
(642,634,o),
(674,612,cs),
(701,594,o),
(718,561,o),
(718,518,cs),
(718,457,o),
(689,431,o),
(649,431,cs),
(605,431,o),
(591,457,o),
(591,482,cs),
(591,492,o),
(592,505,o),
(594,516,c),
(562,490,l),
(575,470,o),
(602,458,o),
(623,458,cs),
(670,458,o),
(688,490,o),
(688,523,cs),
(688,569,o),
(657,601,o),
(596,601,cs),
(520,601,o),
(476,547,o),
(476,472,cs),
(476,367,o),
(543,305,o),
(660,305,cs)
);
}
);
};
layerId = "D8BA631F-EBB2-4072-BC3E-5C4A99E1B6C7";
shapes = (
{
closed = 1;
nodes = (
(817,-12,o),
(900,56,o),
(900,192,cs),
(900,245,o),
(886,292,o),
(853,339,c),
(693,266,l),
(703,250,o),
(710,230,o),
(710,208,cs),
(710,174,o),
(687,150,o),
(644,150,cs),
(589,150,o),
(563,176,o),
(557,238,c),
(389,238,l),
(380,182,o),
(350,145,o),
(286,145,cs),
(251,145,o),
(237,156,o),
(237,176,cs),
(237,192,o),
(244,204,o),
(300,238,cs),
(421,310,o),
(458,353,o),
(458,434,cs),
(458,505,o),
(409,586,o),
(243,586,cs),
(91,586,o),
(21,527,o),
(21,433,cs),
(21,394,o),
(34,351,o),
(50,324,c),
(210,379,l),
(203,391,o),
(199,405,o),
(199,417,cs),
(199,437,o),
(212,451,o),
(238,451,cs),
(261,451,o),
(272,441,o),
(272,424,cs),
(272,403,o),
(262,388,o),
(207,357,cs),
(72,281,o),
(48,230,o),
(48,157,cs),
(48,59,o),
(112,-12,o),
(255,-12,cs),
(335,-12,o),
(418,-2,o),
(510,99,c),
(433,105,l),
(490,31,o),
(550,-12,o),
(661,-12,cs)
);
},
{
closed = 1;
nodes = (
(195,469,ls),
(254,469,o),
(314,470,o),
(353,498,cs),
(394,527,o),
(400,571,o),
(400,588,cs),
(400,625,o),
(373,670,o),
(336,695,c),
(196,668,l),
(219,645,o),
(231,628,o),
(231,611,cs),
(231,604,o),
(230,599,o),
(226,595,cs),
(220,589,o),
(211,586,o),
(181,586,cs),
(86,586,l),
(87,469,l)
);
},
{
closed = 1;
nodes = (
(784,305,o),
(881,383,o),
(881,532,cs),
(881,616,o),
(852,681,o),
(801,722,cs),
(741,771,o),
(668,792,o),
(533,792,cs),
(40,792,l),
(40,643,l),
(508,643,ls),
(602,643,o),
(642,634,o),
(674,612,cs),
(701,594,o),
(718,561,o),
(718,518,cs),
(718,457,o),
(689,431,o),
(649,431,cs),
(605,431,o),
(591,457,o),
(591,482,cs),
(591,492,o),
(592,505,o),
(594,516,c),
(562,490,l),
(575,470,o),
(602,458,o),
(623,458,cs),
(670,458,o),
(688,490,o),
(688,523,cs),
(688,569,o),
(657,601,o),
(596,601,cs),
(520,601,o),
(476,547,o),
(476,472,cs),
(476,367,o),
(543,305,o),
(660,305,cs)
);
}
);
width = 924;
}
);
unicode = 3220;
},
{
glyphname = kaknda;
layers = (
{
anchors = (
{
name = Anchor5;
position = "{341, -24}";
}
);
background = {
shapes = (
{
closed = 1;
nodes = (
(563,-12,o),
(625,63,o),
(625,144,cs),
(625,184,o),
(606,223,o),
(558,251,c),
(547,239,l),
(646,235,l),
(646,360,l),
(451,360,l),
(459,370,o),
(461,385,o),
(461,394,cs),
(461,418,o),
(452,431,o),
(437,449,c),
(362,459,l),
(251,449,l),
(273,436,o),
(287,417,o),
(287,398,cs),
(287,383,o),
(274,367,o),
(258,360,c),
(37,360,l),
(37,235,l),
(116,236,l),
(121,247,l),
(75,222,o),
(59,183,o),
(59,144,cs),
(59,62,o),
(123,-12,o),
(337,-12,cs)
);
},
{
closed = 1;
nodes = (
(274,146,o),
(247,169,o),
(247,202,cs),
(247,231,o),
(272,253,o),
(341,253,cs),
(408,253,o),
(437,233,o),
(437,201,cs),
(437,171,o),
(414,146,o),
(341,146,cs)
);
},
{
closed = 1;
nodes = (
(400,418,ls),
(502,418,o),
(566,435,o),
(608,480,cs),
(634,508,o),
(650,546,o),
(650,597,cs),
(650,654,o),
(634,713,o),
(565,798,c),
(425,715,l),
(457,678,o),
(469,652,o),
(469,623,cs),
(469,606,o),
(464,594,o),
(453,587,cs),
(438,577,o),
(415,574,o),
(357,574,cs),
(35,574,l),
(35,418,l)
);
}
);
};
layerId = "D8BA631F-EBB2-4072-BC3E-5C4A99E1B6C7";
shapes = (
{
closed = 1;
nodes = (
(563,-12,o),
(625,63,o),
(625,144,cs),
(625,184,o),
(606,223,o),
(558,251,c),
(547,239,l),
(646,235,l),
(646,360,l),
(451,360,l),
(459,370,o),
(461,385,o),
(461,394,cs),
(461,418,o),
(452,431,o),
(437,449,c),
(362,459,l),
(251,449,l),
(273,436,o),
(287,417,o),
(287,398,cs),
(287,383,o),
(274,367,o),
(258,360,c),
(37,360,l),
(37,235,l),
(116,236,l),
(121,247,l),
(75,222,o),
(59,183,o),
(59,144,cs),
(59,62,o),
(123,-12,o),
(337,-12,cs)
);
},
{
closed = 1;
nodes = (
(274,146,o),
(247,169,o),
(247,202,cs),
(247,231,o),
(272,253,o),
(341,253,cs),
(408,253,o),
(437,233,o),
(437,201,cs),
(437,171,o),
(414,146,o),
(341,146,cs)
);
},
{
closed = 1;
nodes = (
(400,418,ls),
(502,418,o),
(566,435,o),
(608,480,cs),
(634,508,o),
(650,546,o),
(650,597,cs),
(650,654,o),
(634,713,o),
(565,798,c),
(425,715,l),
(457,678,o),
(469,652,o),
(469,623,cs),
(469,606,o),
(464,594,o),
(453,587,cs),
(438,577,o),
(415,574,o),
(357,574,cs),
(35,574,l),
(35,418,l)
);
}
);
width = 683;
}
);
unicode = 3221;
},
{
glyphname = khaknda;
layers = (
{
anchors = (
{
name = Anchor5;
position = "{490, -24}";
}
);
background = {
shapes = (
{
closed = 1;
nodes = (
(847,-12,o),
(947,94,o),
(947,259,cs),
(947,425,o),
(838,559,o),
(684,652,c),
(573,494,l),
(676,433,o),
(756,363,o),
(756,261,cs),
(756,192,o),
(722,150,o),
(650,150,cs),
(581,150,o),
(533,188,o),
(480,218,c),
(432,222,l),
(373,255,o),
(302,286,o),
(211,286,cs),
(73,286,o),
(20,219,o),
(20,145,cs),
(20,40,o),
(97,-12,o),
(239,-12,cs),
(356,-12,o),
(438,21,o),
(507,100,cs),
(554,154,o),
(585,221,o),
(585,309,cs),
(585,467,o),
(490,586,o),
(303,586,cs),
(167,586,o),
(85,522,o),
(85,425,cs),
(85,338,o),
(148,290,o),
(242,290,cs),
(315,290,o),
(348,325,o),
(348,368,cs),
(348,399,o),
(332,427,o),
(292,427,cs),
(261,427,o),
(241,407,o),
(237,383,c),
(258,380,l),
(246,391,o),
(242,405,o),
(242,416,cs),
(242,439,o),
(263,454,o),
(299,454,cs),
(376,454,o),
(397,381,o),
(397,311,cs),
(397,203,o),
(356,121,o),
(243,121,cs),
(207,121,o),
(193,131,o),
(193,143,cs),
(193,153,o),
(200,162,o),
(231,162,cs),
(275,162,o),
(312,137,o),
(355,108,cs),
(369,98,o),
(390,83,o),
(406,73,cs),
(476,28,o),
(544,-12,o),
(675,-12,cs)
);
}
);
};
layerId = "D8BA631F-EBB2-4072-BC3E-5C4A99E1B6C7";
shapes = (
{
closed = 1;
nodes = (
(847,-12,o),
(947,94,o),
(947,259,cs),
(947,425,o),
(838,559,o),
(684,652,c),
(573,494,l),
(676,433,o),
(756,363,o),
(756,261,cs),
(756,192,o),
(722,150,o),
(650,150,cs),
(581,150,o),
(533,188,o),
(480,218,c),
(432,222,l),
(373,255,o),
(302,286,o),
(211,286,cs),
(73,286,o),
(20,219,o),
(20,145,cs),
(20,40,o),
(97,-12,o),
(239,-12,cs),
(356,-12,o),
(438,21,o),
(507,100,c),
(554,154,o),
(585,221,o),
(585,309,cs),
(585,467,o),
(490,586,o),
(303,586,cs),
(167,586,o),
(85,522,o),
(85,425,cs),
(85,338,o),
(148,290,o),
(242,290,cs),
(315,290,o),
(348,325,o),
(348,368,cs),
(348,399,o),
(332,427,o),
(292,427,cs),
(261,427,o),
(241,407,o),
(237,383,c),
(258,380,l),
(246,391,o),
(242,405,o),
(242,416,cs),
(242,439,o),
(263,454,o),
(299,454,cs),
(376,454,o),
(397,381,o),
(397,311,cs),
(397,203,o),
(356,121,o),
(243,121,cs),
(207,121,o),
(193,131,o),
(193,143,cs),
(193,153,o),
(200,162,o),
(231,162,cs),
(275,162,o),
(312,137,o),
(355,108,cs),
(369,98,o),
(390,83,o),
(406,73,cs),
(476,28,o),
(544,-12,o),
(675,-12,cs)
);
}
);
width = 979;
}
);
unicode = 3222;
},
{
glyphname = gaknda;
layers = (
{
anchors = (
{
name = Anchor5;
position = "{371, -24}";
}
);
background = {
shapes = (
{
closed = 1;
nodes = (
(434,418,o),
(462,366,o),
(481,297,cs),
(492,256,o),
(498,174,o),
(498,74,cs),
(498,0,l),
(697,0,l),
(697,126,ls),
(697,255,o),
(674,364,o),
(571,440,c),
(551,427,l),
(660,448,o),
(697,524,o),
(697,597,cs),
(697,654,o),
(681,713,o),
(612,798,c),
(472,715,l),
(504,678,o),
(516,652,o),
(516,623,cs),
(516,606,o),
(511,594,o),
(500,587,cs),
(485,577,o),
(462,574,o),
(404,574,cs),
(40,574,l),
(40,418,l),
(236,418,l),
(205,447,l),
(80,396,o),
(45,275,o),
(45,125,cs),
(45,0,l),
(244,0,l),
(244,74,ls),
(244,173,o),
(248,248,o),
(261,297,cs),
(279,366,o),
(308,418,o),
(372,418,cs)
);
}
);
};
layerId = "D8BA631F-EBB2-4072-BC3E-5C4A99E1B6C7";
shapes = (
{
closed = 1;
nodes = (
(434,418,o),
(462,366,o),
(481,297,cs),
(492,256,o),
(498,174,o),
(498,74,cs),
(498,0,l),
(697,0,l),
(697,126,ls),
(697,255,o),
(674,364,o),
(571,440,c),
(551,427,l),
(660,448,o),
(697,524,o),
(697,597,cs),
(697,654,o),
(681,713,o),
(612,798,c),
(472,715,l),
(504,678,o),
(516,652,o),
(516,623,cs),
(516,606,o),
(511,594,o),
(500,587,cs),
(485,577,o),
(462,574,o),
(404,574,cs),
(40,574,l),
(40,418,l),
(236,418,l),
(205,447,l),
(80,396,o),
(45,275,o),
(45,125,cs),
(45,0,l),
(244,0,l),
(244,74,ls),
(244,173,o),
(248,248,o),
(261,297,cs),
(279,366,o),
(308,418,o),
(372,418,cs)
);
}
);
width = 742;
}
);
unicode = 3223;
},
{
glyphname = ghaknda;
layers = (
{
anchors = (
{
name = Anchor5;
position = "{498, -24}";
}
);
background = {
shapes = (
{
closed = 1;
nodes = (
(400,-12,o),
(465,27,o),
(541,98,c),
(461,105,l),
(518,31,o),
(573,-12,o),
(690,-12,cs),
(809,-12,o),
(899,55,o),
(899,173,cs),
(899,254,o),
(854,318,o),
(798,380,c),
(795,399,l),
(651,309,l),
(686,272,o),
(708,238,o),
(708,196,cs),
(708,169,o),
(695,150,o),
(658,150,cs),
(617,150,o),
(590,171,o),
(585,233,c),
(419,233,l),
(402,176,o),
(370,145,o),
(294,145,cs),
(220,145,o),
(190,160,o),
(190,196,cs),
(190,210,o),
(200,225,o),
(219,225,cs),
(236,225,o),
(245,214,o),
(245,197,cs),
(245,193,o),
(245,186,o),
(244,182,c),
(367,176,l),
(375,191,o),
(380,217,o),
(380,239,cs),
(380,308,o),
(335,357,o),
(223,357,cs),
(109,357,o),
(31,293,o),
(31,183,cs),
(31,65,o),
(110,-12,o),
(268,-12,cs)
);
},
{
closed = 1;
nodes = (
(593,-149,l),
(580,3,l),
(416,3,l),
(403,-149,l)
);
},
{
closed = 1;
nodes = (
(548,251,o),
(581,281,o),
(581,329,cs),
(581,380,o),
(548,409,o),
(491,409,cs),
(436,409,o),
(401,381,o),
(401,329,cs),
(401,281,o),
(433,251,o),
(491,251,cs)
);
},
{
closed = 1;
nodes = (
(649,418,ls),
(751,418,o),
(815,435,o),
(857,480,cs),
(883,508,o),
(899,546,o),
(899,597,cs),
(899,654,o),
(883,713,o),
(814,798,c),
(674,715,l),
(706,678,o),
(718,652,o),
(718,623,cs),
(718,606,o),
(713,594,o),
(702,587,cs),
(687,577,o),
(664,574,o),
(606,574,cs),
(33,574,l),
(33,418,l)
);
},
{
closed = 1;
nodes = (
(1043,188,o),
(1137,239,o),
(1137,361,cs),
(1137,436,o),
(1096,521,o),
(1007,588,c),
(889,472,l),
(919,442,o),
(947,410,o),
(947,371,cs),
(947,341,o),
(932,324,o),
(903,324,cs),
(868,324,o),
(836,337,o),
(795,399,c),
(743,312,l),
(806,223,o),
(856,188,o),
(947,188,cs)
);
}
);
};
layerId = "D8BA631F-EBB2-4072-BC3E-5C4A99E1B6C7";
shapes = (
{
closed = 1;
nodes = (
(400,-12,o),
(465,27,o),
(541,98,c),
(461,105,l),
(518,31,o),
(573,-12,o),
(690,-12,cs),
(809,-12,o),
(899,55,o),
(899,173,cs),
(899,254,o),
(854,318,o),
(798,380,c),
(795,399,l),
(651,309,l),
(686,272,o),
(708,238,o),
(708,196,cs),
(708,169,o),
(695,150,o),
(658,150,cs),
(617,150,o),
(590,171,o),
(585,233,c),
(419,233,l),
(402,176,o),
(370,145,o),
(294,145,cs),
(220,145,o),
(190,160,o),
(190,196,cs),
(190,210,o),
(200,225,o),
(219,225,cs),
(236,225,o),
(245,214,o),
(245,197,cs),
(245,193,o),
(245,186,o),
(244,182,c),
(367,176,l),
(375,191,o),
(380,217,o),
(380,239,cs),
(380,308,o),
(335,357,o),
(223,357,cs),
(109,357,o),
(31,293,o),
(31,183,cs),
(31,65,o),
(110,-12,o),
(268,-12,cs)
);
},
{
closed = 1;
nodes = (
(593,-149,l),
(580,3,l),
(416,3,l),
(403,-149,l)
);
},
{
closed = 1;
nodes = (
(548,251,o),
(581,281,o),
(581,329,cs),
(581,380,o),
(548,409,o),
(491,409,cs),
(436,409,o),
(401,381,o),
(401,329,cs),
(401,281,o),
(433,251,o),
(491,251,cs)
);
},
{
closed = 1;
nodes = (
(649,418,ls),
(751,418,o),
(815,435,o),
(857,480,cs),
(883,508,o),
(899,546,o),
(899,597,cs),
(899,654,o),
(883,713,o),
(814,798,c),
(674,715,l),
(706,678,o),
(718,652,o),
(718,623,cs),
(718,606,o),
(713,594,o),
(702,587,cs),
(687,577,o),
(664,574,o),
(606,574,cs),
(33,574,l),
(33,418,l)
);
},
{
closed = 1;
nodes = (
(1043,188,o),
(1137,239,o),
(1137,361,cs),
(1137,436,o),
(1096,521,o),
(1007,588,c),
(889,472,l),
(919,442,o),
(947,410,o),
(947,371,cs),
(947,341,o),
(932,324,o),
(903,324,cs),
(868,324,o),
(836,337,o),
(795,399,c),
(743,312,l),
(806,223,o),
(856,188,o),
(947,188,cs)
);
}
);
width = 1159;
}
);
unicode = 3224;
},
{
glyphname = ngaknda;
layers = (
{
anchors = (
{
name = Anchor5;
position = "{474, -24}";
}
);
background = {
shapes = (
{
closed = 1;
nodes = (
(817,-12,o),
(900,56,o),
(900,192,cs),
(900,237,o),
(887,280,o),
(872,308,c),
(699,253,l),
(705,242,o),
(710,225,o),
(710,206,cs),
(710,174,o),
(687,150,o),
(644,150,cs),
(589,150,o),
(563,176,o),
(557,238,c),
(391,238,l),
(382,182,o),
(350,145,o),
(286,145,cs),
(251,145,o),
(237,156,o),
(237,176,cs),
(237,192,o),
(244,204,o),
(300,238,cs),
(421,310,o),
(458,353,o),
(458,434,cs),
(458,505,o),
(409,586,o),
(243,586,cs),
(91,586,o),
(21,527,o),
(21,433,cs),
(21,394,o),
(34,351,o),
(50,324,c),
(210,379,l),
(203,391,o),
(199,405,o),
(199,417,cs),
(199,437,o),
(212,451,o),
(238,451,cs),
(261,451,o),
(272,441,o),
(272,424,cs),
(272,403,o),
(262,388,o),
(207,357,cs),
(72,281,o),
(48,230,o),
(48,157,cs),
(48,59,o),
(112,-12,o),
(255,-12,cs),
(335,-12,o),
(418,-2,o),
(510,99,c),
(433,105,l),
(490,31,o),
(550,-12,o),
(661,-12,cs)
);
},
{
closed = 1;
nodes = (
(607,256,o),
(640,286,o),
(640,334,cs),
(640,385,o),
(607,414,o),
(550,414,cs),
(495,414,o),
(460,386,o),
(460,334,cs),
(460,286,o),
(492,256,o),
(550,256,cs)
);
},
{
closed = 1;
nodes = (
(517,586,o),
(438,547,o),
(351,476,c),
(358,404,l),
(421,369,l),
(474,425,o),
(535,454,o),
(595,454,cs),
(644,454,o),
(674,433,o),
(674,391,cs),
(674,381,o),
(672,362,o),
(669,352,c),
(844,334,l),
(851,356,o),
(855,380,o),
(855,406,cs),
(855,507,o),
(784,586,o),
(627,586,cs)
);
}
);
};
layerId = "D8BA631F-EBB2-4072-BC3E-5C4A99E1B6C7";
shapes = (
{
closed = 1;
nodes = (
(817,-12,o),
(900,56,o),
(900,192,cs),
(900,237,o),
(887,280,o),
(872,308,c),
(699,253,l),
(705,242,o),
(710,225,o),
(710,206,cs),
(710,174,o),
(687,150,o),
(644,150,cs),
(589,150,o),
(563,176,o),
(557,238,c),
(391,238,l),
(382,182,o),
(350,145,o),
(286,145,cs),
(251,145,o),
(237,156,o),
(237,176,cs),
(237,192,o),
(244,204,o),
(300,238,cs),
(421,310,o),
(458,353,o),
(458,434,cs),
(458,505,o),
(409,586,o),
(243,586,cs),
(91,586,o),
(21,527,o),
(21,433,cs),
(21,394,o),
(34,351,o),
(50,324,c),
(210,379,l),
(203,391,o),
(199,405,o),
(199,417,cs),
(199,437,o),
(212,451,o),
(238,451,cs),
(261,451,o),
(272,441,o),
(272,424,cs),
(272,403,o),
(262,388,o),
(207,357,cs),
(72,281,o),
(48,230,o),
(48,157,cs),
(48,59,o),
(112,-12,o),
(255,-12,cs),
(335,-12,o),
(418,-2,o),
(510,99,c),
(433,105,l),
(490,31,o),
(550,-12,o),
(661,-12,cs)
);
},
{
closed = 1;
nodes = (
(607,256,o),
(640,286,o),
(640,334,cs),
(640,385,o),
(607,414,o),
(550,414,cs),
(495,414,o),
(460,386,o),
(460,334,cs),
(460,286,o),
(492,256,o),
(550,256,cs)
);
},
{
closed = 1;
nodes = (
(517,586,o),
(438,547,o),
(351,476,c),
(358,404,l),
(421,369,l),
(474,425,o),
(535,454,o),
(595,454,cs),
(644,454,o),
(674,433,o),
(674,391,cs),
(674,381,o),
(672,362,o),
(669,352,c),
(844,334,l),
(851,356,o),
(855,380,o),
(855,406,cs),
(855,507,o),
(784,586,o),
(627,586,cs)
);
}
);
width = 923;
}
);
unicode = 3225;
},
{
glyphname = caknda;
layers = (
{
anchors = (
{
name = Anchor5;
position = "{471, -24}";
}
);
background = {
shapes = (
{
closed = 1;
nodes = (
(817,-12,o),
(900,56,o),
(900,162,cs),
(900,245,o),
(840,288,o),
(790,316,c),
(656,246,l),
(682,238,o),
(710,224,o),
(710,194,cs),
(710,168,o),
(691,150,o),
(648,150,cs),
(585,150,o),
(564,183,o),
(553,230,c),
(390,230,l),
(380,184,o),
(350,145,o),
(286,145,cs),
(251,145,o),
(237,156,o),
(237,176,cs),
(237,192,o),
(244,204,o),
(300,238,cs),
(421,310,o),
(458,353,o),
(458,434,cs),
(458,505,o),
(409,586,o),
(243,586,cs),
(91,586,o),
(21,527,o),
(21,433,cs),
(21,394,o),
(34,351,o),
(50,324,c),
(210,379,l),
(203,391,o),
(199,405,o),
(199,417,cs),
(199,437,o),
(212,451,o),
(238,451,cs),
(261,451,o),
(272,441,o),
(272,424,cs),
(272,403,o),
(262,388,o),
(207,357,cs),
(72,281,o),
(48,230,o),
(48,157,cs),
(48,59,o),
(112,-12,o),
(255,-12,cs),
(335,-12,o),
(418,-2,o),
(510,99,c),
(429,105,l),
(486,31,o),
(550,-12,o),
(670,-12,cs)
);
},
{
closed = 1;
nodes = (
(766,240,l),
(825,246,l),
(855,242,o),
(905,240,o),
(922,240,cs),
(931,240,l),
(931,365,l),
(835,365,l),
(843,375,o),
(845,390,o),
(845,399,cs),
(845,425,o),
(837,443,o),
(824,460,c),
(746,464,l),
(635,454,l),
(657,441,o),
(671,422,o),
(671,403,cs),
(671,388,o),
(658,372,o),
(642,365,c),
(545,365,l),
(545,240,l)
);
},
{
closed = 1;
nodes = (
(685,418,ls),
(787,418,o),
(851,435,o),
(893,480,cs),
(919,508,o),
(935,546,o),
(935,597,cs),
(935,654,o),
(919,713,o),
(850,798,c),
(710,715,l),
(742,678,o),
(754,652,o),
(754,623,cs),
(754,606,o),
(749,594,o),
(738,587,cs),
(723,577,o),
(700,574,o),
(642,574,cs),
(545,574,l),
(545,418,l)
);
}
);
};
layerId = "D8BA631F-EBB2-4072-BC3E-5C4A99E1B6C7";
shapes = (
{
closed = 1;
nodes = (
(817,-12,o),
(900,56,o),
(900,162,cs),
(900,245,o),
(840,288,o),
(790,316,c),
(656,246,l),
(682,238,o),
(710,224,o),
(710,194,cs),
(710,168,o),
(691,150,o),
(648,150,cs),
(585,150,o),
(564,183,o),
(553,230,c),
(390,230,l),
(380,184,o),
(350,145,o),
(286,145,cs),
(251,145,o),
(237,156,o),
(237,176,cs),
(237,192,o),
(244,204,o),
(300,238,cs),
(421,310,o),
(458,353,o),
(458,434,cs),
(458,505,o),
(409,586,o),
(243,586,cs),
(91,586,o),
(21,527,o),
(21,433,cs),
(21,394,o),
(34,351,o),
(50,324,c),
(210,379,l),
(203,391,o),
(199,405,o),
(199,417,cs),
(199,437,o),
(212,451,o),
(238,451,cs),
(261,451,o),
(272,441,o),
(272,424,cs),
(272,403,o),
(262,388,o),
(207,357,cs),
(72,281,o),
(48,230,o),
(48,157,cs),
(48,59,o),
(112,-12,o),
(255,-12,cs),
(335,-12,o),
(418,-2,o),
(510,99,c),
(429,105,l),
(486,31,o),
(550,-12,o),
(670,-12,cs)
);
},
{
closed = 1;
nodes = (
(766,240,l),
(825,246,l),
(855,242,o),
(905,240,o),
(922,240,cs),
(931,240,l),
(931,365,l),
(835,365,l),
(843,375,o),
(845,390,o),
(845,399,cs),
(845,425,o),
(837,443,o),
(824,460,c),
(746,464,l),
(635,454,l),
(657,441,o),
(671,422,o),
(671,403,cs),
(671,388,o),
(658,372,o),
(642,365,c),
(545,365,l),
(545,240,l)
);
},
{
closed = 1;
nodes = (
(685,418,ls),
(787,418,o),
(851,435,o),
(893,480,cs),
(919,508,o),
(935,546,o),
(935,597,cs),
(935,654,o),
(919,713,o),
(850,798,c),
(710,715,l),
(742,678,o),
(754,652,o),
(754,623,cs),
(754,606,o),
(749,594,o),
(738,587,cs),
(723,577,o),
(700,574,o),
(642,574,cs),
(545,574,l),
(545,418,l)
);
}
);
width = 966;
}
);
unicode = 3226;
},
{
glyphname = chaknda;
layers = (
{
anchors = (
{
name = Anchor5;
position = "{512, -24}";
}
);
background = {
shapes = (
{
closed = 1;
nodes = (
(412,-12,o),
(478,16,o),
(557,118,c),
(474,105,l),
(537,23,o),
(608,-12,o),
(708,-12,cs),
(896,-12,o),
(967,86,o),
(967,218,cs),
(967,374,o),
(857,479,o),
(695,542,c),
(627,427,l),
(721,393,o),
(777,322,o),
(777,241,cs),
(777,179,o),
(741,150,o),
(688,150,cs),
(638,150,o),
(605,175,o),
(598,238,c),
(430,238,l),
(419,180,o),
(381,150,o),
(321,150,cs),
(245,150,o),
(214,206,o),
(214,290,cs),
(214,411,o),
(257,456,o),
(301,456,cs),
(325,456,o),
(339,442,o),
(339,418,cs),
(339,385,o),
(313,368,o),
(270,368,cs),
(217,368,o),
(175,413,o),
(160,440,c),
(121,313,l),
(161,273,o),
(230,245,o),
(301,245,cs),
(455,245,o),
(508,314,o),
(508,410,cs),
(508,515,o),
(439,586,o),
(308,586,cs),
(147,586,o),
(32,479,o),
(32,277,cs),
(32,121,o),
(117,-12,o),
(294,-12,cs)
);
},
{
closed = 1;
nodes = (
(607,-149,l),
(594,3,l),
(430,3,l),
(417,-149,l)
);
},
{
closed = 1;
nodes = (
(717,418,ls),
(819,418,o),
(883,435,o),
(925,480,cs),
(951,508,o),
(967,546,o),
(967,597,cs),
(967,654,o),
(951,713,o),
(882,798,c),
(742,715,l),
(774,678,o),
(786,652,o),
(786,623,cs),
(786,606,o),
(781,594,o),
(770,587,cs),
(755,577,o),
(732,574,o),
(674,574,cs),
(574,574,l),
(574,418,l)
);
}
);
};
layerId = "D8BA631F-EBB2-4072-BC3E-5C4A99E1B6C7";
shapes = (
{
closed = 1;
nodes = (
(412,-12,o),
(478,16,o),
(557,118,c),
(474,105,l),
(537,23,o),
(608,-12,o),
(708,-12,cs),
(896,-12,o),
(967,86,o),
(967,218,cs),
(967,374,o),
(857,479,o),
(695,542,c),
(627,427,l),
(721,393,o),
(777,322,o),
(777,241,cs),
(777,179,o),
(741,150,o),
(688,150,cs),
(638,150,o),
(605,175,o),
(598,238,c),
(430,238,l),
(419,180,o),
(381,150,o),
(321,150,cs),
(245,150,o),
(214,206,o),
(214,290,cs),
(214,411,o),
(257,456,o),
(301,456,cs),
(325,456,o),
(339,442,o),
(339,418,cs),
(339,385,o),
(313,368,o),
(270,368,cs),
(217,368,o),
(175,413,o),
(160,440,c),
(121,313,l),
(161,273,o),
(230,245,o),
(301,245,cs),
(455,245,o),
(508,314,o),
(508,410,cs),
(508,515,o),
(439,586,o),
(308,586,cs),
(147,586,o),
(32,479,o),
(32,277,cs),
(32,121,o),
(117,-12,o),
(294,-12,cs)
);
},
{
closed = 1;
nodes = (
(607,-149,l),
(594,3,l),
(430,3,l),
(417,-149,l)
);
},
{
closed = 1;
nodes = (
(717,418,ls),
(819,418,o),
(883,435,o),
(925,480,cs),
(951,508,o),
(967,546,o),
(967,597,cs),
(967,654,o),
(951,713,o),
(882,798,c),
(742,715,l),
(774,678,o),
(786,652,o),
(786,623,cs),
(786,606,o),
(781,594,o),
(770,587,cs),
(755,577,o),
(732,574,o),
(674,574,cs),
(574,574,l),
(574,418,l)
);
}
);
width = 1001;
}
);
unicode = 3227;
},
{
glyphname = jaknda;
layers = (
{
anchors = (
{
name = Anchor5;
position = "{473, -24}";
}
);
background = {
shapes = (
{
closed = 1;
nodes = (
(817,-12,o),
(900,56,o),
(900,192,cs),
(900,245,o),
(886,292,o),
(853,339,c),
(693,266,l),
(703,250,o),
(710,230,o),
(710,208,cs),
(710,174,o),
(687,150,o),
(644,150,cs),
(589,150,o),
(563,176,o),
(557,238,c),
(389,238,l),
(380,182,o),
(350,145,o),
(286,145,cs),
(251,145,o),
(237,156,o),
(237,176,cs),
(237,192,o),
(244,204,o),
(300,238,cs),
(421,310,o),
(458,353,o),
(458,434,cs),
(458,505,o),
(409,586,o),
(243,586,cs),
(91,586,o),
(21,527,o),
(21,433,cs),
(21,394,o),
(34,351,o),
(50,324,c),
(210,379,l),
(203,391,o),
(199,405,o),
(199,417,cs),
(199,437,o),
(212,451,o),
(238,451,cs),
(261,451,o),
(272,441,o),
(272,424,cs),
(272,403,o),
(262,388,o),
(207,357,cs),
(72,281,o),
(48,230,o),
(48,157,cs),
(48,59,o),
(112,-12,o),
(255,-12,cs),
(335,-12,o),
(418,-2,o),
(510,99,c),
(433,105,l),
(490,31,o),
(550,-12,o),
(661,-12,cs)
);
},
{
closed = 1;
nodes = (
(760,300,o),
(836,379,o),
(836,480,cs),
(836,521,o),
(825,558,o),
(812,586,c),
(647,542,l),
(652,526,o),
(655,512,o),
(655,496,cs),
(655,453,o),
(628,432,o),
(585,432,cs),
(525,432,o),
(468,471,o),
(422,525,c),
(352,482,l),
(371,411,l),
(416,351,o),
(486,300,o),
(608,300,cs)
);
}
);
};
layerId = "D8BA631F-EBB2-4072-BC3E-5C4A99E1B6C7";
shapes = (
{
closed = 1;
nodes = (
(817,-12,o),
(900,56,o),
(900,192,cs),
(900,245,o),
(886,292,o),
(853,339,c),
(693,266,l),
(703,250,o),
(710,230,o),
(710,208,cs),
(710,174,o),
(687,150,o),
(644,150,cs),
(589,150,o),
(563,176,o),
(557,238,c),
(389,238,l),
(380,182,o),
(350,145,o),
(286,145,cs),
(251,145,o),
(237,156,o),
(237,176,cs),
(237,192,o),
(244,204,o),
(300,238,cs),
(421,310,o),
(458,353,o),
(458,434,cs),
(458,505,o),
(409,586,o),
(243,586,cs),
(91,586,o),
(21,527,o),
(21,433,cs),
(21,394,o),
(34,351,o),
(50,324,c),
(210,379,l),
(203,391,o),
(199,405,o),
(199,417,cs),
(199,437,o),
(212,451,o),
(238,451,cs),
(261,451,o),
(272,441,o),
(272,424,cs),
(272,403,o),
(262,388,o),
(207,357,cs),
(72,281,o),
(48,230,o),
(48,157,cs),
(48,59,o),
(112,-12,o),
(255,-12,cs),
(335,-12,o),
(418,-2,o),
(510,99,c),
(433,105,l),
(490,31,o),
(550,-12,o),
(661,-12,cs)
);
},
{
closed = 1;
nodes = (
(760,300,o),
(836,379,o),
(836,480,cs),
(836,521,o),
(825,558,o),
(812,586,c),
(647,542,l),
(652,526,o),
(655,512,o),
(655,496,cs),
(655,453,o),
(628,432,o),
(585,432,cs),
(525,432,o),
(468,471,o),
(422,525,c),
(352,482,l),
(371,411,l),
(416,351,o),
(486,300,o),
(608,300,cs)
);
}
);
width = 923;
}
);
unicode = 3228;
},
{
glyphname = jhaknda;
layers = (
{
anchors = (
{
name = Anchor5;
position = "{629, -24}";
}
);
background = {
shapes = (
{
closed = 1;
nodes = (
(578,-12,o),
(690,81,o),
(690,246,cs),
(690,329,o),
(654,406,o),
(575,451,c),
(546,427,l),
(594,437,o),
(627,457,o),
(648,480,cs),
(674,508,o),
(690,546,o),
(690,597,cs),
(690,654,o),
(674,713,o),
(605,798,c),
(465,715,l),
(497,678,o),
(509,652,o),
(509,623,cs),
(509,606,o),
(504,594,o),
(493,587,cs),
(478,577,o),
(455,574,o),
(397,574,cs),
(34,574,l),
(34,418,l),
(205,418,l),
(183,443,l),
(81,412,o),
(34,339,o),
(34,243,cs),
(34,84,o),
(148,-12,o),
(362,-12,cs)
);
},
{
closed = 1;
nodes = (
(277,152,o),
(225,194,o),
(225,281,cs),
(225,357,o),
(270,418,o),
(363,418,cs),
(449,418,o),
(499,362,o),
(499,281,cs),
(499,203,o),
(455,152,o),
(363,152,cs)
);
},
{
closed = 1;
nodes = (
(1102,-149,l),
(1089,3,l),
(925,3,l),
(912,-149,l)
);
},
{
closed = 1;
nodes = (
(989,-12,o),
(1074,86,o),
(1074,245,cs),
(1074,416,o),
(959,524,o),
(825,588,c),
(726,429,l),
(809,383,o),
(883,336,o),
(883,246,cs),
(883,183,o),
(846,151,o),
(788,151,cs),
(718,151,o),
(675,187,o),
(623,246,c),
(531,133,l),
(618,33,o),
(700,-12,o),
(815,-12,cs)
);
},
{
closed = 1;
nodes = (
(1372,-12,o),
(1457,86,o),
(1457,245,cs),
(1457,416,o),
(1342,524,o),
(1208,588,c),
(1109,429,l),
(1192,383,o),
(1266,336,o),
(1266,246,cs),
(1266,183,o),
(1229,151,o),
(1171,151,cs),
(1101,151,o),
(1058,187,o),
(1006,246,c),
(914,133,l),
(1001,33,o),
(1083,-12,o),
(1198,-12,cs)
);
}
);
};
layerId = "D8BA631F-EBB2-4072-BC3E-5C4A99E1B6C7";
shapes = (
{
closed = 1;
nodes = (
(578,-12,o),
(690,81,o),
(690,246,cs),
(690,329,o),
(654,406,o),
(575,451,c),
(546,427,l),
(594,437,o),
(627,457,o),
(648,480,cs),
(674,508,o),
(690,546,o),
(690,597,cs),
(690,654,o),
(674,713,o),
(605,798,c),
(465,715,l),
(497,678,o),
(509,652,o),
(509,623,cs),
(509,606,o),
(504,594,o),
(493,587,cs),
(478,577,o),
(455,574,o),
(397,574,cs),
(34,574,l),
(34,418,l),
(205,418,l),
(183,443,l),
(81,412,o),
(34,339,o),
(34,243,cs),
(34,84,o),
(148,-12,o),
(362,-12,cs)
);
},
{
closed = 1;
nodes = (
(277,152,o),
(225,194,o),
(225,281,cs),
(225,357,o),
(270,418,o),
(363,418,cs),
(449,418,o),
(499,362,o),
(499,281,cs),
(499,203,o),
(455,152,o),
(363,152,cs)
);
},
{
closed = 1;
nodes = (
(1102,-149,l),
(1089,3,l),
(925,3,l),
(912,-149,l)
);
},
{
closed = 1;
nodes = (
(989,-12,o),
(1074,86,o),
(1074,245,cs),
(1074,416,o),
(959,524,o),
(825,588,c),
(726,429,l),
(809,383,o),
(883,336,o),
(883,246,cs),
(883,183,o),
(846,151,o),
(788,151,cs),
(718,151,o),
(675,187,o),
(623,246,c),
(531,133,l),
(618,33,o),
(700,-12,o),
(815,-12,cs)
);
},
{
closed = 1;
nodes = (
(1372,-12,o),
(1457,86,o),
(1457,245,cs),
(1457,416,o),
(1342,524,o),
(1208,588,c),
(1109,429,l),
(1192,383,o),
(1266,336,o),
(1266,246,cs),
(1266,183,o),
(1229,151,o),
(1171,151,cs),
(1101,151,o),
(1058,187,o),
(1006,246,c),
(914,133,l),
(1001,33,o),
(1083,-12,o),
(1198,-12,cs)
);
}
);
width = 1490;
}
);
unicode = 3229;
},
{
glyphname = nyaknda;
layers = (
{
anchors = (
{
name = Anchor5;
position = "{513, -24}";
}
);
background = {
shapes = (
{
closed = 1;
nodes = (
(521,-12,o),
(605,10,o),
(687,66,c),
(724,80,l),
(799,133,o),
(841,218,o),
(841,324,cs),
(841,368,o),
(834,407,o),
(822,441,cs),
(816,456,o),
(798,465,o),
(790,478,cs),
(745,552,o),
(687,586,o),
(592,586,cs),
(513,586,o),
(457,556,o),
(404,505,c),
(423,504,l),
(367,560,o),
(317,586,o),
(232,586,cs),
(104,586,o),
(21,521,o),
(21,413,cs),
(21,370,o),
(33,328,o),
(45,299,c),
(223,348,l),
(217,361,o),
(212,376,o),
(212,394,cs),
(212,420,o),
(230,436,o),
(255,436,cs),
(292,436,o),
(323,412,o),
(328,343,c),
(494,343,l),
(501,401,o),
(532,426,o),
(572,426,cs),
(621,426,o),
(651,392,o),
(651,325,cs),
(651,225,o),
(577,129,o),
(425,129,cs),
(355,129,o),
(342,142,o),
(342,160,cs),
(342,175,o),
(356,187,o),
(397,187,cs),
(527,187,o),
(606,81,o),
(623,-55,c),
(814,-24,l),
(796,61,o),
(759,129,o),
(699,186,c),
(612,276,o),
(525,319,o),
(394,319,cs),
(236,319,o),
(165,252,o),
(165,157,cs),
(165,58,o),
(232,-12,o),
(410,-12,cs)
);
},
{
closed = 1;
nodes = (
(849,586,o),
(799,560,o),
(743,504,c),
(838,343,l),
(843,412,o),
(874,436,o),
(911,436,cs),
(936,436,o),
(954,420,o),
(954,394,cs),
(954,376,o),
(949,361,o),
(943,348,c),
(1121,299,l),
(1133,328,o),
(1145,370,o),
(1145,413,cs),
(1145,521,o),
(1062,586,o),
(934,586,cs)
);
}
);
};
layerId = "D8BA631F-EBB2-4072-BC3E-5C4A99E1B6C7";
shapes = (
{
closed = 1;
nodes = (
(521,-12,o),
(605,10,o),
(687,66,c),
(724,80,l),
(799,133,o),
(841,218,o),
(841,324,cs),
(841,368,o),
(834,407,o),
(822,441,c),
(816,456,o),
(798,465,o),
(790,478,c),
(745,552,o),
(687,586,o),
(592,586,cs),
(513,586,o),
(457,556,o),
(404,505,c),
(423,504,l),
(367,560,o),
(317,586,o),
(232,586,cs),
(104,586,o),
(21,521,o),
(21,413,cs),
(21,370,o),
(33,328,o),
(45,299,c),
(223,348,l),
(217,361,o),
(212,376,o),
(212,394,cs),
(212,420,o),
(230,436,o),
(255,436,cs),
(292,436,o),
(323,412,o),
(328,343,c),
(494,343,l),
(501,401,o),
(532,426,o),
(572,426,cs),
(621,426,o),
(651,392,o),
(651,325,cs),
(651,225,o),
(577,129,o),
(425,129,cs),
(355,129,o),
(342,142,o),
(342,160,cs),
(342,175,o),
(356,187,o),
(397,187,cs),
(527,187,o),
(606,81,o),
(623,-55,c),
(814,-24,l),
(796,61,o),
(759,129,o),
(699,186,c),
(612,276,o),
(525,319,o),
(394,319,cs),
(236,319,o),
(165,252,o),
(165,157,cs),
(165,58,o),
(232,-12,o),
(410,-12,cs)
);
},
{
closed = 1;
nodes = (
(849,586,o),
(799,560,o),
(743,504,c),
(838,343,l),
(843,412,o),
(874,436,o),
(911,436,cs),
(936,436,o),
(954,420,o),
(954,394,cs),
(954,376,o),
(949,361,o),
(943,348,c),
(1121,299,l),
(1133,328,o),
(1145,370,o),
(1145,413,cs),
(1145,521,o),
(1062,586,o),
(934,586,cs)
);
}
);
width = 1166;
}
);
unicode = 3230;
},
{
glyphname = ttaknda;
layers = (
{
anchors = (
{
name = Anchor5;
position = "{519, -24}";
}
);
background = {
shapes = (
{
closed = 1;
nodes = (
(424,-12,o),
(488,21,o),
(562,118,c),
(473,115,l),
(550,15,o),
(623,-12,o),
(722,-12,cs),
(875,-12,o),
(949,63,o),
(949,182,cs),
(949,270,o),
(898,345,o),
(790,373,c),
(668,281,l),
(722,274,o),
(759,246,o),
(759,206,cs),
(759,168,o),
(734,150,o),
(697,150,cs),
(632,150,o),
(613,188,o),
(603,238,c),
(435,238,l),
(424,184,o),
(395,147,o),
(321,147,cs),
(251,147,o),
(212,177,o),
(212,245,cs),
(212,262,ls),
(212,361,o),
(260,385,o),
(281,385,cs),
(301,385,o),
(313,376,o),
(313,355,cs),
(313,336,o),
(297,317,o),
(256,317,cs),
(216,317,o),
(189,329,o),
(163,345,c),
(153,235,l),
(182,213,o),
(231,196,o),
(278,196,cs),
(417,196,o),
(474,268,o),
(474,353,cs),
(474,458,o),
(395,511,o),
(293,511,cs),
(129,511,o),
(31,404,o),
(31,247,cs),
(31,81,o),
(140,-12,o),
(295,-12,cs)
);
},
{
closed = 1;
nodes = (
(339,490,l),
(310,499,o),
(292,509,o),
(292,526,cs),
(292,539,o),
(306,552,o),
(352,555,c),
(338,703,l),
(161,700,o),
(101,634,o),
(101,559,cs),
(101,512,o),
(129,459,o),
(209,427,c)
);
},
{
closed = 1;
nodes = (
(713,275,ls),
(735,275,o),
(773,282,o),
(797,291,cs),
(890,327,o),
(935,389,o),
(935,463,cs),
(935,563,o),
(872,643,o),
(720,681,c),
(666,525,l),
(729,507,o),
(743,487,o),
(743,461,cs),
(743,443,o),
(737,431,o),
(725,424,cs),
(712,416,o),
(693,414,o),
(660,414,cs),
(606,414,l),
(606,275,l)
);
}
);
};
layerId = "D8BA631F-EBB2-4072-BC3E-5C4A99E1B6C7";
shapes = (
{
closed = 1;
nodes = (
(424,-12,o),
(488,21,o),
(562,118,c),
(473,115,l),
(550,15,o),
(623,-12,o),
(722,-12,cs),
(875,-12,o),
(949,63,o),
(949,182,cs),
(949,270,o),
(898,345,o),
(790,373,c),
(668,281,l),
(722,274,o),
(759,246,o),
(759,206,cs),
(759,168,o),
(734,150,o),
(697,150,cs),
(632,150,o),
(613,188,o),
(603,238,c),
(435,238,l),
(424,184,o),
(395,147,o),
(321,147,cs),
(251,147,o),
(212,177,o),
(212,245,cs),
(212,262,ls),
(212,361,o),
(260,385,o),
(281,385,cs),
(301,385,o),
(313,376,o),
(313,355,cs),
(313,336,o),
(297,317,o),
(256,317,cs),
(216,317,o),
(189,329,o),
(163,345,c),
(153,235,l),
(182,213,o),
(231,196,o),
(278,196,cs),
(417,196,o),
(474,268,o),
(474,353,cs),
(474,458,o),
(395,511,o),
(293,511,cs),
(129,511,o),
(31,404,o),
(31,247,cs),
(31,81,o),
(140,-12,o),
(295,-12,cs)
);
},
{
closed = 1;
nodes = (
(339,490,l),
(310,499,o),
(292,509,o),
(292,526,cs),
(292,539,o),
(306,552,o),
(352,555,c),
(338,703,l),
(161,700,o),
(101,634,o),
(101,559,cs),
(101,512,o),
(129,459,o),
(209,427,c)
);
},
{
closed = 1;
nodes = (
(713,275,ls),
(735,275,o),
(773,282,o),
(797,291,cs),
(890,327,o),
(935,389,o),
(935,463,cs),
(935,563,o),
(872,643,o),
(720,681,c),
(666,525,l),
(729,507,o),
(743,487,o),
(743,461,cs),
(743,443,o),
(737,431,o),
(725,424,cs),
(712,416,o),
(693,414,o),
(660,414,cs),
(606,414,l),
(606,275,l)
);
}
);
width = 978;
}
);
unicode = 3231;
},
{
glyphname = tthaknda;
layers = (
{
anchors = (
{
name = Anchor5;
position = "{370, -24}";
}
);
background = {
shapes = (
{
closed = 1;
nodes = (
(586,-12,o),
(706,81,o),
(706,246,cs),
(706,329,o),
(670,406,o),
(591,451,c),
(562,427,l),
(610,437,o),
(643,457,o),
(664,480,cs),
(690,508,o),
(706,546,o),
(706,597,cs),
(706,654,o),
(690,713,o),
(621,798,c),
(481,715,l),
(513,678,o),
(525,652,o),
(525,623,cs),
(525,606,o),
(520,594,o),
(509,587,cs),
(494,577,o),
(471,574,o),
(413,574,cs),
(34,574,l),
(34,418,l),
(205,418,l),
(183,443,l),
(81,412,o),
(34,339,o),
(34,243,cs),
(34,84,o),
(156,-12,o),
(370,-12,cs)
);
},
{
closed = 1;
nodes = (
(283,152,o),
(225,194,o),
(225,281,cs),
(225,357,o),
(276,418,o),
(371,418,cs),
(458,418,o),
(515,362,o),
(515,281,cs),
(515,203,o),
(465,152,o),
(371,152,cs)
);
},
{
closed = 1;
nodes = (
(422,206,o),
(454,237,o),
(454,285,cs),
(454,336,o),
(422,366,o),
(370,366,cs),
(320,366,o),
(286,337,o),
(286,285,cs),
(286,237,o),
(317,206,o),
(370,206,cs)
);
}
);
};
layerId = "D8BA631F-EBB2-4072-BC3E-5C4A99E1B6C7";
shapes = (
{
closed = 1;
nodes = (
(586,-12,o),
(706,81,o),
(706,246,cs),
(706,329,o),
(670,406,o),
(591,451,c),
(562,427,l),
(610,437,o),
(643,457,o),
(664,480,cs),
(690,508,o),
(706,546,o),
(706,597,cs),
(706,654,o),
(690,713,o),
(621,798,c),
(481,715,l),
(513,678,o),
(525,652,o),
(525,623,cs),
(525,606,o),
(520,594,o),
(509,587,cs),
(494,577,o),
(471,574,o),
(413,574,cs),
(34,574,l),
(34,418,l),
(205,418,l),
(183,443,l),
(81,412,o),
(34,339,o),
(34,243,cs),
(34,84,o),
(156,-12,o),
(370,-12,cs)
);
},
{
closed = 1;
nodes = (
(283,152,o),
(225,194,o),
(225,281,cs),
(225,357,o),
(276,418,o),
(371,418,cs),
(458,418,o),
(515,362,o),
(515,281,cs),
(515,203,o),
(465,152,o),
(371,152,cs)
);
},
{
closed = 1;
nodes = (
(422,206,o),
(454,237,o),
(454,285,cs),
(454,336,o),
(422,366,o),
(370,366,cs),
(320,366,o),
(286,337,o),
(286,285,cs),
(286,237,o),
(317,206,o),
(370,206,cs)
);
}
);
width = 740;
}
);
unicode = 3232;
},
{
glyphname = ddaknda;
layers = (
{
anchors = (
{
name = Anchor5;
position = "{434, -24}";
}
);
background = {
shapes = (
{
closed = 1;
nodes = (
(351,-12,o),
(397,19,o),
(482,112,c),
(393,105,l),
(447,33,o),
(522,-12,o),
(623,-12,cs),
(756,-12,o),
(861,46,o),
(861,190,cs),
(861,265,o),
(820,337,o),
(742,372,c),
(720,389,o),
(675,401,o),
(630,401,cs),
(545,401,o),
(486,367,o),
(486,292,cs),
(486,215,o),
(558,181,o),
(639,181,cs),
(712,181,o),
(753,203,o),
(800,239,c),
(810,249,o),
(824,248,o),
(830,257,cs),
(839,273,o),
(844,295,o),
(844,325,cs),
(844,406,o),
(784,463,o),
(719,477,c),
(713,427,l),
(762,436,o),
(797,457,o),
(818,480,cs),
(844,508,o),
(860,546,o),
(860,597,cs),
(860,654,o),
(844,713,o),
(775,798,c),
(635,715,l),
(667,678,o),
(679,652,o),
(679,623,cs),
(679,606,o),
(674,594,o),
(663,587,cs),
(648,577,o),
(625,574,o),
(567,574,cs),
(34,574,l),
(34,418,l),
(202,418,l),
(188,454,l),
(87,402,o),
(34,321,o),
(34,208,cs),
(34,69,o),
(112,-12,o),
(237,-12,cs)
);
},
{
closed = 1;
nodes = (
(246,150,o),
(225,176,o),
(225,229,cs),
(225,327,o),
(296,418,o),
(422,418,cs),
(509,418,ls),
(684,418,o),
(687,353,o),
(687,330,cs),
(687,293,o),
(664,276,o),
(635,276,cs),
(618,276,o),
(605,282,o),
(605,296,cs),
(605,311,o),
(618,316,o),
(632,316,cs),
(674,316,o),
(696,280,o),
(696,229,cs),
(696,171,o),
(663,146,o),
(612,146,cs),
(551,146,o),
(528,173,o),
(517,219,c),
(348,219,l),
(338,177,o),
(321,150,o),
(282,150,cs)
);
}
);
};
layerId = "D8BA631F-EBB2-4072-BC3E-5C4A99E1B6C7";
shapes = (
{
closed = 1;
nodes = (
(351,-12,o),
(397,19,o),
(482,112,c),
(393,105,l),
(447,33,o),
(522,-12,o),
(623,-12,cs),
(756,-12,o),
(861,46,o),
(861,190,cs),
(861,265,o),
(820,337,o),
(742,372,c),
(720,389,o),
(675,401,o),
(630,401,cs),
(545,401,o),
(486,367,o),
(486,292,cs),
(486,215,o),
(558,181,o),
(639,181,cs),
(712,181,o),
(753,203,o),
(800,239,c),
(810,249,o),
(824,248,o),
(830,257,c),
(839,273,o),
(844,295,o),
(844,325,cs),
(844,406,o),
(784,463,o),
(719,477,c),
(713,427,l),
(762,436,o),
(797,457,o),
(818,480,cs),
(844,508,o),
(860,546,o),
(860,597,cs),
(860,654,o),
(844,713,o),
(775,798,c),
(635,715,l),
(667,678,o),
(679,652,o),
(679,623,cs),
(679,606,o),
(674,594,o),
(663,587,cs),
(648,577,o),
(625,574,o),
(567,574,cs),
(34,574,l),
(34,418,l),
(202,418,l),
(188,454,l),
(87,402,o),
(34,321,o),
(34,208,cs),
(34,69,o),
(112,-12,o),
(237,-12,cs)
);
},
{
closed = 1;
nodes = (
(246,150,o),
(225,176,o),
(225,229,cs),
(225,327,o),
(296,418,o),
(422,418,cs),
(509,418,ls),
(684,418,o),
(687,353,o),
(687,330,cs),
(687,293,o),
(664,276,o),
(635,276,cs),
(618,276,o),
(605,282,o),
(605,296,cs),
(605,311,o),
(618,316,o),
(632,316,cs),
(674,316,o),
(696,280,o),
(696,229,cs),
(696,171,o),
(663,146,o),
(612,146,cs),
(551,146,o),
(528,173,o),
(517,219,c),
(348,219,l),
(338,177,o),
(321,150,o),
(282,150,cs)
);
}
);
width = 892;
}
);
unicode = 3233;
},
{
glyphname = ddhaknda;
layers = (
{
anchors = (
{
name = Anchor5;
position = "{434, -24}";
}
);
background = {
shapes = (
{
closed = 1;
nodes = (
(351,-12,o),
(397,19,o),
(482,112,c),
(393,105,l),
(447,33,o),
(522,-12,o),
(623,-12,cs),
(756,-12,o),
(861,46,o),
(861,190,cs),
(861,265,o),
(820,337,o),
(742,372,c),
(720,389,o),
(675,401,o),
(630,401,cs),
(545,401,o),
(486,367,o),
(486,292,cs),
(486,215,o),
(558,181,o),
(639,181,cs),
(712,181,o),
(753,203,o),
(800,239,c),
(810,249,o),
(824,248,o),
(830,257,cs),
(839,273,o),
(844,295,o),
(844,325,cs),
(844,406,o),
(784,463,o),
(719,477,c),
(713,427,l),
(762,436,o),
(797,457,o),
(818,480,cs),
(844,508,o),
(860,546,o),
(860,597,cs),
(860,654,o),
(844,713,o),
(775,798,c),
(635,715,l),
(667,678,o),
(679,652,o),
(679,623,cs),
(679,606,o),
(674,594,o),
(663,587,cs),
(648,577,o),
(625,574,o),
(567,574,cs),
(34,574,l),
(34,418,l),
(202,418,l),
(188,454,l),
(87,402,o),
(34,321,o),
(34,208,cs),
(34,69,o),
(112,-12,o),
(237,-12,cs)
);
},
{
closed = 1;
nodes = (
(246,150,o),
(225,176,o),
(225,229,cs),
(225,327,o),
(296,418,o),
(422,418,cs),
(509,418,ls),
(684,418,o),
(687,353,o),
(687,330,cs),
(687,293,o),
(664,276,o),
(635,276,cs),
(618,276,o),
(605,282,o),
(605,296,cs),
(605,311,o),
(618,316,o),
(632,316,cs),
(674,316,o),
(696,280,o),
(696,229,cs),
(696,171,o),
(663,146,o),
(612,146,cs),
(551,146,o),
(528,173,o),
(517,219,c),
(348,219,l),
(338,177,o),
(321,150,o),
(282,150,cs)
);
},
{
closed = 1;
nodes = (
(529,-149,l),
(516,3,l),
(352,3,l),
(339,-149,l)
);
}
);
};
layerId = "D8BA631F-EBB2-4072-BC3E-5C4A99E1B6C7";
shapes = (
{
closed = 1;
nodes = (
(351,-12,o),
(397,19,o),
(482,112,c),
(393,105,l),
(447,33,o),
(522,-12,o),
(623,-12,cs),
(756,-12,o),
(861,46,o),
(861,190,cs),
(861,265,o),
(820,337,o),
(742,372,c),
(720,389,o),
(675,401,o),
(630,401,cs),
(545,401,o),
(486,367,o),
(486,292,cs),
(486,215,o),
(558,181,o),
(639,181,cs),
(712,181,o),
(753,203,o),
(800,239,c),
(810,249,o),
(824,248,o),
(830,257,cs),
(839,273,o),
(844,295,o),
(844,325,cs),
(844,406,o),
(784,463,o),
(719,477,c),
(713,427,l),
(762,436,o),
(797,457,o),
(818,480,cs),
(844,508,o),
(860,546,o),
(860,597,cs),
(860,654,o),
(844,713,o),
(775,798,c),
(635,715,l),
(667,678,o),
(679,652,o),
(679,623,cs),
(679,606,o),
(674,594,o),
(663,587,cs),
(648,577,o),
(625,574,o),
(567,574,cs),
(34,574,l),
(34,418,l),
(202,418,l),
(188,454,l),
(87,402,o),
(34,321,o),
(34,208,cs),
(34,69,o),
(112,-12,o),
(237,-12,cs)
);
},
{
closed = 1;
nodes = (
(246,150,o),
(225,176,o),
(225,229,cs),
(225,327,o),
(296,418,o),
(422,418,cs),
(509,418,ls),
(684,418,o),
(687,353,o),
(687,330,cs),
(687,293,o),
(664,276,o),
(635,276,cs),
(618,276,o),
(605,282,o),
(605,296,cs),
(605,311,o),
(618,316,o),
(632,316,cs),
(674,316,o),
(696,280,o),
(696,229,cs),
(696,171,o),
(663,146,o),
(612,146,cs),
(551,146,o),
(528,173,o),
(517,219,c),
(348,219,l),
(338,177,o),
(321,150,o),
(282,150,cs)
);
},
{
closed = 1;
nodes = (
(529,-149,l),
(516,3,l),
(352,3,l),
(339,-149,l)
);
}
);
width = 892;
}
);
unicode = 3234;
},
{
glyphname = nnaknda;
layers = (
{
anchors = (
{
name = Anchor5;
position = "{510, -24}";
}
);
background = {
shapes = (
{
closed = 1;
nodes = (
(912,-12,o),
(987,122,o),
(987,275,cs),
(987,447,o),
(902,586,o),
(694,586,cs),
(553,586,o),
(480,532,o),
(422,458,c),
(501,466,l),
(442,538,o),
(376,586,o),
(264,586,cs),
(116,586,o),
(36,505,o),
(36,410,cs),
(36,324,o),
(82,270,o),
(183,235,c),
(202,299,l),
(70,277,o),
(30,208,o),
(30,143,cs),
(30,50,o),
(94,-12,o),
(246,-12,cs),
(319,-12,o),
(383,8,o),
(445,47,c),
(367,172,l),
(342,153,o),
(308,138,o),
(273,138,cs),
(237,138,o),
(222,149,o),
(222,169,cs),
(222,182,o),
(227,190,o),
(237,196,cs),
(247,202,o),
(262,204,o),
(296,204,cs),
(324,204,l),
(324,339,l),
(313,339,ls),
(273,339,o),
(257,342,o),
(244,351,cs),
(234,358,o),
(228,368,o),
(228,384,cs),
(228,407,o),
(246,425,o),
(287,425,cs),
(348,425,o),
(375,387,o),
(379,341,c),
(545,341,l),
(564,391,o),
(603,429,o),
(670,429,cs),
(765,429,o),
(798,350,o),
(798,277,cs),
(798,267,ls),
(798,180,o),
(760,128,o),
(679,128,cs),
(620,128,o),
(608,150,o),
(608,170,cs),
(608,186,o),
(618,197,o),
(631,197,cs),
(645,197,o),
(651,187,o),
(651,176,cs),
(651,170,o),
(650,165,o),
(649,162,c),
(756,159,l),
(762,174,o),
(767,192,o),
(767,210,cs),
(767,276,o),
(726,327,o),
(629,327,cs),
(528,327,o),
(460,262,o),
(460,171,cs),
(460,58,o),
(540,-12,o),
(689,-12,cs)
);
}
);
};
layerId = "D8BA631F-EBB2-4072-BC3E-5C4A99E1B6C7";
shapes = (
{
closed = 1;
nodes = (
(912,-12,o),
(987,122,o),
(987,275,cs),
(987,447,o),
(902,586,o),
(694,586,cs),
(553,586,o),
(480,532,o),
(422,458,c),
(501,466,l),
(442,538,o),
(376,586,o),
(264,586,cs),
(116,586,o),
(36,505,o),
(36,410,cs),
(36,324,o),
(82,270,o),
(183,235,c),
(202,299,l),
(70,277,o),
(30,208,o),
(30,143,cs),
(30,50,o),
(94,-12,o),
(246,-12,cs),
(319,-12,o),
(383,8,o),
(445,47,c),
(367,172,l),
(342,153,o),
(308,138,o),
(273,138,cs),
(237,138,o),
(222,149,o),
(222,169,cs),
(222,182,o),
(227,190,o),
(237,196,cs),
(247,202,o),
(262,204,o),
(296,204,cs),
(324,204,l),
(324,339,l),
(313,339,ls),
(273,339,o),
(257,342,o),
(244,351,cs),
(234,358,o),
(228,368,o),
(228,384,cs),
(228,407,o),
(246,425,o),
(287,425,cs),
(348,425,o),
(375,387,o),
(379,341,c),
(545,341,l),
(564,391,o),
(603,429,o),
(670,429,cs),
(765,429,o),
(798,350,o),
(798,277,cs),
(798,267,ls),
(798,180,o),
(760,128,o),
(679,128,cs),
(620,128,o),
(608,150,o),
(608,170,cs),
(608,186,o),
(618,197,o),
(631,197,cs),
(645,197,o),
(651,187,o),
(651,176,cs),
(651,170,o),
(650,165,o),
(649,162,c),
(756,159,l),
(762,174,o),
(767,192,o),
(767,210,cs),
(767,276,o),
(726,327,o),
(629,327,cs),
(528,327,o),
(460,262,o),
(460,171,cs),
(460,58,o),
(540,-12,o),
(689,-12,cs)
);
}
);
width = 1021;
}
);
unicode = 3235;
},
{
glyphname = taknda;
layers = (
{
anchors = (
{
name = Anchor5;
position = "{370, -24}";
}
);
background = {
shapes = (
{
closed = 1;
nodes = (
(582,-12,o),
(710,52,o),
(710,200,cs),
(710,279,o),
(666,353,o),
(564,382,cs),
(556,384,o),
(562,344,o),
(553,347,c),
(507,377,o),
(468,390,o),
(416,390,cs),
(295,390,o),
(257,333,o),
(257,277,cs),
(257,210,o),
(297,163,o),
(416,163,cs),
(532,163,o),
(585,230,o),
(622,291,c),
(657,311,l),
(659,317,o),
(660,325,o),
(660,332,cs),
(660,394,o),
(623,445,o),
(556,490,c),
(417,431,l),
(468,406,o),
(502,380,o),
(502,327,cs),
(502,279,o),
(471,260,o),
(441,260,cs),
(418,260,o),
(409,267,o),
(409,280,cs),
(409,292,o),
(418,302,o),
(447,302,cs),
(468,302,o),
(492,296,o),
(510,285,c),
(514,281,o),
(518,278,o),
(521,273,c),
(533,263,o),
(543,235,o),
(543,219,cs),
(543,158,o),
(495,126,o),
(384,126,cs),
(229,126,o),
(220,197,o),
(220,246,cs),
(220,252,o),
(221,257,o),
(222,263,c),
(39,285,l),
(34,261,o),
(32,240,o),
(32,223,cs),
(32,88,o),
(112,-12,o),
(383,-12,cs)
);
},
{
closed = 1;
nodes = (
(460,418,ls),
(562,418,o),
(626,435,o),
(668,480,cs),
(694,508,o),
(710,546,o),
(710,597,cs),
(710,654,o),
(694,713,o),
(625,798,c),
(485,715,l),
(517,678,o),
(529,652,o),
(529,623,cs),
(529,606,o),
(524,594,o),
(513,587,cs),
(498,577,o),
(475,574,o),
(417,574,cs),
(32,574,l),
(32,418,l)
);
}
);
};
layerId = "D8BA631F-EBB2-4072-BC3E-5C4A99E1B6C7";
shapes = (
{
closed = 1;
nodes = (
(582,-12,o),
(710,52,o),
(710,200,cs),
(710,279,o),
(666,353,o),
(564,382,cs),
(556,384,o),
(562,344,o),
(553,347,c),
(507,377,o),
(468,390,o),
(416,390,cs),
(295,390,o),
(257,333,o),
(257,277,cs),
(257,210,o),
(297,163,o),
(416,163,cs),
(532,163,o),
(585,230,o),
(622,291,c),
(657,311,l),
(659,317,o),
(660,325,o),
(660,332,cs),
(660,394,o),
(623,445,o),
(556,490,c),
(417,431,l),
(468,406,o),
(502,380,o),
(502,327,cs),
(502,279,o),
(471,260,o),
(441,260,cs),
(418,260,o),
(409,267,o),
(409,280,cs),
(409,292,o),
(418,302,o),
(447,302,cs),
(468,302,o),
(492,296,o),
(510,285,c),
(514,281,o),
(518,278,o),
(521,273,c),
(533,263,o),
(543,235,o),
(543,219,cs),
(543,158,o),
(495,126,o),
(384,126,cs),
(229,126,o),
(220,197,o),
(220,246,cs),
(220,252,o),
(221,257,o),
(222,263,c),
(39,285,l),
(34,261,o),
(32,240,o),
(32,223,cs),
(32,88,o),
(112,-12,o),
(383,-12,cs)
);
},
{
closed = 1;
nodes = (
(460,418,ls),
(562,418,o),
(626,435,o),
(668,480,cs),
(694,508,o),
(710,546,o),
(710,597,cs),
(710,654,o),
(694,713,o),
(625,798,c),
(485,715,l),
(517,678,o),
(529,652,o),
(529,623,cs),
(529,606,o),
(524,594,o),
(513,587,cs),
(498,577,o),
(475,574,o),
(417,574,cs),
(32,574,l),
(32,418,l)
);
}
);
width = 741;
}
);
unicode = 3236;
},
{
glyphname = thaknda;
layers = (
{
anchors = (
{
name = Anchor5;
position = "{433, -24}";
}
);
background = {
shapes = (
{
closed = 1;
nodes = (
(351,-12,o),
(397,19,o),
(482,112,c),
(393,105,l),
(450,31,o),
(504,-12,o),
(622,-12,cs),
(749,-12,o),
(829,69,o),
(829,209,cs),
(829,318,o),
(785,402,o),
(693,453,c),
(683,427,l),
(732,436,o),
(766,457,o),
(787,480,cs),
(813,508,o),
(829,546,o),
(829,597,cs),
(829,654,o),
(813,713,o),
(744,798,c),
(604,715,l),
(636,678,o),
(648,652,o),
(648,623,cs),
(648,606,o),
(643,594,o),
(632,587,cs),
(617,577,o),
(594,574,o),
(536,574,cs),
(34,574,l),
(34,418,l),
(202,418,l),
(188,454,l),
(87,402,o),
(34,321,o),
(34,208,cs),
(34,69,o),
(112,-12,o),
(238,-12,cs)
);
},
{
closed = 1;
nodes = (
(245,150,o),
(225,176,o),
(225,229,cs),
(225,327,o),
(296,418,o),
(422,418,cs),
(439,418,ls),
(573,418,o),
(639,322,o),
(639,233,cs),
(639,175,o),
(619,150,o),
(582,150,cs),
(550,150,o),
(525,172,o),
(517,223,c),
(348,223,l),
(338,179,o),
(321,150,o),
(282,150,cs)
);
},
{
closed = 1;
nodes = (
(489,236,o),
(522,266,o),
(522,314,cs),
(522,365,o),
(489,394,o),
(432,394,cs),
(377,394,o),
(342,366,o),
(342,314,cs),
(342,266,o),
(374,236,o),
(432,236,cs)
);
},
{
closed = 1;
nodes = (
(528,-149,l),
(515,3,l),
(351,3,l),
(338,-149,l)
);
}
);
};
layerId = "D8BA631F-EBB2-4072-BC3E-5C4A99E1B6C7";
shapes = (
{
closed = 1;
nodes = (
(351,-12,o),
(397,19,o),
(482,112,c),
(393,105,l),
(450,31,o),
(504,-12,o),
(622,-12,cs),
(749,-12,o),
(829,69,o),
(829,209,cs),
(829,318,o),
(785,402,o),
(693,453,c),
(683,427,l),
(732,436,o),
(766,457,o),
(787,480,cs),
(813,508,o),
(829,546,o),
(829,597,cs),
(829,654,o),
(813,713,o),
(744,798,c),
(604,715,l),
(636,678,o),
(648,652,o),
(648,623,cs),
(648,606,o),
(643,594,o),
(632,587,cs),
(617,577,o),
(594,574,o),
(536,574,cs),
(34,574,l),
(34,418,l),
(202,418,l),
(188,454,l),
(87,402,o),
(34,321,o),
(34,208,cs),
(34,69,o),
(112,-12,o),
(238,-12,cs)
);
},
{
closed = 1;
nodes = (
(245,150,o),
(225,176,o),
(225,229,cs),
(225,327,o),
(296,418,o),
(422,418,cs),
(439,418,ls),
(573,418,o),
(639,322,o),
(639,233,cs),
(639,175,o),
(619,150,o),
(582,150,cs),
(550,150,o),
(525,172,o),
(517,223,c),
(348,223,l),
(338,179,o),
(321,150,o),
(282,150,cs)
);
},
{
closed = 1;
nodes = (
(489,236,o),
(522,266,o),
(522,314,cs),
(522,365,o),
(489,394,o),
(432,394,cs),
(377,394,o),
(342,366,o),
(342,314,cs),
(342,266,o),
(374,236,o),
(432,236,cs)
);
},
{
closed = 1;
nodes = (
(528,-149,l),
(515,3,l),
(351,3,l),
(338,-149,l)
);
}
);
width = 863;
}
);
unicode = 3237;
},
{
glyphname = daknda;
layers = (
{
anchors = (
{
name = Anchor5;
position = "{433, -24}";
}
);
background = {
shapes = (
{
closed = 1;
nodes = (
(351,-12,o),
(397,19,o),
(482,112,c),
(393,105,l),
(450,31,o),
(504,-12,o),
(622,-12,cs),
(749,-12,o),
(829,69,o),
(829,209,cs),
(829,318,o),
(785,402,o),
(693,453,c),
(683,427,l),
(732,436,o),
(766,457,o),
(787,480,cs),
(813,508,o),
(829,546,o),
(829,597,cs),
(829,654,o),
(813,713,o),
(744,798,c),
(604,715,l),
(636,678,o),
(648,652,o),
(648,623,cs),
(648,606,o),
(643,594,o),
(632,587,cs),
(617,577,o),
(594,574,o),
(536,574,cs),
(34,574,l),
(34,418,l),
(202,418,l),
(188,454,l),
(87,402,o),
(34,321,o),
(34,208,cs),
(34,69,o),
(112,-12,o),
(238,-12,cs)
);
},
{
closed = 1;
nodes = (
(245,150,o),
(225,176,o),
(225,229,cs),
(225,327,o),
(296,418,o),
(422,418,cs),
(439,418,ls),
(573,418,o),
(639,322,o),
(639,233,cs),
(639,175,o),
(619,150,o),
(582,150,cs),
(550,150,o),
(520,174,o),
(517,238,c),
(348,238,l),
(344,182,o),
(321,150,o),
(282,150,cs)
);
}
);
};
layerId = "D8BA631F-EBB2-4072-BC3E-5C4A99E1B6C7";
shapes = (
{
closed = 1;
nodes = (
(351,-12,o),
(397,19,o),
(482,112,c),
(393,105,l),
(450,31,o),
(504,-12,o),
(622,-12,cs),
(749,-12,o),
(829,69,o),
(829,209,cs),
(829,318,o),
(785,402,o),
(693,453,c),
(683,427,l),
(732,436,o),
(766,457,o),
(787,480,cs),
(813,508,o),
(829,546,o),
(829,597,cs),
(829,654,o),
(813,713,o),
(744,798,c),
(604,715,l),
(636,678,o),
(648,652,o),
(648,623,cs),
(648,606,o),
(643,594,o),
(632,587,cs),
(617,577,o),
(594,574,o),
(536,574,cs),
(34,574,l),
(34,418,l),
(202,418,l),
(188,454,l),
(87,402,o),
(34,321,o),
(34,208,cs),
(34,69,o),
(112,-12,o),
(238,-12,cs)
);
},
{
closed = 1;
nodes = (
(245,150,o),
(225,176,o),
(225,229,cs),
(225,327,o),
(296,418,o),
(422,418,cs),
(439,418,ls),
(573,418,o),
(639,322,o),
(639,233,cs),
(639,175,o),
(619,150,o),
(582,150,cs),
(550,150,o),
(520,174,o),
(517,238,c),
(348,238,l),
(344,182,o),
(321,150,o),
(282,150,cs)
);
}
);
width = 863;
}
);
unicode = 3238;
},
{
glyphname = dhaknda;
layers = (
{
anchors = (
{
name = Anchor5;
position = "{433, -24}";
}
);
background = {
shapes = (
{
closed = 1;
nodes = (
(351,-12,o),
(397,19,o),
(482,112,c),
(393,105,l),
(450,31,o),
(504,-12,o),
(622,-12,cs),
(749,-12,o),
(829,69,o),
(829,209,cs),
(829,318,o),
(785,402,o),
(693,453,c),
(683,427,l),
(732,436,o),
(766,457,o),
(787,480,cs),
(813,508,o),
(829,546,o),
(829,597,cs),
(829,654,o),
(813,713,o),
(744,798,c),
(604,715,l),
(636,678,o),
(648,652,o),
(648,623,cs),
(648,606,o),
(643,594,o),
(632,587,cs),
(617,577,o),
(594,574,o),
(536,574,cs),
(34,574,l),
(34,418,l),
(202,418,l),
(188,454,l),
(87,402,o),
(34,321,o),
(34,208,cs),
(34,69,o),
(112,-12,o),
(238,-12,cs)
);
},
{
closed = 1;
nodes = (
(245,150,o),
(225,176,o),
(225,229,cs),
(225,327,o),
(296,418,o),
(422,418,cs),
(439,418,ls),
(573,418,o),
(639,322,o),
(639,233,cs),
(639,175,o),
(619,150,o),
(582,150,cs),
(550,150,o),
(520,174,o),
(517,238,c),
(348,238,l),
(344,182,o),
(321,150,o),
(282,150,cs)
);
},
{
closed = 1;
nodes = (
(528,-149,l),
(515,3,l),
(351,3,l),
(338,-149,l)
);
}
);
};
layerId = "D8BA631F-EBB2-4072-BC3E-5C4A99E1B6C7";
shapes = (
{
closed = 1;
nodes = (
(351,-12,o),
(397,19,o),
(482,112,c),
(393,105,l),
(450,31,o),
(504,-12,o),
(622,-12,cs),
(749,-12,o),
(829,69,o),
(829,209,cs),
(829,318,o),
(785,402,o),
(693,453,c),
(683,427,l),
(732,436,o),
(766,457,o),
(787,480,cs),
(813,508,o),
(829,546,o),
(829,597,cs),
(829,654,o),
(813,713,o),
(744,798,c),
(604,715,l),
(636,678,o),
(648,652,o),
(648,623,cs),
(648,606,o),
(643,594,o),
(632,587,cs),
(617,577,o),
(594,574,o),
(536,574,cs),
(34,574,l),
(34,418,l),
(202,418,l),
(188,454,l),
(87,402,o),
(34,321,o),
(34,208,cs),
(34,69,o),
(112,-12,o),
(238,-12,cs)
);
},
{
closed = 1;
nodes = (
(245,150,o),
(225,176,o),
(225,229,cs),
(225,327,o),
(296,418,o),
(422,418,cs),
(439,418,ls),
(573,418,o),
(639,322,o),
(639,233,cs),
(639,175,o),
(619,150,o),
(582,150,cs),
(550,150,o),
(520,174,o),
(517,238,c),
(348,238,l),
(344,182,o),
(321,150,o),
(282,150,cs)
);
},
{
closed = 1;
nodes = (
(528,-149,l),
(515,3,l),
(351,3,l),
(338,-149,l)
);
}
);
width = 863;
}
);
unicode = 3239;
},
{
glyphname = naknda;
layers = (
{
anchors = (
{
name = Anchor5;
position = "{405, -24}";
}
);
background = {
shapes = (
{
closed = 1;
nodes = (
(694,-12,o),
(777,59,o),
(777,195,cs),
(777,311,o),
(711,389,o),
(628,449,c),
(607,430,l),
(628,426,l),
(677,434,o),
(713,457,o),
(735,480,cs),
(761,508,o),
(777,546,o),
(777,597,cs),
(777,654,o),
(761,713,o),
(692,798,c),
(552,715,l),
(584,678,o),
(596,652,o),
(596,623,cs),
(596,606,o),
(591,594,o),
(580,587,cs),
(565,577,o),
(542,574,o),
(484,574,cs),
(33,574,l),
(33,418,l),
(430,418,l),
(523,368,o),
(586,284,o),
(586,215,cs),
(586,167,o),
(567,150,o),
(543,150,cs),
(511,150,o),
(494,164,o),
(442,215,cs),
(372,284,o),
(313,318,o),
(230,318,cs),
(90,318,o),
(30,240,o),
(30,132,cs),
(30,79,o),
(50,20,o),
(83,-25,c),
(257,35,l),
(234,68,o),
(221,96,o),
(221,123,cs),
(221,142,o),
(229,156,o),
(247,156,cs),
(263,156,o),
(274,147,o),
(317,104,cs),
(390,30,o),
(446,-12,o),
(557,-12,cs)
);
}
);
};
layerId = "D8BA631F-EBB2-4072-BC3E-5C4A99E1B6C7";
shapes = (
{
closed = 1;
nodes = (
(694,-12,o),
(777,59,o),
(777,195,cs),
(777,311,o),
(711,389,o),
(628,449,c),
(607,430,l),
(628,426,l),
(677,434,o),
(713,457,o),
(735,480,cs),
(761,508,o),
(777,546,o),
(777,597,cs),
(777,654,o),
(761,713,o),
(692,798,c),
(552,715,l),
(584,678,o),
(596,652,o),
(596,623,cs),
(596,606,o),
(591,594,o),
(580,587,cs),
(565,577,o),
(542,574,o),
(484,574,cs),
(33,574,l),
(33,418,l),
(430,418,l),
(523,368,o),
(586,284,o),
(586,215,cs),
(586,167,o),
(567,150,o),
(543,150,cs),
(511,150,o),
(494,164,o),
(442,215,cs),
(372,284,o),
(313,318,o),
(230,318,cs),
(90,318,o),
(30,240,o),
(30,132,cs),
(30,79,o),
(50,20,o),
(83,-25,c),
(257,35,l),
(234,68,o),
(221,96,o),
(221,123,cs),
(221,142,o),
(229,156,o),
(247,156,cs),
(263,156,o),
(274,147,o),
(317,104,cs),
(390,30,o),
(446,-12,o),
(557,-12,cs)
);
}
);
width = 810;
}
);
unicode = 3240;
},
{
glyphname = paknda;
layers = (
{
anchors = (
{
name = Anchor5;
position = "{498, -24}";
}
);
background = {
shapes = (
{
closed = 1;
nodes = (
(400,-12,o),
(465,27,o),
(541,98,c),
(461,105,l),
(518,31,o),
(573,-12,o),
(690,-12,cs),
(808,-12,o),
(899,45,o),
(899,181,cs),
(899,258,o),
(875,331,o),
(827,402,c),
(660,334,l),
(683,299,o),
(708,251,o),
(708,205,cs),
(708,173,o),
(697,150,o),
(658,150,cs),
(617,150,o),
(590,171,o),
(585,233,c),
(419,233,l),
(402,176,o),
(370,145,o),
(294,145,cs),
(220,145,o),
(190,160,o),
(190,196,cs),
(190,210,o),
(200,225,o),
(219,225,cs),
(236,225,o),
(245,214,o),
(245,197,cs),
(245,193,o),
(245,186,o),
(244,182,c),
(367,176,l),
(375,191,o),
(380,217,o),
(380,239,cs),
(380,308,o),
(335,357,o),
(223,357,cs),
(109,357,o),
(31,293,o),
(31,183,cs),
(31,65,o),
(110,-12,o),
(268,-12,cs)
);
},
{
closed = 1;
nodes = (
(548,251,o),
(581,281,o),
(581,329,cs),
(581,380,o),
(548,409,o),
(491,409,cs),
(436,409,o),
(401,381,o),
(401,329,cs),
(401,281,o),
(433,251,o),
(491,251,cs)
);
},
{
closed = 1;
nodes = (
(649,418,ls),
(751,418,o),
(815,435,o),
(857,480,cs),
(883,508,o),
(899,546,o),
(899,597,cs),
(899,654,o),
(883,713,o),
(814,798,c),
(674,715,l),
(706,678,o),
(718,652,o),
(718,623,cs),
(718,606,o),
(713,594,o),
(702,587,cs),
(687,577,o),
(664,574,o),
(606,574,cs),
(33,574,l),
(33,418,l)
);
}
);
};
layerId = "D8BA631F-EBB2-4072-BC3E-5C4A99E1B6C7";
shapes = (
{
closed = 1;
nodes = (
(400,-12,o),
(465,27,o),
(541,98,c),
(461,105,l),
(518,31,o),
(573,-12,o),
(690,-12,cs),
(808,-12,o),
(899,45,o),
(899,181,cs),
(899,258,o),
(875,331,o),
(827,402,c),
(660,334,l),
(683,299,o),
(708,251,o),
(708,205,cs),
(708,173,o),
(697,150,o),
(658,150,cs),
(617,150,o),
(590,171,o),
(585,233,c),
(419,233,l),
(402,176,o),
(370,145,o),
(294,145,cs),
(220,145,o),
(190,160,o),
(190,196,cs),
(190,210,o),
(200,225,o),
(219,225,cs),
(236,225,o),
(245,214,o),
(245,197,cs),
(245,193,o),
(245,186,o),
(244,182,c),
(367,176,l),
(375,191,o),
(380,217,o),
(380,239,cs),
(380,308,o),
(335,357,o),
(223,357,cs),
(109,357,o),
(31,293,o),
(31,183,cs),
(31,65,o),
(110,-12,o),
(268,-12,cs)
);
},
{
closed = 1;
nodes = (
(548,251,o),
(581,281,o),
(581,329,cs),
(581,380,o),
(548,409,o),
(491,409,cs),
(436,409,o),
(401,381,o),
(401,329,cs),
(401,281,o),
(433,251,o),
(491,251,cs)
);
},
{
closed = 1;
nodes = (
(649,418,ls),
(751,418,o),
(815,435,o),
(857,480,cs),
(883,508,o),
(899,546,o),
(899,597,cs),
(899,654,o),
(883,713,o),
(814,798,c),
(674,715,l),
(706,678,o),
(718,652,o),
(718,623,cs),
(718,606,o),
(713,594,o),
(702,587,cs),
(687,577,o),
(664,574,o),
(606,574,cs),
(33,574,l),
(33,418,l)
);
}
);
width = 932;
}
);
unicode = 3242;
},
{
glyphname = phaknda;
layers = (
{
anchors = (
{
name = Anchor5;
position = "{498, -24}";
}
);
background = {
shapes = (
{
closed = 1;
nodes = (
(400,-12,o),
(465,27,o),
(541,98,c),
(461,105,l),
(518,31,o),
(573,-12,o),
(690,-12,cs),
(808,-12,o),
(899,45,o),
(899,181,cs),
(899,258,o),
(875,331,o),
(827,402,c),
(660,334,l),
(683,299,o),
(708,251,o),
(708,205,cs),
(708,173,o),
(697,150,o),
(658,150,cs),
(617,150,o),
(590,171,o),
(585,233,c),
(419,233,l),
(402,176,o),
(370,145,o),
(294,145,cs),
(220,145,o),
(190,160,o),
(190,196,cs),
(190,210,o),
(200,225,o),
(219,225,cs),
(236,225,o),
(245,214,o),
(245,197,cs),
(245,193,o),
(245,186,o),
(244,182,c),
(367,176,l),
(375,191,o),
(380,217,o),
(380,239,cs),
(380,308,o),
(335,357,o),
(223,357,cs),
(109,357,o),
(31,293,o),
(31,183,cs),
(31,65,o),
(110,-12,o),
(268,-12,cs)
);
},
{
closed = 1;
nodes = (
(593,-149,l),
(580,3,l),
(416,3,l),
(403,-149,l)
);
},
{
closed = 1;
nodes = (
(548,251,o),
(581,281,o),
(581,329,cs),
(581,380,o),
(548,409,o),
(491,409,cs),
(436,409,o),
(401,381,o),
(401,329,cs),
(401,281,o),
(433,251,o),
(491,251,cs)
);
},
{
closed = 1;
nodes = (
(649,418,ls),
(751,418,o),
(815,435,o),
(857,480,cs),
(883,508,o),
(899,546,o),
(899,597,cs),
(899,654,o),
(883,713,o),
(814,798,c),
(674,715,l),
(706,678,o),
(718,652,o),
(718,623,cs),
(718,606,o),
(713,594,o),
(702,587,cs),
(687,577,o),
(664,574,o),
(606,574,cs),
(33,574,l),
(33,418,l)
);
}
);
};
layerId = "D8BA631F-EBB2-4072-BC3E-5C4A99E1B6C7";
shapes = (
{
closed = 1;
nodes = (
(400,-12,o),
(465,27,o),
(541,98,c),
(461,105,l),
(518,31,o),
(573,-12,o),
(690,-12,cs),
(808,-12,o),
(899,45,o),
(899,181,cs),
(899,258,o),
(875,331,o),
(827,402,c),
(660,334,l),
(683,299,o),
(708,251,o),
(708,205,cs),
(708,173,o),
(697,150,o),
(658,150,cs),
(617,150,o),
(590,171,o),
(585,233,c),
(419,233,l),
(402,176,o),
(370,145,o),
(294,145,cs),
(220,145,o),
(190,160,o),
(190,196,cs),
(190,210,o),
(200,225,o),
(219,225,cs),
(236,225,o),
(245,214,o),
(245,197,cs),
(245,193,o),
(245,186,o),
(244,182,c),
(367,176,l),
(375,191,o),
(380,217,o),
(380,239,cs),
(380,308,o),
(335,357,o),
(223,357,cs),
(109,357,o),
(31,293,o),
(31,183,cs),
(31,65,o),
(110,-12,o),
(268,-12,cs)
);
},
{
closed = 1;
nodes = (
(593,-149,l),
(580,3,l),
(416,3,l),
(403,-149,l)
);
},
{
closed = 1;
nodes = (
(548,251,o),
(581,281,o),
(581,329,cs),
(581,380,o),
(548,409,o),
(491,409,cs),
(436,409,o),
(401,381,o),
(401,329,cs),
(401,281,o),
(433,251,o),
(491,251,cs)
);
},
{
closed = 1;
nodes = (
(649,418,ls),
(751,418,o),
(815,435,o),
(857,480,cs),
(883,508,o),
(899,546,o),
(899,597,cs),
(899,654,o),
(883,713,o),
(814,798,c),
(674,715,l),
(706,678,o),
(718,652,o),
(718,623,cs),
(718,606,o),
(713,594,o),
(702,587,cs),
(687,577,o),
(664,574,o),
(606,574,cs),
(33,574,l),
(33,418,l)
);
}
);
width = 932;
}
);
unicode = 3243;
},
{
glyphname = baknda;
layers = (
{
anchors = (
{
name = Anchor5;
position = "{471, -24}";
}
);
background = {
shapes = (
{
closed = 1;
nodes = (
(826,-12,o),
(915,81,o),
(915,245,cs),
(915,416,o),
(800,524,o),
(666,588,c),
(567,429,l),
(650,383,o),
(724,336,o),
(724,246,cs),
(724,179,o),
(691,150,o),
(644,150,cs),
(591,150,o),
(563,176,o),
(557,238,c),
(389,238,l),
(380,182,o),
(350,145,o),
(286,145,cs),
(251,145,o),
(237,156,o),
(237,176,cs),
(237,192,o),
(244,204,o),
(300,238,cs),
(421,310,o),
(458,353,o),
(458,434,cs),
(458,505,o),
(409,586,o),
(243,586,cs),
(91,586,o),
(21,527,o),
(21,433,cs),
(21,394,o),
(34,351,o),
(50,324,c),
(210,379,l),
(203,391,o),
(199,405,o),
(199,417,cs),
(199,437,o),
(212,451,o),
(238,451,cs),
(261,451,o),
(272,441,o),
(272,424,cs),
(272,403,o),
(262,388,o),
(207,357,cs),
(72,281,o),
(48,230,o),
(48,157,cs),
(48,59,o),
(112,-12,o),
(255,-12,cs),
(335,-12,o),
(418,-2,o),
(510,99,c),
(433,105,l),
(490,31,o),
(550,-12,o),
(671,-12,cs)
);
}
);
};
layerId = "D8BA631F-EBB2-4072-BC3E-5C4A99E1B6C7";
shapes = (
{
closed = 1;
nodes = (
(826,-12,o),
(915,81,o),
(915,245,cs),
(915,416,o),
(800,524,o),
(666,588,c),
(567,429,l),
(650,383,o),
(724,336,o),
(724,246,cs),
(724,179,o),
(691,150,o),
(644,150,cs),
(591,150,o),
(563,176,o),
(557,238,c),
(389,238,l),
(380,182,o),
(350,145,o),
(286,145,cs),
(251,145,o),
(237,156,o),
(237,176,cs),
(237,192,o),
(244,204,o),
(300,238,cs),
(421,310,o),
(458,353,o),
(458,434,cs),
(458,505,o),
(409,586,o),
(243,586,cs),
(91,586,o),
(21,527,o),
(21,433,cs),
(21,394,o),
(34,351,o),
(50,324,c),
(210,379,l),
(203,391,o),
(199,405,o),
(199,417,cs),
(199,437,o),
(212,451,o),
(238,451,cs),
(261,451,o),
(272,441,o),
(272,424,cs),
(272,403,o),
(262,388,o),
(207,357,cs),
(72,281,o),
(48,230,o),
(48,157,cs),
(48,59,o),
(112,-12,o),
(255,-12,cs),
(335,-12,o),
(418,-2,o),
(510,99,c),
(433,105,l),
(490,31,o),
(550,-12,o),
(671,-12,cs)
);
}
);
width = 948;
}
);
unicode = 3244;
},
{
glyphname = bhaknda;
layers = (
{
anchors = (
{
name = Anchor5;
position = "{471, -24}";
}
);
background = {
shapes = (
{
closed = 1;
nodes = (
(335,-12,o),
(418,-2,o),
(510,99,c),
(433,105,l),
(496,23,o),
(567,-12,o),
(667,-12,cs),
(855,-12,o),
(926,86,o),
(926,218,cs),
(926,374,o),
(816,479,o),
(654,542,c),
(586,427,l),
(680,393,o),
(736,322,o),
(736,241,cs),
(736,179,o),
(700,150,o),
(647,150,cs),
(597,150,o),
(564,175,o),
(557,238,c),
(389,238,l),
(380,182,o),
(350,145,o),
(286,145,cs),
(251,145,o),
(237,156,o),
(237,176,cs),
(237,192,o),
(244,204,o),
(300,238,cs),
(421,310,o),
(458,353,o),
(458,434,cs),
(458,505,o),
(409,586,o),
(243,586,cs),
(91,586,o),
(21,527,o),
(21,433,cs),
(21,394,o),
(34,351,o),
(50,324,c),
(210,379,l),
(203,391,o),
(199,405,o),
(199,417,cs),
(199,437,o),
(212,451,o),
(238,451,cs),
(261,451,o),
(272,441,o),
(272,424,cs),
(272,403,o),
(262,388,o),
(207,357,cs),
(72,281,o),
(48,230,o),
(48,157,cs),
(48,59,o),
(112,-12,o),
(255,-12,cs)
);
},
{
closed = 1;
nodes = (
(566,-149,l),
(553,3,l),
(389,3,l),
(376,-149,l)
);
},
{
closed = 1;
nodes = (
(676,418,ls),
(778,418,o),
(842,435,o),
(884,480,cs),
(910,508,o),
(926,546,o),
(926,597,cs),
(926,654,o),
(910,713,o),
(841,798,c),
(701,715,l),
(733,678,o),
(745,652,o),
(745,623,cs),
(745,606,o),
(740,594,o),
(729,587,cs),
(714,577,o),
(691,574,o),
(633,574,cs),
(533,574,l),
(533,418,l)
);
}
);
};
layerId = "D8BA631F-EBB2-4072-BC3E-5C4A99E1B6C7";
shapes = (
{
closed = 1;
nodes = (
(335,-12,o),
(418,-2,o),
(510,99,c),
(433,105,l),
(496,23,o),
(567,-12,o),
(667,-12,cs),
(855,-12,o),
(926,86,o),
(926,218,cs),
(926,374,o),
(816,479,o),
(654,542,c),
(586,427,l),
(680,393,o),
(736,322,o),
(736,241,cs),
(736,179,o),
(700,150,o),
(647,150,cs),
(597,150,o),
(564,175,o),
(557,238,c),
(389,238,l),
(380,182,o),
(350,145,o),
(286,145,cs),
(251,145,o),
(237,156,o),
(237,176,cs),
(237,192,o),
(244,204,o),
(300,238,cs),
(421,310,o),
(458,353,o),
(458,434,cs),
(458,505,o),
(409,586,o),
(243,586,cs),
(91,586,o),
(21,527,o),
(21,433,cs),
(21,394,o),
(34,351,o),
(50,324,c),
(210,379,l),
(203,391,o),
(199,405,o),
(199,417,cs),
(199,437,o),
(212,451,o),
(238,451,cs),
(261,451,o),
(272,441,o),
(272,424,cs),
(272,403,o),
(262,388,o),
(207,357,cs),
(72,281,o),
(48,230,o),
(48,157,cs),
(48,59,o),
(112,-12,o),
(255,-12,cs)
);
},
{
closed = 1;
nodes = (
(566,-149,l),
(553,3,l),
(389,3,l),
(376,-149,l)
);
},
{
closed = 1;
nodes = (
(676,418,ls),
(778,418,o),
(842,435,o),
(884,480,cs),
(910,508,o),
(926,546,o),
(926,597,cs),
(926,654,o),
(910,713,o),
(841,798,c),
(701,715,l),
(733,678,o),
(745,652,o),
(745,623,cs),
(745,606,o),
(740,594,o),
(729,587,cs),
(714,577,o),
(691,574,o),
(633,574,cs),
(533,574,l),
(533,418,l)
);
}
);
width = 960;
}
);
unicode = 3245;
},
{
glyphname = maknda;
layers = (
{
anchors = (
{
name = Anchor5;
position = "{657, -24}";
}
);
background = {
shapes = (
{
closed = 1;
nodes = (
(400,-12,o),
(465,27,o),
(541,98,c),
(461,105,l),
(518,31,o),
(573,-12,o),
(693,-12,cs),
(800,-12,o),
(899,38,o),
(899,194,cs),
(899,312,o),
(834,389,o),
(751,449,c),
(553,418,l),
(650,367,o),
(708,289,o),
(708,215,cs),
(708,175,o),
(692,150,o),
(654,150,cs),
(617,150,o),
(588,174,o),
(585,238,c),
(419,238,l),
(406,177,o),
(370,145,o),
(294,145,cs),
(220,145,o),
(190,161,o),
(190,195,cs),
(190,211,o),
(200,225,o),
(219,225,cs),
(236,225,o),
(245,214,o),
(245,197,cs),
(245,193,o),
(245,186,o),
(244,182,c),
(367,176,l),
(375,191,o),
(380,217,o),
(380,239,cs),
(380,308,o),
(335,357,o),
(223,357,cs),
(109,357,o),
(31,293,o),
(31,183,cs),
(31,65,o),
(110,-12,o),
(268,-12,cs)
);
},
{
closed = 1;
nodes = (
(649,418,ls),
(751,418,o),
(815,435,o),
(857,480,cs),
(883,508,o),
(899,546,o),
(899,597,cs),
(899,654,o),
(883,713,o),
(814,798,c),
(674,715,l),
(706,678,o),
(718,652,o),
(718,623,cs),
(718,606,o),
(713,594,o),
(702,587,cs),
(687,577,o),
(664,574,o),
(606,574,cs),
(33,574,l),
(33,418,l)
);
},
{
closed = 1;
nodes = (
(1197,-12,o),
(1282,86,o),
(1282,245,cs),
(1282,416,o),
(1167,524,o),
(1033,588,c),
(934,429,l),
(1017,383,o),
(1091,336,o),
(1091,246,cs),
(1091,183,o),
(1054,151,o),
(996,151,cs),
(926,151,o),
(883,187,o),
(831,246,c),
(739,133,l),
(826,33,o),
(908,-12,o),
(1023,-12,cs)
);
}
);
};
layerId = "D8BA631F-EBB2-4072-BC3E-5C4A99E1B6C7";
shapes = (
{
closed = 1;
nodes = (
(400,-12,o),
(465,27,o),
(541,98,c),
(461,105,l),
(518,31,o),
(573,-12,o),
(693,-12,cs),
(800,-12,o),
(899,38,o),
(899,194,cs),
(899,312,o),
(834,389,o),
(751,449,c),
(553,418,l),
(650,367,o),
(708,289,o),
(708,215,cs),
(708,175,o),
(692,150,o),
(654,150,cs),
(617,150,o),
(588,174,o),
(585,238,c),
(419,238,l),
(406,177,o),
(370,145,o),
(294,145,cs),
(220,145,o),
(190,161,o),
(190,195,cs),
(190,211,o),
(200,225,o),
(219,225,cs),
(236,225,o),
(245,214,o),
(245,197,cs),
(245,193,o),
(245,186,o),
(244,182,c),
(367,176,l),
(375,191,o),
(380,217,o),
(380,239,cs),
(380,308,o),
(335,357,o),
(223,357,cs),
(109,357,o),
(31,293,o),
(31,183,cs),
(31,65,o),
(110,-12,o),
(268,-12,cs)
);
},
{
closed = 1;
nodes = (
(649,418,ls),
(751,418,o),
(815,435,o),
(857,480,cs),
(883,508,o),
(899,546,o),
(899,597,cs),
(899,654,o),
(883,713,o),
(814,798,c),
(674,715,l),
(706,678,o),
(718,652,o),
(718,623,cs),
(718,606,o),
(713,594,o),
(702,587,cs),
(687,577,o),
(664,574,o),
(606,574,cs),
(33,574,l),
(33,418,l)
);
},
{
closed = 1;
nodes = (
(1197,-12,o),
(1282,86,o),
(1282,245,cs),
(1282,416,o),
(1167,524,o),
(1033,588,c),
(934,429,l),
(1017,383,o),
(1091,336,o),
(1091,246,cs),
(1091,183,o),
(1054,151,o),
(996,151,cs),
(926,151,o),
(883,187,o),
(831,246,c),
(739,133,l),
(826,33,o),
(908,-12,o),
(1023,-12,cs)
);
}
);
width = 1315;
}
);
unicode = 3246;
},
{
glyphname = yaknda;
layers = (
{
anchors = (
{
name = Anchor5;
position = "{732, -24}";
}
);
background = {
shapes = (
{
closed = 1;
nodes = (
(550,-12,o),
(667,110,o),
(667,284,cs),
(667,421,o),
(589,586,o),
(350,586,cs),
(145,586,o),
(33,456,o),
(33,294,cs),
(33,153,o),
(109,-12,o),
(356,-12,cs)
);
},
{
closed = 1;
nodes = (
(273,152,o),
(224,210,o),
(224,294,cs),
(224,388,o),
(275,428,o),
(350,428,cs),
(434,428,o),
(477,366,o),
(477,282,cs),
(477,195,o),
(427,152,o),
(351,152,cs)
);
},
{
closed = 1;
nodes = (
(954,-12,o),
(1050,75,o),
(1050,246,cs),
(1050,383,o),
(948,465,o),
(802,522,c),
(702,429,l),
(784,390,o),
(859,331,o),
(859,246,cs),
(859,183,o),
(822,151,o),
(764,151,cs),
(694,151,o),
(651,187,o),
(599,246,c),
(507,133,l),
(594,33,o),
(676,-12,o),
(795,-12,cs)
);
},
{
closed = 1;
nodes = (
(1347,-12,o),
(1432,86,o),
(1432,245,cs),
(1432,416,o),
(1317,524,o),
(1183,588,c),
(1084,429,l),
(1167,383,o),
(1241,336,o),
(1241,246,cs),
(1241,183,o),
(1204,151,o),
(1146,151,cs),
(1076,151,o),
(1033,187,o),
(981,246,c),
(889,133,l),
(976,33,o),
(1058,-12,o),
(1173,-12,cs)
);
},
{
closed = 1;
nodes = (
(1051,654,o),
(1035,713,o),
(966,798,c),
(826,715,l),
(858,678,o),
(870,652,o),
(870,623,cs),
(870,606,o),
(865,594,o),
(854,587,cs),
(839,577,o),
(816,574,o),
(758,574,cs),
(677,574,l),
(677,418,l),
(801,418,ls),
(903,418,o),
(967,435,o),
(1009,480,cs),
(1035,508,o),
(1051,546,o),
(1051,597,cs)
);
}
);
};
layerId = "D8BA631F-EBB2-4072-BC3E-5C4A99E1B6C7";
shapes = (
{
closed = 1;
nodes = (
(550,-12,o),
(667,110,o),
(667,284,cs),
(667,421,o),
(589,586,o),
(350,586,cs),
(145,586,o),
(33,456,o),
(33,294,cs),
(33,153,o),
(109,-12,o),
(356,-12,cs)
);
},
{
closed = 1;
nodes = (
(273,152,o),
(224,210,o),
(224,294,cs),
(224,388,o),
(275,428,o),
(350,428,cs),
(434,428,o),
(477,366,o),
(477,282,cs),
(477,195,o),
(427,152,o),
(351,152,cs)
);
},
{
closed = 1;
nodes = (
(954,-12,o),
(1050,75,o),
(1050,246,cs),
(1050,383,o),
(948,465,o),
(802,522,c),
(702,429,l),
(784,390,o),
(859,331,o),
(859,246,cs),
(859,183,o),
(822,151,o),
(764,151,cs),
(694,151,o),
(651,187,o),
(599,246,c),
(507,133,l),
(594,33,o),
(676,-12,o),
(795,-12,cs)
);
},
{
closed = 1;
nodes = (
(1347,-12,o),
(1432,86,o),
(1432,245,cs),
(1432,416,o),
(1317,524,o),
(1183,588,c),
(1084,429,l),
(1167,383,o),
(1241,336,o),
(1241,246,cs),
(1241,183,o),
(1204,151,o),
(1146,151,cs),
(1076,151,o),
(1033,187,o),
(981,246,c),
(889,133,l),
(976,33,o),
(1058,-12,o),
(1173,-12,cs)
);
},
{
closed = 1;
nodes = (
(1051,654,o),
(1035,713,o),
(966,798,c),
(826,715,l),
(858,678,o),
(870,652,o),
(870,623,cs),
(870,606,o),
(865,594,o),
(854,587,cs),
(839,577,o),
(816,574,o),
(758,574,cs),
(677,574,l),
(677,418,l),
(801,418,ls),
(903,418,o),
(967,435,o),
(1009,480,cs),
(1035,508,o),
(1051,546,o),
(1051,597,cs)
);
}
);
width = 1465;
}
);
unicode = 3247;
},
{
glyphname = raknda;
layers = (
{
anchors = (
{
name = Anchor5;
position = "{362, -24}";
}
);
background = {
shapes = (
{
closed = 1;
nodes = (
(578,-12,o),
(690,81,o),
(690,246,cs),
(690,329,o),
(654,406,o),
(575,451,c),
(546,427,l),
(594,437,o),
(627,457,o),
(648,480,cs),
(674,508,o),
(690,546,o),
(690,597,cs),
(690,654,o),
(674,713,o),
(605,798,c),
(465,715,l),
(497,678,o),
(509,652,o),
(509,623,cs),
(509,606,o),
(504,594,o),
(493,587,cs),
(478,577,o),
(455,574,o),
(397,574,cs),
(34,574,l),
(34,418,l),
(205,418,l),
(183,443,l),
(81,412,o),
(34,339,o),
(34,243,cs),
(34,84,o),
(148,-12,o),
(362,-12,cs)
);
},
{
closed = 1;
nodes = (
(277,152,o),
(225,194,o),
(225,281,cs),
(225,357,o),
(270,418,o),
(363,418,cs),
(449,418,o),
(499,362,o),
(499,281,cs),
(499,203,o),
(455,152,o),
(363,152,cs)
);
}
);
};
layerId = "D8BA631F-EBB2-4072-BC3E-5C4A99E1B6C7";
shapes = (
{
closed = 1;
nodes = (
(578,-12,o),
(690,81,o),
(690,246,cs),
(690,329,o),
(654,406,o),
(575,451,c),
(546,427,l),
(594,437,o),
(627,457,o),
(648,480,cs),
(674,508,o),
(690,546,o),
(690,597,cs),
(690,654,o),
(674,713,o),
(605,798,c),
(465,715,l),
(497,678,o),
(509,652,o),
(509,623,cs),
(509,606,o),
(504,594,o),
(493,587,cs),
(478,577,o),
(455,574,o),
(397,574,cs),
(34,574,l),
(34,418,l),
(205,418,l),
(183,443,l),
(81,412,o),
(34,339,o),
(34,243,cs),
(34,84,o),
(148,-12,o),
(362,-12,cs)
);
},
{
closed = 1;
nodes = (
(277,152,o),
(225,194,o),
(225,281,cs),
(225,357,o),
(270,418,o),
(363,418,cs),
(449,418,o),
(499,362,o),
(499,281,cs),
(499,203,o),
(455,152,o),
(363,152,cs)
);
}
);
width = 724;
}
);
unicode = 3248;
},
{
glyphname = rraknda;
layers = (
{
anchors = (
{
name = Anchor5;
position = "{529, -24}";
}
);
background = {
shapes = (
{
closed = 1;
nodes = (
(423,-12,o),
(491,16,o),
(572,118,c),
(487,118,l),
(568,16,o),
(635,-12,o),
(755,-12,cs),
(942,-12,o),
(1027,121,o),
(1027,277,cs),
(1027,479,o),
(912,586,o),
(756,586,cs),
(629,586,o),
(560,515,o),
(560,410,cs),
(560,364,o),
(583,334,o),
(611,305,cs),
(642,273,o),
(682,245,o),
(758,245,cs),
(829,245,o),
(898,273,o),
(938,313,c),
(899,440,l),
(884,413,o),
(842,368,o),
(789,368,cs),
(746,368,o),
(720,385,o),
(720,418,cs),
(720,442,o),
(734,456,o),
(758,456,cs),
(802,456,o),
(845,411,o),
(845,286,cs),
(845,205,o),
(812,150,o),
(731,150,cs),
(667,150,o),
(636,176,o),
(615,222,c),
(443,222,l),
(420,175,o),
(393,150,o),
(328,150,cs),
(247,150,o),
(214,203,o),
(214,285,cs),
(214,411,o),
(257,456,o),
(301,456,cs),
(325,456,o),
(339,442,o),
(339,418,cs),
(339,385,o),
(313,368,o),
(270,368,cs),
(217,368,o),
(175,413,o),
(160,440,c),
(121,313,l),
(161,273,o),
(230,245,o),
(301,245,cs),
(378,245,o),
(419,275,o),
(450,307,cs),
(478,336,o),
(499,365,o),
(499,410,cs),
(499,515,o),
(430,586,o),
(303,586,cs),
(147,586,o),
(32,479,o),
(32,277,cs),
(32,121,o),
(119,-12,o),
(301,-12,cs)
);
},
{
closed = 1;
nodes = (
(757,245,l),
(600,365,l),
(584,367,o),
(557,368,o),
(531,368,cs),
(525,368,ls),
(503,368,o),
(482,366,o),
(452,362,c),
(301,245,l)
);
}
);
};
layerId = "D8BA631F-EBB2-4072-BC3E-5C4A99E1B6C7";
shapes = (
{
closed = 1;
nodes = (
(423,-12,o),
(491,16,o),
(572,118,c),
(487,118,l),
(568,16,o),
(635,-12,o),
(755,-12,cs),
(942,-12,o),
(1027,121,o),
(1027,277,cs),
(1027,479,o),
(912,586,o),
(756,586,cs),
(629,586,o),
(560,515,o),
(560,410,cs),
(560,364,o),
(583,334,o),
(611,305,cs),
(642,273,o),
(682,245,o),
(758,245,cs),
(829,245,o),
(898,273,o),
(938,313,c),
(899,440,l),
(884,413,o),
(842,368,o),
(789,368,cs),
(746,368,o),
(720,385,o),
(720,418,cs),
(720,442,o),
(734,456,o),
(758,456,cs),
(802,456,o),
(845,411,o),
(845,286,cs),
(845,205,o),
(812,150,o),
(731,150,cs),
(667,150,o),
(636,176,o),
(615,222,c),
(443,222,l),
(420,175,o),
(393,150,o),
(328,150,cs),
(247,150,o),
(214,203,o),
(214,285,cs),
(214,411,o),
(257,456,o),
(301,456,cs),
(325,456,o),
(339,442,o),
(339,418,cs),
(339,385,o),
(313,368,o),
(270,368,cs),
(217,368,o),
(175,413,o),
(160,440,c),
(121,313,l),
(161,273,o),
(230,245,o),
(301,245,cs),
(378,245,o),
(419,275,o),
(450,307,cs),
(478,336,o),
(499,365,o),
(499,410,cs),
(499,515,o),
(430,586,o),
(303,586,cs),
(147,586,o),
(32,479,o),
(32,277,cs),
(32,121,o),
(119,-12,o),
(301,-12,cs)
);
},
{
closed = 1;
nodes = (
(757,245,l),
(600,365,l),
(584,367,o),
(557,368,o),
(531,368,cs),
(525,368,ls),
(503,368,o),
(482,366,o),
(452,362,c),
(301,245,l)
);
}
);
width = 1059;
}
);
unicode = 3249;
},
{
glyphname = laknda;
layers = (
{
anchors = (
{
name = Anchor5;
position = "{430, -24}";
}
);
background = {
shapes = (
{
closed = 1;
nodes = (
(715,-12,o),
(830,123,o),
(830,296,cs),
(830,422,o),
(761,526,o),
(631,588,c),
(532,429,l),
(606,393,o),
(638,357,o),
(638,296,cs),
(638,199,o),
(551,152,o),
(433,152,cs),
(274,152,o),
(203,227,o),
(203,326,cs),
(203,415,o),
(240,456,o),
(281,456,cs),
(306,456,o),
(320,442,o),
(320,418,cs),
(320,385,o),
(296,368,o),
(249,368,cs),
(188,368,o),
(149,418,o),
(134,445,c),
(109,318,l),
(141,285,o),
(212,243,o),
(295,243,cs),
(414,243,o),
(489,293,o),
(489,410,cs),
(489,508,o),
(422,586,o),
(294,586,cs),
(136,586,o),
(29,489,o),
(29,323,cs),
(29,124,o),
(173,-12,o),
(434,-12,cs)
);
}
);
};
layerId = "D8BA631F-EBB2-4072-BC3E-5C4A99E1B6C7";
shapes = (
{
closed = 1;
nodes = (
(715,-12,o),
(830,123,o),
(830,296,cs),
(830,422,o),
(761,526,o),
(631,588,c),
(532,429,l),
(606,393,o),
(638,357,o),
(638,296,cs),
(638,199,o),
(551,152,o),
(433,152,cs),
(274,152,o),
(203,227,o),
(203,326,cs),
(203,415,o),
(240,456,o),
(281,456,cs),
(306,456,o),
(320,442,o),
(320,418,cs),
(320,385,o),
(296,368,o),
(249,368,cs),
(188,368,o),
(149,418,o),
(134,445,c),
(109,318,l),
(141,285,o),
(212,243,o),
(295,243,cs),
(414,243,o),
(489,293,o),
(489,410,cs),
(489,508,o),
(422,586,o),
(294,586,cs),
(136,586,o),
(29,489,o),
(29,323,cs),
(29,124,o),
(173,-12,o),
(434,-12,cs)
);
}
);
width = 860;
}
);
unicode = 3250;
},
{
glyphname = llaknda;
layers = (
{
anchors = (
{
name = Anchor5;
position = "{411, -24}";
}
);
background = {
shapes = (
{
closed = 1;
nodes = (
(564,-12,o),
(629,33,o),
(629,101,cs),
(629,139,o),
(614,159,o),
(587,184,c),
(537,136,l),
(707,148,o),
(793,227,o),
(793,334,cs),
(793,412,o),
(741,468,o),
(661,486,c),
(681,436,l),
(752,461,o),
(793,516,o),
(793,597,cs),
(793,654,o),
(777,713,o),
(708,798,c),
(568,715,l),
(600,678,o),
(612,652,o),
(612,623,cs),
(612,606,o),
(607,594,o),
(596,587,cs),
(581,577,o),
(558,574,o),
(500,574,cs),
(468,574,l),
(468,418,l),
(544,418,l),
(580,410,o),
(600,386,o),
(600,358,cs),
(600,302,o),
(535,281,o),
(414,281,cs),
(202,281,o),
(176,325,o),
(176,393,cs),
(176,431,o),
(204,460,o),
(238,460,cs),
(263,460,o),
(273,442,o),
(273,423,cs),
(273,394,o),
(256,377,o),
(209,377,cs),
(165,377,o),
(132,396,o),
(107,411,c),
(100,327,l),
(128,309,o),
(187,291,o),
(263,291,cs),
(363,291,o),
(425,347,o),
(425,427,cs),
(425,534,o),
(348,586,o),
(248,586,cs),
(109,586,o),
(28,497,o),
(28,388,cs),
(28,265,o),
(114,161,o),
(298,146,c),
(257,181,l),
(224,163,o),
(206,132,o),
(206,105,cs),
(206,25,o),
(286,-12,o),
(414,-12,cs)
);
},
{
closed = 1;
nodes = (
(385,101,o),
(373,110,o),
(373,126,cs),
(373,144,o),
(392,153,o),
(417,156,c),
(446,152,o),
(462,142,o),
(462,126,cs),
(462,106,o),
(448,101,o),
(417,101,cs)
);
}
);
};
layerId = "D8BA631F-EBB2-4072-BC3E-5C4A99E1B6C7";
shapes = (
{
closed = 1;
nodes = (
(564,-12,o),
(629,33,o),
(629,101,cs),
(629,139,o),
(614,159,o),
(587,184,c),
(537,136,l),
(707,148,o),
(793,227,o),
(793,334,cs),
(793,412,o),
(741,468,o),
(661,486,c),
(681,436,l),
(752,461,o),
(793,516,o),
(793,597,cs),
(793,654,o),
(777,713,o),
(708,798,c),
(568,715,l),
(600,678,o),
(612,652,o),
(612,623,cs),
(612,606,o),
(607,594,o),
(596,587,cs),
(581,577,o),
(558,574,o),
(500,574,cs),
(468,574,l),
(468,418,l),
(544,418,l),
(580,410,o),
(600,386,o),
(600,358,cs),
(600,302,o),
(535,281,o),
(414,281,cs),
(202,281,o),
(176,325,o),
(176,393,cs),
(176,431,o),
(204,460,o),
(238,460,cs),
(263,460,o),
(273,442,o),
(273,423,cs),
(273,394,o),
(256,377,o),
(209,377,cs),
(165,377,o),
(132,396,o),
(107,411,c),
(100,327,l),
(128,309,o),
(187,291,o),
(263,291,cs),
(363,291,o),
(425,347,o),
(425,427,cs),
(425,534,o),
(348,586,o),
(248,586,cs),
(109,586,o),
(28,497,o),
(28,388,cs),
(28,265,o),
(114,161,o),
(298,146,c),
(257,181,l),
(224,163,o),
(206,132,o),
(206,105,cs),
(206,25,o),
(286,-12,o),
(414,-12,cs)
);
},
{
closed = 1;
nodes = (
(385,101,o),
(373,110,o),
(373,126,cs),
(373,144,o),
(392,153,o),
(417,156,c),
(446,152,o),
(462,142,o),
(462,126,cs),
(462,106,o),
(448,101,o),
(417,101,cs)
);
}
);
width = 822;
}
);
unicode = 3251;
},
{
glyphname = vaknda;
layers = (
{
anchors = (
{
name = Anchor5;
position = "{502, -24}";
}
);
background = {
shapes = (
{
closed = 1;
nodes = (
(400,-12,o),
(465,27,o),
(541,98,c),
(461,105,l),
(518,31,o),
(573,-12,o),
(693,-12,cs),
(800,-12,o),
(899,38,o),
(899,194,cs),
(899,312,o),
(834,389,o),
(751,449,c),
(553,418,l),
(650,367,o),
(708,289,o),
(708,215,cs),
(708,175,o),
(692,150,o),
(654,150,cs),
(617,150,o),
(588,174,o),
(585,238,c),
(419,238,l),
(406,177,o),
(370,145,o),
(294,145,cs),
(220,145,o),
(190,161,o),
(190,195,cs),
(190,211,o),
(200,225,o),
(219,225,cs),
(236,225,o),
(245,214,o),
(245,197,cs),
(245,193,o),
(245,186,o),
(244,182,c),
(367,176,l),
(375,191,o),
(380,217,o),
(380,239,cs),
(380,308,o),
(335,357,o),
(223,357,cs),
(109,357,o),
(31,293,o),
(31,183,cs),
(31,65,o),
(110,-12,o),
(268,-12,cs)
);
},
{
closed = 1;
nodes = (
(649,418,ls),
(751,418,o),
(815,435,o),
(857,480,cs),
(883,508,o),
(899,546,o),
(899,597,cs),
(899,654,o),
(883,713,o),
(814,798,c),
(674,715,l),
(706,678,o),
(718,652,o),
(718,623,cs),
(718,606,o),
(713,594,o),
(702,587,cs),
(687,577,o),
(664,574,o),
(606,574,cs),
(33,574,l),
(33,418,l)
);
}
);
};
layerId = "D8BA631F-EBB2-4072-BC3E-5C4A99E1B6C7";
shapes = (
{
closed = 1;
nodes = (
(400,-12,o),
(465,27,o),
(541,98,c),
(461,105,l),
(518,31,o),
(573,-12,o),
(693,-12,cs),
(800,-12,o),
(899,38,o),
(899,194,cs),
(899,312,o),
(834,389,o),
(751,449,c),
(553,418,l),
(650,367,o),
(708,289,o),
(708,215,cs),
(708,175,o),
(692,150,o),
(654,150,cs),
(617,150,o),
(588,174,o),
(585,238,c),
(419,238,l),
(406,177,o),
(370,145,o),
(294,145,cs),
(220,145,o),
(190,161,o),
(190,195,cs),
(190,211,o),
(200,225,o),
(219,225,cs),
(236,225,o),
(245,214,o),
(245,197,cs),
(245,193,o),
(245,186,o),
(244,182,c),
(367,176,l),
(375,191,o),
(380,217,o),
(380,239,cs),
(380,308,o),
(335,357,o),
(223,357,cs),
(109,357,o),
(31,293,o),
(31,183,cs),
(31,65,o),
(110,-12,o),
(268,-12,cs)
);
},
{
closed = 1;
nodes = (
(649,418,ls),
(751,418,o),
(815,435,o),
(857,480,cs),
(883,508,o),
(899,546,o),
(899,597,cs),
(899,654,o),
(883,713,o),
(814,798,c),
(674,715,l),
(706,678,o),
(718,652,o),
(718,623,cs),
(718,606,o),
(713,594,o),
(702,587,cs),
(687,577,o),
(664,574,o),
(606,574,cs),
(33,574,l),
(33,418,l)
);
}
);
width = 932;
}
);
unicode = 3253;
},
{
glyphname = shaknda;
layers = (
{
anchors = (
{
name = Anchor5;
position = "{379, -24}";
}
);
background = {
shapes = (
{
closed = 1;
nodes = (
(606,-12,o),
(724,102,o),
(724,279,cs),
(724,361,o),
(681,461,o),
(549,517,c),
(444,487,l),
(439,454,l),
(482,424,o),
(536,388,o),
(536,283,cs),
(536,193,o),
(452,143,o),
(325,143,cs),
(240,143,o),
(222,155,o),
(222,172,cs),
(222,191,o),
(235,201,o),
(322,215,cs),
(458,237,o),
(500,285,o),
(500,373,cs),
(500,448,o),
(401,494,o),
(308,494,cs),
(165,494,o),
(67,450,o),
(67,379,cs),
(67,362,o),
(72,335,o),
(82,318,c),
(272,371,l),
(268,380,o),
(266,390,o),
(266,398,cs),
(266,418,o),
(282,430,o),
(307,430,cs),
(330,430,o),
(345,418,o),
(345,397,cs),
(345,372,o),
(337,359,o),
(254,341,cs),
(95,308,o),
(32,262,o),
(32,173,cs),
(32,46,o),
(147,-12,o),
(324,-12,cs)
);
},
{
closed = 1;
nodes = (
(231,418,l),
(306,440,l),
(380,418,l),
(477,418,ls),
(579,418,o),
(643,435,o),
(685,480,cs),
(711,508,o),
(727,546,o),
(727,597,cs),
(727,654,o),
(711,713,o),
(642,798,c),
(502,715,l),
(534,678,o),
(546,652,o),
(546,623,cs),
(546,606,o),
(541,594,o),
(530,587,cs),
(515,577,o),
(492,574,o),
(434,574,cs),
(33,574,l),
(33,418,l)
);
}
);
};
layerId = "D8BA631F-EBB2-4072-BC3E-5C4A99E1B6C7";
shapes = (
{
closed = 1;
nodes = (
(606,-12,o),
(724,102,o),
(724,279,cs),
(724,361,o),
(681,461,o),
(549,517,c),
(444,487,l),
(439,454,l),
(482,424,o),
(536,388,o),
(536,283,cs),
(536,193,o),
(452,143,o),
(325,143,cs),
(240,143,o),
(222,155,o),
(222,172,cs),
(222,191,o),
(235,201,o),
(322,215,cs),
(458,237,o),
(500,285,o),
(500,373,cs),
(500,448,o),
(401,494,o),
(308,494,cs),
(165,494,o),
(67,450,o),
(67,379,cs),
(67,362,o),
(72,335,o),
(82,318,c),
(272,371,l),
(268,380,o),
(266,390,o),
(266,398,cs),
(266,418,o),
(282,430,o),
(307,430,cs),
(330,430,o),
(345,418,o),
(345,397,cs),
(345,372,o),
(337,359,o),
(254,341,cs),
(95,308,o),
(32,262,o),
(32,173,cs),
(32,46,o),
(147,-12,o),
(324,-12,cs)
);
},
{
closed = 1;
nodes = (
(231,418,l),
(306,440,l),
(380,418,l),
(477,418,ls),
(579,418,o),
(643,435,o),
(685,480,cs),
(711,508,o),
(727,546,o),
(727,597,cs),
(727,654,o),
(711,713,o),
(642,798,c),
(502,715,l),
(534,678,o),
(546,652,o),
(546,623,cs),
(546,606,o),
(541,594,o),
(530,587,cs),
(515,577,o),
(492,574,o),
(434,574,cs),
(33,574,l),
(33,418,l)
);
}
);
width = 759;
}
);
unicode = 3254;
},
{
glyphname = ssaknda;
layers = (
{
anchors = (
{
name = Anchor5;
position = "{497, -24}";
}
);
background = {
shapes = (
{
closed = 1;
nodes = (
(400,-12,o),
(465,27,o),
(541,98,c),
(461,105,l),
(518,31,o),
(573,-12,o),
(699,-12,cs),
(747,-12,o),
(791,4,o),
(827,20,cs),
(898,51,o),
(932,98,o),
(932,181,cs),
(932,258,o),
(908,331,o),
(860,402,c),
(694,335,l),
(722,296,o),
(749,248,o),
(749,206,cs),
(749,153,o),
(708,138,o),
(674,138,cs),
(622,138,o),
(583,172,o),
(575,233,c),
(419,233,l),
(402,176,o),
(370,145,o),
(294,145,cs),
(220,145,o),
(190,160,o),
(190,196,cs),
(190,210,o),
(200,225,o),
(219,225,cs),
(236,225,o),
(245,214,o),
(245,197,cs),
(245,193,o),
(245,186,o),
(244,182,c),
(367,176,l),
(375,191,o),
(380,217,o),
(380,239,cs),
(380,308,o),
(335,357,o),
(223,357,cs),
(109,357,o),
(31,293,o),
(31,183,cs),
(31,65,o),
(110,-12,o),
(268,-12,cs)
);
},
{
closed = 1;
nodes = (
(548,251,o),
(581,281,o),
(581,329,cs),
(581,380,o),
(548,409,o),
(491,409,cs),
(436,409,o),
(401,381,o),
(401,329,cs),
(401,281,o),
(433,251,o),
(491,251,cs)
);
},
{
closed = 1;
nodes = (
(898,2,l),
(839,83,l),
(821,93,l),
(668,317,l),
(574,258,l),
(726,36,l),
(724,15,l),
(779,-70,l)
);
},
{
closed = 1;
nodes = (
(682,418,ls),
(784,418,o),
(848,435,o),
(890,480,cs),
(916,508,o),
(932,546,o),
(932,597,cs),
(932,654,o),
(916,713,o),
(847,798,c),
(707,715,l),
(739,678,o),
(751,652,o),
(751,623,cs),
(751,606,o),
(746,594,o),
(735,587,cs),
(720,577,o),
(697,574,o),
(639,574,cs),
(33,574,l),
(33,418,l)
);
}
);
};
layerId = "D8BA631F-EBB2-4072-BC3E-5C4A99E1B6C7";
shapes = (
{
closed = 1;
nodes = (
(400,-12,o),
(465,27,o),
(541,98,c),
(461,105,l),
(518,31,o),
(573,-12,o),
(699,-12,cs),
(747,-12,o),
(791,4,o),
(827,20,cs),
(898,51,o),
(932,98,o),
(932,181,cs),
(932,258,o),
(908,331,o),
(860,402,c),
(694,335,l),
(722,296,o),
(749,248,o),
(749,206,cs),
(749,153,o),
(708,138,o),
(674,138,cs),
(622,138,o),
(583,172,o),
(575,233,c),
(419,233,l),
(402,176,o),
(370,145,o),
(294,145,cs),
(220,145,o),
(190,160,o),
(190,196,cs),
(190,210,o),
(200,225,o),
(219,225,cs),
(236,225,o),
(245,214,o),
(245,197,cs),
(245,193,o),
(245,186,o),
(244,182,c),
(367,176,l),
(375,191,o),
(380,217,o),
(380,239,cs),
(380,308,o),
(335,357,o),
(223,357,cs),
(109,357,o),
(31,293,o),
(31,183,cs),
(31,65,o),
(110,-12,o),
(268,-12,cs)
);
},
{
closed = 1;
nodes = (
(548,251,o),
(581,281,o),
(581,329,cs),
(581,380,o),
(548,409,o),
(491,409,cs),
(436,409,o),
(401,381,o),
(401,329,cs),
(401,281,o),
(433,251,o),
(491,251,cs)
);
},
{
closed = 1;
nodes = (
(898,2,l),
(839,83,l),
(821,93,l),
(668,317,l),
(574,258,l),
(726,36,l),
(724,15,l),
(779,-70,l)
);
},
{
closed = 1;
nodes = (
(682,418,ls),
(784,418,o),
(848,435,o),
(890,480,cs),
(916,508,o),
(932,546,o),
(932,597,cs),
(932,654,o),
(916,713,o),
(847,798,c),
(707,715,l),
(739,678,o),
(751,652,o),
(751,623,cs),
(751,606,o),
(746,594,o),
(735,587,cs),
(720,577,o),
(697,574,o),
(639,574,cs),
(33,574,l),
(33,418,l)
);
}
);
width = 965;
}
);
unicode = 3255;
},
{
glyphname = saknda;
layers = (
{
anchors = (
{
name = Anchor5;
position = "{405, -24}";
}
);
background = {
shapes = (
{
closed = 1;
nodes = (
(695,-12,o),
(777,52,o),
(777,181,cs),
(777,256,o),
(753,331,o),
(705,402,c),
(538,334,l),
(561,299,o),
(586,249,o),
(586,202,cs),
(586,169,o),
(572,150,o),
(543,150,cs),
(505,150,o),
(487,165,o),
(432,218,cs),
(356,292,o),
(304,318,o),
(230,318,cs),
(90,318,o),
(30,240,o),
(30,132,cs),
(30,79,o),
(50,20,o),
(83,-25,c),
(257,35,l),
(234,68,o),
(221,96,o),
(221,123,cs),
(221,142,o),
(229,156,o),
(247,156,cs),
(263,156,o),
(274,147,o),
(317,104,cs),
(390,31,o),
(444,-12,o),
(561,-12,cs)
);
},
{
closed = 1;
nodes = (
(490,254,o),
(523,285,o),
(523,333,cs),
(523,382,o),
(486,414,o),
(433,414,cs),
(374,414,o),
(343,382,o),
(343,333,cs),
(343,288,o),
(380,254,o),
(433,254,cs)
);
},
{
closed = 1;
nodes = (
(527,418,ls),
(629,418,o),
(693,435,o),
(735,480,cs),
(761,508,o),
(777,546,o),
(777,597,cs),
(777,654,o),
(761,713,o),
(692,798,c),
(552,715,l),
(584,678,o),
(596,652,o),
(596,623,cs),
(596,606,o),
(591,594,o),
(580,587,cs),
(565,577,o),
(542,574,o),
(484,574,cs),
(33,574,l),
(33,418,l)
);
}
);
};
layerId = "D8BA631F-EBB2-4072-BC3E-5C4A99E1B6C7";
shapes = (
{
closed = 1;
nodes = (
(695,-12,o),
(777,52,o),
(777,181,cs),
(777,256,o),
(753,331,o),
(705,402,c),
(538,334,l),
(561,299,o),
(586,249,o),
(586,202,cs),
(586,169,o),
(572,150,o),
(543,150,cs),
(505,150,o),
(487,165,o),
(432,218,cs),
(356,292,o),
(304,318,o),
(230,318,cs),
(90,318,o),
(30,240,o),
(30,132,cs),
(30,79,o),
(50,20,o),
(83,-25,c),
(257,35,l),
(234,68,o),
(221,96,o),
(221,123,cs),
(221,142,o),
(229,156,o),
(247,156,cs),
(263,156,o),
(274,147,o),
(317,104,cs),
(390,31,o),
(444,-12,o),
(561,-12,cs)
);
},
{
closed = 1;
nodes = (
(490,254,o),
(523,285,o),
(523,333,cs),
(523,382,o),
(486,414,o),
(433,414,cs),
(374,414,o),
(343,382,o),
(343,333,cs),
(343,288,o),
(380,254,o),
(433,254,cs)
);
},
{
closed = 1;
nodes = (
(527,418,ls),
(629,418,o),
(693,435,o),
(735,480,cs),
(761,508,o),
(777,546,o),
(777,597,cs),
(777,654,o),
(761,713,o),
(692,798,c),
(552,715,l),
(584,678,o),
(596,652,o),
(596,623,cs),
(596,606,o),
(591,594,o),
(580,587,cs),
(565,577,o),
(542,574,o),
(484,574,cs),
(33,574,l),
(33,418,l)
);
}
);
width = 810;
}
);
unicode = 3256;
},
{
glyphname = haknda;
layers = (
{
anchors = (
{
name = Anchor5;
position = "{457, -24}";
}
);
background = {
shapes = (
{
closed = 1;
nodes = (
(390,-12,o),
(437,25,o),
(480,72,c),
(433,70,l),
(478,21,o),
(536,-12,o),
(640,-12,cs),
(809,-12,o),
(883,62,o),
(883,173,cs),
(883,303,o),
(801,376,o),
(668,376,cs),
(570,376,o),
(526,340,o),
(501,310,c),
(525,268,l),
(535,294,o),
(540,314,o),
(540,335,cs),
(540,394,o),
(492,441,o),
(454,453,c),
(246,424,l),
(363,424,o),
(380,350,o),
(380,306,cs),
(380,297,o),
(377,281,o),
(375,273,c),
(422,292,l),
(393,333,o),
(350,376,o),
(256,376,cs),
(110,376,o),
(31,297,o),
(31,183,cs),
(31,62,o),
(111,-12,o),
(266,-12,cs)
);
},
{
closed = 1;
nodes = (
(247,134,o),
(220,149,o),
(220,183,cs),
(220,212,o),
(242,231,o),
(293,231,cs),
(339,231,o),
(366,214,o),
(366,182,cs),
(366,153,o),
(341,134,o),
(293,134,cs)
);
},
{
closed = 1;
nodes = (
(576,134,o),
(548,150,o),
(548,183,cs),
(548,208,o),
(569,231,o),
(621,231,cs),
(673,231,o),
(694,212,o),
(694,181,cs),
(694,151,o),
(669,134,o),
(620,134,cs)
);
},
{
closed = 1;
nodes = (
(633,418,ls),
(735,418,o),
(799,435,o),
(841,480,cs),
(867,508,o),
(883,546,o),
(883,597,cs),
(883,654,o),
(867,713,o),
(798,798,c),
(658,715,l),
(690,678,o),
(702,652,o),
(702,623,cs),
(702,606,o),
(697,594,o),
(686,587,cs),
(671,577,o),
(648,574,o),
(590,574,cs),
(32,574,l),
(32,418,l)
);
}
);
};
layerId = "D8BA631F-EBB2-4072-BC3E-5C4A99E1B6C7";
shapes = (
{
closed = 1;
nodes = (
(390,-12,o),
(437,25,o),
(480,72,c),
(433,70,l),
(478,21,o),
(536,-12,o),
(640,-12,cs),
(809,-12,o),
(883,62,o),
(883,173,cs),
(883,303,o),
(801,376,o),
(668,376,cs),
(570,376,o),
(526,340,o),
(501,310,c),
(525,268,l),
(535,294,o),
(540,314,o),
(540,335,cs),
(540,394,o),
(492,441,o),
(454,453,c),
(246,424,l),
(363,424,o),
(380,350,o),
(380,306,cs),
(380,297,o),
(377,281,o),
(375,273,c),
(422,292,l),
(393,333,o),
(350,376,o),
(256,376,cs),
(110,376,o),
(31,297,o),
(31,183,cs),
(31,62,o),
(111,-12,o),
(266,-12,cs)
);
},
{
closed = 1;
nodes = (
(247,134,o),
(220,149,o),
(220,183,cs),
(220,212,o),
(242,231,o),
(293,231,cs),
(339,231,o),
(366,214,o),
(366,182,cs),
(366,153,o),
(341,134,o),
(293,134,cs)
);
},
{
closed = 1;
nodes = (
(576,134,o),
(548,150,o),
(548,183,cs),
(548,208,o),
(569,231,o),
(621,231,cs),
(673,231,o),
(694,212,o),
(694,181,cs),
(694,151,o),
(669,134,o),
(620,134,cs)
);
},
{
closed = 1;
nodes = (
(633,418,ls),
(735,418,o),
(799,435,o),
(841,480,cs),
(867,508,o),
(883,546,o),
(883,597,cs),
(883,654,o),
(867,713,o),
(798,798,c),
(658,715,l),
(690,678,o),
(702,652,o),
(702,623,cs),
(702,606,o),
(697,594,o),
(686,587,cs),
(671,577,o),
(648,574,o),
(590,574,cs),
(32,574,l),
(32,418,l)
);
}
);
width = 914;
}
);
unicode = 3257;
},
{
glyphname = nuktaknda;
layers = (
{
anchors = (
{
name = _Anchor5;
position = "{-279, -24}";
}
);
background = {
shapes = (
{
closed = 1;
nodes = (
(-95,-215,o),
(-60,-177,o),
(-60,-128,cs),
(-60,-80,o),
(-98,-41,o),
(-155,-41,cs),
(-214,-41,o),
(-249,-80,o),
(-249,-128,cs),
(-249,-177,o),
(-219,-215,o),
(-155,-215,cs)
);
},
{
closed = 1;
nodes = (
(-345,-215,o),
(-310,-177,o),
(-310,-128,cs),
(-310,-80,o),
(-348,-41,o),
(-406,-41,cs),
(-464,-41,o),
(-501,-80,o),
(-501,-128,cs),
(-501,-177,o),
(-469,-215,o),
(-406,-215,cs)
);
}
);
};
layerId = "D8BA631F-EBB2-4072-BC3E-5C4A99E1B6C7";
shapes = (
{
closed = 1;
nodes = (
(-95,-215,o),
(-60,-177,o),
(-60,-128,cs),
(-60,-80,o),
(-98,-41,o),
(-155,-41,cs),
(-214,-41,o),
(-249,-80,o),
(-249,-128,cs),
(-249,-177,o),
(-219,-215,o),
(-155,-215,cs)
);
},
{
closed = 1;
nodes = (
(-345,-215,o),
(-310,-177,o),
(-310,-128,cs),
(-310,-80,o),
(-348,-41,o),
(-406,-41,cs),
(-464,-41,o),
(-501,-80,o),
(-501,-128,cs),
(-501,-177,o),
(-469,-215,o),
(-406,-215,cs)
);
}
);
width = 0;
}
);
unicode = 3260;
},
{
glyphname = avagrahaknda;
layers = (
{
background = {
shapes = (
{
closed = 1;
nodes = (
(446,-12,o),
(523,54,o),
(523,158,cs),
(523,264,o),
(463,321,o),
(292,372,cs),
(240,388,o),
(226,394,o),
(226,405,cs),
(226,416,o),
(235,418,o),
(256,418,cs),
(496,418,l),
(496,574,l),
(284,574,ls),
(182,574,o),
(139,563,o),
(98,539,cs),
(57,515,o),
(34,477,o),
(34,420,cs),
(34,335,o),
(84,280,o),
(237,233,cs),
(317,208,o),
(332,199,o),
(332,178,cs),
(332,160,o),
(316,148,o),
(283,148,cs),
(225,148,o),
(206,182,o),
(196,226,c),
(12,202,l),
(46,73,o),
(124,-12,o),
(290,-12,cs)
);
}
);
};
layerId = "D8BA631F-EBB2-4072-BC3E-5C4A99E1B6C7";
shapes = (
{
closed = 1;
nodes = (
(446,-12,o),
(523,54,o),
(523,158,cs),
(523,264,o),
(463,321,o),
(292,372,cs),
(240,388,o),
(226,394,o),
(226,405,cs),
(226,416,o),
(235,418,o),
(256,418,cs),
(496,418,l),
(496,574,l),
(284,574,ls),
(182,574,o),
(139,563,o),
(98,539,cs),
(57,515,o),
(34,477,o),
(34,420,cs),
(34,335,o),
(84,280,o),
(237,233,cs),
(317,208,o),
(332,199,o),
(332,178,cs),
(332,160,o),
(316,148,o),
(283,148,cs),
(225,148,o),
(206,182,o),
(196,226,c),
(12,202,l),
(46,73,o),
(124,-12,o),
(290,-12,cs)
);
}
);
width = 548;
}
);
unicode = 3261;
},
{
glyphname = aavowelsignknda;
layers = (
{
background = {
shapes = (
{
closed = 1;
nodes = (
(511,363,o),
(474,449,o),
(405,502,cs),
(344,549,o),
(273,574,o),
(107,574,cs),
(-280,574,l),
(-280,418,l),
(86,418,ls),
(197,418,o),
(237,403,o),
(274,374,cs),
(306,350,o),
(324,309,o),
(324,257,cs),
(324,184,o),
(287,135,o),
(213,135,cs),
(158,135,o),
(140,168,o),
(140,196,cs),
(140,204,o),
(140,212,o),
(143,227,c),
(123,192,l),
(144,171,o),
(164,167,o),
(185,167,cs),
(238,167,o),
(261,195,o),
(261,240,cs),
(261,292,o),
(228,328,o),
(153,328,cs),
(60,328,o),
(8,259,o),
(8,179,cs),
(8,58,o),
(90,-12,o),
(240,-12,cs),
(403,-12,o),
(511,93,o),
(511,264,cs)
);
}
);
};
layerId = "D8BA631F-EBB2-4072-BC3E-5C4A99E1B6C7";
shapes = (
{
closed = 1;
nodes = (
(511,363,o),
(474,449,o),
(405,502,cs),
(344,549,o),
(273,574,o),
(107,574,cs),
(-280,574,l),
(-280,418,l),
(86,418,ls),
(197,418,o),
(237,403,o),
(274,374,cs),
(306,350,o),
(324,309,o),
(324,257,cs),
(324,184,o),
(287,135,o),
(213,135,cs),
(158,135,o),
(140,168,o),
(140,196,cs),
(140,204,o),
(140,212,o),
(143,227,c),
(123,192,l),
(144,171,o),
(164,167,o),
(185,167,cs),
(238,167,o),
(261,195,o),
(261,240,cs),
(261,292,o),
(228,328,o),
(153,328,cs),
(60,328,o),
(8,259,o),
(8,179,cs),
(8,58,o),
(90,-12,o),
(240,-12,cs),
(403,-12,o),
(511,93,o),
(511,264,cs)
);
}
);
width = 545;
}
);
unicode = 3262;
},
{
glyphname = ivowelsignknda;
layers = (
{
background = {
shapes = (
{
closed = 1;
nodes = (
(286,295,o),
(390,367,o),
(390,519,cs),
(390,671,o),
(291,756,o),
(143,756,cs),
(25,756,o),
(-48,699,o),
(-48,612,cs),
(-48,531,o),
(13,478,o),
(131,478,cs),
(208,478,o),
(255,514,o),
(297,551,c),
(255,660,l),
(231,614,o),
(199,584,o),
(151,584,cs),
(123,584,o),
(108,597,o),
(108,617,cs),
(108,639,o),
(126,650,o),
(147,650,cs),
(206,650,o),
(236,593,o),
(236,523,cs),
(236,516,ls),
(236,450,o),
(186,427,o),
(126,427,cs),
(51,427,o),
(-13,456,o),
(-85,536,c),
(-162,456,l),
(-91,365,o),
(-1,295,o),
(147,295,cs)
);
}
);
};
layerId = "D8BA631F-EBB2-4072-BC3E-5C4A99E1B6C7";
shapes = (
{
closed = 1;
nodes = (
(286,295,o),
(390,367,o),
(390,519,cs),
(390,671,o),
(291,756,o),
(143,756,cs),
(25,756,o),
(-48,699,o),
(-48,612,cs),
(-48,531,o),
(13,478,o),
(131,478,cs),
(208,478,o),
(255,514,o),
(297,551,c),
(255,660,l),
(231,614,o),
(199,584,o),
(151,584,cs),
(123,584,o),
(108,597,o),
(108,617,cs),
(108,639,o),
(126,650,o),
(147,650,cs),
(206,650,o),
(236,593,o),
(236,523,cs),
(236,516,ls),
(236,450,o),
(186,427,o),
(126,427,cs),
(51,427,o),
(-13,456,o),
(-85,536,c),
(-162,456,l),
(-91,365,o),
(-1,295,o),
(147,295,cs)
);
}
);
width = 408;
}
);
unicode = 3263;
},
{
glyphname = uvowelsignknda;
layers = (
{
background = {
shapes = (
{
closed = 1;
nodes = (
(265,-12,o),
(350,86,o),
(350,245,cs),
(350,416,o),
(235,524,o),
(101,588,c),
(2,429,l),
(85,383,o),
(159,336,o),
(159,246,cs),
(159,183,o),
(122,151,o),
(64,151,cs),
(-6,151,o),
(-49,187,o),
(-101,246,c),
(-193,133,l),
(-106,33,o),
(-24,-12,o),
(91,-12,cs)
);
}
);
};
layerId = "D8BA631F-EBB2-4072-BC3E-5C4A99E1B6C7";
shapes = (
{
closed = 1;
nodes = (
(265,-12,o),
(350,86,o),
(350,245,cs),
(350,416,o),
(235,524,o),
(101,588,c),
(2,429,l),
(85,383,o),
(159,336,o),
(159,246,cs),
(159,183,o),
(122,151,o),
(64,151,cs),
(-6,151,o),
(-49,187,o),
(-101,246,c),
(-193,133,l),
(-106,33,o),
(-24,-12,o),
(91,-12,cs)
);
}
);
width = 383;
}
);
unicode = 3265;
},
{
glyphname = uuvowelsignknda;
layers = (
{
background = {
shapes = (
{
closed = 1;
nodes = (
(210,-12,o),
(294,41,o),
(294,177,cs),
(294,219,o),
(292,252,o),
(292,285,cs),
(292,385,o),
(352,426,o),
(456,426,cs),
(584,426,o),
(657,351,o),
(657,253,cs),
(657,181,o),
(620,135,o),
(548,135,cs),
(491,135,o),
(473,168,o),
(473,196,cs),
(473,204,o),
(473,212,o),
(476,227,c),
(456,192,l),
(477,171,o),
(497,167,o),
(518,167,cs),
(571,167,o),
(594,195,o),
(594,240,cs),
(594,292,o),
(561,328,o),
(486,328,cs),
(393,328,o),
(341,259,o),
(341,179,cs),
(341,58,o),
(423,-12,o),
(573,-12,cs),
(745,-12,o),
(844,97,o),
(844,258,cs),
(844,420,o),
(734,586,o),
(448,586,cs),
(256,586,o),
(104,505,o),
(104,322,cs),
(104,281,o),
(109,248,o),
(109,211,cs),
(109,162,o),
(81,150,o),
(46,150,cs),
(-12,150,o),
(-53,186,o),
(-101,243,c),
(-198,127,l),
(-119,38,o),
(-43,-12,o),
(75,-12,cs)
);
}
);
};
layerId = "D8BA631F-EBB2-4072-BC3E-5C4A99E1B6C7";
shapes = (
{
closed = 1;
nodes = (
(210,-12,o),
(294,41,o),
(294,177,cs),
(294,219,o),
(292,252,o),
(292,285,cs),
(292,385,o),
(352,426,o),
(456,426,cs),
(584,426,o),
(657,351,o),
(657,253,cs),
(657,181,o),
(620,135,o),
(548,135,cs),
(491,135,o),
(473,168,o),
(473,196,cs),
(473,204,o),
(473,212,o),
(476,227,c),
(456,192,l),
(477,171,o),
(497,167,o),
(518,167,cs),
(571,167,o),
(594,195,o),
(594,240,cs),
(594,292,o),
(561,328,o),
(486,328,cs),
(393,328,o),
(341,259,o),
(341,179,cs),
(341,58,o),
(423,-12,o),
(573,-12,cs),
(745,-12,o),
(844,97,o),
(844,258,cs),
(844,420,o),
(734,586,o),
(448,586,cs),
(256,586,o),
(104,505,o),
(104,322,cs),
(104,281,o),
(109,248,o),
(109,211,cs),
(109,162,o),
(81,150,o),
(46,150,cs),
(-12,150,o),
(-53,186,o),
(-101,243,c),
(-198,127,l),
(-119,38,o),
(-43,-12,o),
(75,-12,cs)
);
}
);
width = 876;
}
);
unicode = 3266;
},
{
glyphname = rvocalicvowelsignknda;
layers = (
{
background = {
shapes = (
{
closed = 1;
nodes = (
(86,-422,o),
(177,-336,o),
(177,-152,cs),
(177,-73,o),
(153,4,o),
(103,85,c),
(2,41,l),
(41,-21,o),
(61,-85,o),
(61,-161,cs),
(61,-294,o),
(-22,-318,o),
(-106,-318,cs),
(-187,-318,o),
(-225,-283,o),
(-225,-233,cs),
(-225,-223,ls),
(-225,-154,o),
(-190,-139,o),
(-165,-139,cs),
(-142,-139,o),
(-132,-152,o),
(-132,-167,cs),
(-132,-194,o),
(-155,-200,o),
(-183,-200,cs),
(-205,-200,o),
(-225,-193,o),
(-244,-182,c),
(-261,-262,l),
(-244,-273,o),
(-199,-287,o),
(-159,-287,cs),
(-74,-287,o),
(-20,-256,o),
(-20,-169,cs),
(-20,-114,o),
(-53,-48,o),
(-154,-48,cs),
(-262,-48,o),
(-329,-120,o),
(-329,-227,cs),
(-329,-340,o),
(-244,-422,o),
(-97,-422,cs)
);
}
);
};
layerId = "D8BA631F-EBB2-4072-BC3E-5C4A99E1B6C7";
shapes = (
{
closed = 1;
nodes = (
(86,-422,o),
(177,-336,o),
(177,-152,cs),
(177,-73,o),
(153,4,o),
(103,85,c),
(2,41,l),
(41,-21,o),
(61,-85,o),
(61,-161,cs),
(61,-294,o),
(-22,-318,o),
(-106,-318,cs),
(-187,-318,o),
(-225,-283,o),
(-225,-233,cs),
(-225,-223,ls),
(-225,-154,o),
(-190,-139,o),
(-165,-139,cs),
(-142,-139,o),
(-132,-152,o),
(-132,-167,cs),
(-132,-194,o),
(-155,-200,o),
(-183,-200,cs),
(-205,-200,o),
(-225,-193,o),
(-244,-182,c),
(-261,-262,l),
(-244,-273,o),
(-199,-287,o),
(-159,-287,cs),
(-74,-287,o),
(-20,-256,o),
(-20,-169,cs),
(-20,-114,o),
(-53,-48,o),
(-154,-48,cs),
(-262,-48,o),
(-329,-120,o),
(-329,-227,cs),
(-329,-340,o),
(-244,-422,o),
(-97,-422,cs)
);
}
);
width = 152;
}
);
unicode = 3267;
},
{
glyphname = rrvocalicvowelsignknda;
layers = (
{
background = {
shapes = (
{
closed = 1;
nodes = (
(86,-422,o),
(177,-336,o),
(177,-152,cs),
(177,-101,o),
(166,-49,o),
(142,2,c),
(69,82,l),
(17,16,l),
(46,-38,o),
(61,-95,o),
(61,-161,cs),
(61,-294,o),
(-22,-318,o),
(-106,-318,cs),
(-187,-318,o),
(-225,-283,o),
(-225,-233,cs),
(-225,-223,ls),
(-225,-154,o),
(-190,-139,o),
(-165,-139,cs),
(-142,-139,o),
(-132,-152,o),
(-132,-167,cs),
(-132,-194,o),
(-155,-200,o),
(-183,-200,cs),
(-205,-200,o),
(-225,-193,o),
(-244,-182,c),
(-261,-262,l),
(-244,-273,o),
(-199,-287,o),
(-159,-287,cs),
(-74,-287,o),
(-20,-256,o),
(-20,-169,cs),
(-20,-114,o),
(-53,-48,o),
(-154,-48,cs),
(-262,-48,o),
(-329,-120,o),
(-329,-227,cs),
(-329,-340,o),
(-244,-422,o),
(-97,-422,cs)
);
},
{
closed = 1;
nodes = (
(474,-357,o),
(564,-290,o),
(564,-157,cs),
(564,-80,o),
(542,-20,o),
(498,20,cs),
(453,61,o),
(392,82,o),
(274,82,cs),
(69,82,l),
(135,-22,l),
(239,-22,ls),
(330,-22,o),
(369,-29,o),
(401,-52,cs),
(431,-73,o),
(448,-106,o),
(448,-158,cs),
(448,-212,o),
(423,-257,o),
(364,-257,cs),
(321,-257,o),
(302,-235,o),
(302,-206,cs),
(302,-199,o),
(302,-189,o),
(303,-179,c),
(287,-203,l),
(301,-221,o),
(319,-226,o),
(337,-226,cs),
(372,-226,o),
(391,-201,o),
(391,-166,cs),
(391,-128,o),
(366,-101,o),
(311,-101,cs),
(242,-101,o),
(202,-152,o),
(202,-212,cs),
(202,-304,o),
(268,-357,o),
(373,-357,cs)
);
}
);
};
layerId = "D8BA631F-EBB2-4072-BC3E-5C4A99E1B6C7";
shapes = (
{
closed = 1;
nodes = (
(86,-422,o),
(177,-336,o),
(177,-152,cs),
(177,-101,o),
(166,-49,o),
(142,2,c),
(69,82,l),
(17,16,l),
(46,-38,o),
(61,-95,o),
(61,-161,cs),
(61,-294,o),
(-22,-318,o),
(-106,-318,cs),
(-187,-318,o),
(-225,-283,o),
(-225,-233,cs),
(-225,-223,ls),
(-225,-154,o),
(-190,-139,o),
(-165,-139,cs),
(-142,-139,o),
(-132,-152,o),
(-132,-167,cs),
(-132,-194,o),
(-155,-200,o),
(-183,-200,cs),
(-205,-200,o),
(-225,-193,o),
(-244,-182,c),
(-261,-262,l),
(-244,-273,o),
(-199,-287,o),
(-159,-287,cs),
(-74,-287,o),
(-20,-256,o),
(-20,-169,cs),
(-20,-114,o),
(-53,-48,o),
(-154,-48,cs),
(-262,-48,o),
(-329,-120,o),
(-329,-227,cs),
(-329,-340,o),
(-244,-422,o),
(-97,-422,cs)
);
},
{
closed = 1;
nodes = (
(474,-357,o),
(564,-290,o),
(564,-157,cs),
(564,-80,o),
(542,-20,o),
(498,20,cs),
(453,61,o),
(392,82,o),
(274,82,cs),
(69,82,l),
(135,-22,l),
(239,-22,ls),
(330,-22,o),
(369,-29,o),
(401,-52,cs),
(431,-73,o),
(448,-106,o),
(448,-158,cs),
(448,-212,o),
(423,-257,o),
(364,-257,cs),
(321,-257,o),
(302,-235,o),
(302,-206,cs),
(302,-199,o),
(302,-189,o),
(303,-179,c),
(287,-203,l),
(301,-221,o),
(319,-226,o),
(337,-226,cs),
(372,-226,o),
(391,-201,o),
(391,-166,cs),
(391,-128,o),
(366,-101,o),
(311,-101,cs),
(242,-101,o),
(202,-152,o),
(202,-212,cs),
(202,-304,o),
(268,-357,o),
(373,-357,cs)
);
}
);
width = 525;
}
);
unicode = 3268;
},
{
glyphname = rvocalicvowelsignUIknda;
layers = (
{
background = {
shapes = (
{
closed = 1;
nodes = (
(86,-364,o),
(177,-285,o),
(177,-116,cs),
(177,-47,o),
(153,27,o),
(103,102,c),
(2,57,l),
(41,-1,o),
(61,-57,o),
(61,-122,cs),
(61,-247,o),
(-22,-265,o),
(-106,-265,cs),
(-191,-265,o),
(-227,-240,o),
(-227,-191,cs),
(-227,-181,ls),
(-227,-119,o),
(-190,-108,o),
(-166,-108,cs),
(-142,-108,o),
(-132,-118,o),
(-132,-132,cs),
(-132,-156,o),
(-155,-160,o),
(-183,-160,cs),
(-205,-160,o),
(-225,-154,o),
(-244,-144,c),
(-261,-217,l),
(-244,-227,o),
(-199,-244,o),
(-157,-244,cs),
(-74,-244,o),
(-20,-212,o),
(-20,-132,cs),
(-20,-81,o),
(-53,-20,o),
(-154,-20,cs),
(-262,-20,o),
(-329,-85,o),
(-329,-185,cs),
(-329,-293,o),
(-244,-364,o),
(-97,-364,cs)
);
}
);
};
layerId = "D8BA631F-EBB2-4072-BC3E-5C4A99E1B6C7";
shapes = (
{
closed = 1;
nodes = (
(86,-364,o),
(177,-285,o),
(177,-116,cs),
(177,-47,o),
(153,27,o),
(103,102,c),
(2,57,l),
(41,-1,o),
(61,-57,o),
(61,-122,cs),
(61,-247,o),
(-22,-265,o),
(-106,-265,cs),
(-191,-265,o),
(-227,-240,o),
(-227,-191,cs),
(-227,-181,ls),
(-227,-119,o),
(-190,-108,o),
(-166,-108,cs),
(-142,-108,o),
(-132,-118,o),
(-132,-132,cs),
(-132,-156,o),
(-155,-160,o),
(-183,-160,cs),
(-205,-160,o),
(-225,-154,o),
(-244,-144,c),
(-261,-217,l),
(-244,-227,o),
(-199,-244,o),
(-157,-244,cs),
(-74,-244,o),
(-20,-212,o),
(-20,-132,cs),
(-20,-81,o),
(-53,-20,o),
(-154,-20,cs),
(-262,-20,o),
(-329,-85,o),
(-329,-185,cs),
(-329,-293,o),
(-244,-364,o),
(-97,-364,cs)
);
}
);
width = 159;
}
);
},
{
glyphname = rrvocalicvowelsignUIknda;
layers = (
{
background = {
shapes = (
{
closed = 1;
nodes = (
(86,-364,o),
(177,-285,o),
(177,-116,cs),
(177,-61,o),
(163,-18,o),
(142,21,c),
(69,98,l),
(17,32,l),
(46,-20,o),
(61,-56,o),
(61,-122,cs),
(61,-247,o),
(-22,-265,o),
(-106,-265,cs),
(-191,-265,o),
(-227,-240,o),
(-227,-191,cs),
(-227,-181,ls),
(-227,-119,o),
(-190,-108,o),
(-166,-108,cs),
(-142,-108,o),
(-132,-118,o),
(-132,-132,cs),
(-132,-156,o),
(-155,-160,o),
(-183,-160,cs),
(-205,-160,o),
(-225,-154,o),
(-244,-144,c),
(-261,-217,l),
(-244,-227,o),
(-199,-244,o),
(-157,-244,cs),
(-74,-244,o),
(-20,-212,o),
(-20,-132,cs),
(-20,-81,o),
(-53,-20,o),
(-154,-20,cs),
(-262,-20,o),
(-329,-85,o),
(-329,-185,cs),
(-329,-293,o),
(-244,-364,o),
(-97,-364,cs)
);
},
{
closed = 1;
nodes = (
(474,-331,o),
(564,-266,o),
(564,-136,cs),
(564,-64,o),
(542,-4,o),
(498,36,cs),
(453,77,o),
(392,98,o),
(274,98,cs),
(69,98,l),
(135,-2,l),
(239,-2,ls),
(330,-2,o),
(369,-9,o),
(401,-32,cs),
(431,-53,o),
(448,-86,o),
(448,-136,cs),
(448,-189,o),
(423,-234,o),
(364,-234,cs),
(321,-234,o),
(302,-212,o),
(302,-180,cs),
(302,-173,o),
(302,-163,o),
(303,-153,c),
(287,-177,l),
(301,-195,o),
(319,-200,o),
(337,-200,cs),
(372,-200,o),
(391,-175,o),
(391,-140,cs),
(391,-102,o),
(366,-75,o),
(311,-75,cs),
(242,-75,o),
(202,-126,o),
(202,-186,cs),
(202,-278,o),
(268,-331,o),
(373,-331,cs)
);
}
);
};
layerId = "D8BA631F-EBB2-4072-BC3E-5C4A99E1B6C7";
shapes = (
{
closed = 1;
nodes = (
(86,-364,o),
(177,-285,o),
(177,-116,cs),
(177,-61,o),
(163,-18,o),
(142,21,c),
(69,98,l),
(17,32,l),
(46,-20,o),
(61,-56,o),
(61,-122,cs),
(61,-247,o),
(-22,-265,o),
(-106,-265,cs),
(-191,-265,o),
(-227,-240,o),
(-227,-191,cs),
(-227,-181,ls),
(-227,-119,o),
(-190,-108,o),
(-166,-108,cs),
(-142,-108,o),
(-132,-118,o),
(-132,-132,cs),
(-132,-156,o),
(-155,-160,o),
(-183,-160,cs),
(-205,-160,o),
(-225,-154,o),
(-244,-144,c),
(-261,-217,l),
(-244,-227,o),
(-199,-244,o),
(-157,-244,cs),
(-74,-244,o),
(-20,-212,o),
(-20,-132,cs),
(-20,-81,o),
(-53,-20,o),
(-154,-20,cs),
(-262,-20,o),
(-329,-85,o),
(-329,-185,cs),
(-329,-293,o),
(-244,-364,o),
(-97,-364,cs)
);
},
{
closed = 1;
nodes = (
(474,-331,o),
(564,-266,o),
(564,-136,cs),
(564,-64,o),
(542,-4,o),
(498,36,cs),
(453,77,o),
(392,98,o),
(274,98,cs),
(69,98,l),
(135,-2,l),
(239,-2,ls),
(330,-2,o),
(369,-9,o),
(401,-32,cs),
(431,-53,o),
(448,-86,o),
(448,-136,cs),
(448,-189,o),
(423,-234,o),
(364,-234,cs),
(321,-234,o),
(302,-212,o),
(302,-180,cs),
(302,-173,o),
(302,-163,o),
(303,-153,c),
(287,-177,l),
(301,-195,o),
(319,-200,o),
(337,-200,cs),
(372,-200,o),
(391,-175,o),
(391,-140,cs),
(391,-102,o),
(366,-75,o),
(311,-75,cs),
(242,-75,o),
(202,-126,o),
(202,-186,cs),
(202,-278,o),
(268,-331,o),
(373,-331,cs)
);
}
);
width = 530;
}
);
},
{
glyphname = evowelsignknda;
layers = (
{
background = {
shapes = (
{
closed = 1;
nodes = (
(-323,418,ls),
(-244,418,o),
(-161,423,o),
(-106,460,cs),
(-64,488,o),
(-30,532,o),
(-30,614,cs),
(-30,719,o),
(-105,809,o),
(-248,809,cs),
(-383,809,o),
(-432,740,o),
(-432,680,cs),
(-432,623,o),
(-402,592,o),
(-347,592,cs),
(-293,592,o),
(-266,611,o),
(-266,651,cs),
(-266,684,o),
(-294,702,o),
(-330,702,cs),
(-345,702,o),
(-363,697,o),
(-374,682,c),
(-309,617,l),
(-312,627,o),
(-312,636,o),
(-312,644,cs),
(-312,677,o),
(-287,693,o),
(-260,693,cs),
(-213,693,o),
(-198,667,o),
(-198,638,cs),
(-198,618,o),
(-207,601,o),
(-223,591,cs),
(-245,577,o),
(-275,574,o),
(-324,574,cs),
(-509,574,l),
(-509,418,l)
);
}
);
};
layerId = "D8BA631F-EBB2-4072-BC3E-5C4A99E1B6C7";
shapes = (
{
closed = 1;
nodes = (
(-323,418,ls),
(-244,418,o),
(-161,423,o),
(-106,460,cs),
(-64,488,o),
(-30,532,o),
(-30,614,cs),
(-30,719,o),
(-105,809,o),
(-248,809,cs),
(-383,809,o),
(-432,740,o),
(-432,680,cs),
(-432,623,o),
(-402,592,o),
(-347,592,cs),
(-293,592,o),
(-266,611,o),
(-266,651,cs),
(-266,684,o),
(-294,702,o),
(-330,702,cs),
(-345,702,o),
(-363,697,o),
(-374,682,c),
(-309,617,l),
(-312,627,o),
(-312,636,o),
(-312,644,cs),
(-312,677,o),
(-287,693,o),
(-260,693,cs),
(-213,693,o),
(-198,667,o),
(-198,638,cs),
(-198,618,o),
(-207,601,o),
(-223,591,cs),
(-245,577,o),
(-275,574,o),
(-324,574,cs),
(-509,574,l),
(-509,418,l)
);
}
);
width = 0;
}
);
unicode = 3270;
},
{
glyphname = auvowelsignknda;
layers = (
{
background = {
shapes = (
{
closed = 1;
nodes = (
(26,612,o),
(13,658,o),
(-8,690,c),
(-183,678,l),
(-166,660,o),
(-148,634,o),
(-148,608,cs),
(-148,597,o),
(-152,590,o),
(-158,585,cs),
(-168,577,o),
(-180,574,o),
(-223,574,cs),
(-280,574,l),
(-280,418,l),
(-187,418,ls),
(-108,418,o),
(-56,426,o),
(-14,470,cs),
(7,492,o),
(26,529,o),
(26,576,cs)
);
},
{
closed = 1;
nodes = (
(517,582,o),
(479,668,o),
(410,721,cs),
(349,768,o),
(279,792,o),
(118,792,cs),
(-324,792,l),
(-324,638,l),
(90,638,ls),
(200,638,o),
(243,622,o),
(280,593,cs),
(312,569,o),
(330,528,o),
(330,476,cs),
(330,403,o),
(293,354,o),
(219,354,cs),
(164,354,o),
(146,387,o),
(146,415,cs),
(146,422,o),
(146,431,o),
(149,446,c),
(129,411,l),
(150,390,o),
(170,386,o),
(191,386,cs),
(244,386,o),
(267,414,o),
(267,459,cs),
(267,511,o),
(234,547,o),
(159,547,cs),
(66,547,o),
(14,478,o),
(14,398,cs),
(14,277,o),
(96,207,o),
(246,207,cs),
(409,207,o),
(517,312,o),
(517,483,cs)
);
}
);
};
layerId = "D8BA631F-EBB2-4072-BC3E-5C4A99E1B6C7";
shapes = (
{
closed = 1;
nodes = (
(26,612,o),
(13,658,o),
(-8,690,c),
(-183,678,l),
(-166,660,o),
(-148,634,o),
(-148,608,cs),
(-148,597,o),
(-152,590,o),
(-158,585,cs),
(-168,577,o),
(-180,574,o),
(-223,574,cs),
(-280,574,l),
(-280,418,l),
(-187,418,ls),
(-108,418,o),
(-56,426,o),
(-14,470,cs),
(7,492,o),
(26,529,o),
(26,576,cs)
);
},
{
closed = 1;
nodes = (
(517,582,o),
(479,668,o),
(410,721,cs),
(349,768,o),
(279,792,o),
(118,792,cs),
(-324,792,l),
(-324,638,l),
(90,638,ls),
(200,638,o),
(243,622,o),
(280,593,cs),
(312,569,o),
(330,528,o),
(330,476,cs),
(330,403,o),
(293,354,o),
(219,354,cs),
(164,354,o),
(146,387,o),
(146,415,cs),
(146,422,o),
(146,431,o),
(149,446,c),
(129,411,l),
(150,390,o),
(170,386,o),
(191,386,cs),
(244,386,o),
(267,414,o),
(267,459,cs),
(267,511,o),
(234,547,o),
(159,547,cs),
(66,547,o),
(14,478,o),
(14,398,cs),
(14,277,o),
(96,207,o),
(246,207,cs),
(409,207,o),
(517,312,o),
(517,483,cs)
);
}
);
width = 541;
}
);
unicode = 3276;
},
{
glyphname = viramaknda;
layers = (
{
background = {
shapes = (
{
closed = 1;
nodes = (
(305,228,o),
(378,288,o),
(378,396,cs),
(378,453,o),
(356,494,o),
(322,523,cs),
(278,559,o),
(224,574,o),
(144,574,cs),
(-200,574,l),
(-200,418,l),
(155,418,ls),
(185,418,o),
(206,415,o),
(218,406,cs),
(226,400,o),
(231,391,o),
(231,378,cs),
(231,355,o),
(218,343,o),
(195,343,cs),
(161,343,o),
(144,375,o),
(144,423,cs),
(144,485,ls),
(144,563,o),
(176,614,o),
(247,614,cs),
(285,614,o),
(311,606,o),
(341,589,c),
(414,698,l),
(368,722,o),
(320,738,o),
(240,738,cs),
(103,738,o),
(-7,650,o),
(-7,479,cs),
(-7,448,ls),
(-7,302,o),
(73,228,o),
(202,228,cs)
);
}
);
};
layerId = "D8BA631F-EBB2-4072-BC3E-5C4A99E1B6C7";
shapes = (
{
closed = 1;
nodes = (
(305,228,o),
(378,288,o),
(378,396,cs),
(378,453,o),
(356,494,o),
(322,523,cs),
(278,559,o),
(224,574,o),
(144,574,cs),
(-200,574,l),
(-200,418,l),
(155,418,ls),
(185,418,o),
(206,415,o),
(218,406,cs),
(226,400,o),
(231,391,o),
(231,378,cs),
(231,355,o),
(218,343,o),
(195,343,cs),
(161,343,o),
(144,375,o),
(144,423,cs),
(144,485,ls),
(144,563,o),
(176,614,o),
(247,614,cs),
(285,614,o),
(311,606,o),
(341,589,c),
(414,698,l),
(368,722,o),
(320,738,o),
(240,738,cs),
(103,738,o),
(-7,650,o),
(-7,479,cs),
(-7,448,ls),
(-7,302,o),
(73,228,o),
(202,228,cs)
);
}
);
width = 395;
}
);
unicode = 3277;
},
{
glyphname = lengthmarkknda;
layers = (
{
background = {
shapes = (
{
closed = 1;
nodes = (
(498,513,o),
(422,586,o),
(286,586,cs),
(131,586,o),
(25,488,o),
(25,324,cs),
(25,160,o),
(113,59,o),
(249,-12,c),
(351,129,l),
(263,179,o),
(204,230,o),
(204,300,cs),
(204,346,ls),
(204,416,o),
(241,456,o),
(281,456,cs),
(306,456,o),
(320,442,o),
(320,418,cs),
(320,385,o),
(296,368,o),
(249,368,cs),
(188,368,o),
(149,418,o),
(134,445,c),
(115,318,l),
(154,279,o),
(212,243,o),
(303,243,cs),
(431,243,o),
(498,301,o),
(498,413,cs)
);
}
);
};
layerId = "D8BA631F-EBB2-4072-BC3E-5C4A99E1B6C7";
shapes = (
{
closed = 1;
nodes = (
(498,513,o),
(422,586,o),
(286,586,cs),
(131,586,o),
(25,488,o),
(25,324,cs),
(25,160,o),
(113,59,o),
(249,-12,c),
(351,129,l),
(263,179,o),
(204,230,o),
(204,300,cs),
(204,346,ls),
(204,416,o),
(241,456,o),
(281,456,cs),
(306,456,o),
(320,442,o),
(320,418,cs),
(320,385,o),
(296,368,o),
(249,368,cs),
(188,368,o),
(149,418,o),
(134,445,c),
(115,318,l),
(154,279,o),
(212,243,o),
(303,243,cs),
(431,243,o),
(498,301,o),
(498,413,cs)
);
}
);
width = 519;
}
);
unicode = 3285;
},
{
glyphname = ailengthmarkknda;
layers = (
{
background = {
shapes = (
{
closed = 1;
nodes = (
(90,-422,o),
(184,-332,o),
(184,-194,cs),
(184,-118,o),
(157,-58,o),
(121,-19,c),
(132,-51,l),
(159,-31,o),
(179,7,o),
(179,57,cs),
(179,120,o),
(149,161,o),
(86,214,c),
(3,136,l),
(43,105,o),
(57,79,o),
(57,49,cs),
(57,15,o),
(39,-7,o),
(-1,-39,c),
(43,-80,o),
(68,-127,o),
(68,-190,cs),
(68,-286,o),
(-20,-318,o),
(-93,-318,cs),
(-191,-318,o),
(-225,-283,o),
(-225,-233,cs),
(-225,-223,ls),
(-225,-154,o),
(-190,-139,o),
(-165,-139,cs),
(-142,-139,o),
(-132,-152,o),
(-132,-167,cs),
(-132,-194,o),
(-155,-200,o),
(-183,-200,cs),
(-205,-200,o),
(-225,-193,o),
(-244,-182,c),
(-261,-262,l),
(-244,-273,o),
(-199,-287,o),
(-166,-287,cs),
(-74,-287,o),
(-20,-256,o),
(-20,-169,cs),
(-20,-114,o),
(-53,-48,o),
(-154,-48,cs),
(-262,-48,o),
(-329,-120,o),
(-329,-227,cs),
(-329,-340,o),
(-246,-422,o),
(-90,-422,cs)
);
}
);
};
layerId = "D8BA631F-EBB2-4072-BC3E-5C4A99E1B6C7";
shapes = (
{
closed = 1;
nodes = (
(90,-422,o),
(184,-332,o),
(184,-194,cs),
(184,-118,o),
(157,-58,o),
(121,-19,c),
(132,-51,l),
(159,-31,o),
(179,7,o),
(179,57,cs),
(179,120,o),
(149,161,o),
(86,214,c),
(3,136,l),
(43,105,o),
(57,79,o),
(57,49,cs),
(57,15,o),
(39,-7,o),
(-1,-39,c),
(43,-80,o),
(68,-127,o),
(68,-190,cs),
(68,-286,o),
(-20,-318,o),
(-93,-318,cs),
(-191,-318,o),
(-225,-283,o),
(-225,-233,cs),
(-225,-223,ls),
(-225,-154,o),
(-190,-139,o),
(-165,-139,cs),
(-142,-139,o),
(-132,-152,o),
(-132,-167,cs),
(-132,-194,o),
(-155,-200,o),
(-183,-200,cs),
(-205,-200,o),
(-225,-193,o),
(-244,-182,c),
(-261,-262,l),
(-244,-273,o),
(-199,-287,o),
(-166,-287,cs),
(-74,-287,o),
(-20,-256,o),
(-20,-169,cs),
(-20,-114,o),
(-53,-48,o),
(-154,-48,cs),
(-262,-48,o),
(-329,-120,o),
(-329,-227,cs),
(-329,-340,o),
(-246,-422,o),
(-90,-422,cs)
);
}
);
width = 195;
}
);
unicode = 3286;
},
{
glyphname = ailengthmarkUIknda;
layers = (
{
background = {
shapes = (
{
closed = 1;
nodes = (
(90,-364,o),
(184,-283,o),
(184,-158,cs),
(184,-89,o),
(157,-35,o),
(121,0,c),
(132,-32,l),
(159,-13,o),
(179,24,o),
(179,72,cs),
(179,133,o),
(149,172,o),
(86,223,c),
(3,145,l),
(43,116,o),
(57,91,o),
(57,63,cs),
(57,31,o),
(39,10,o),
(-1,-20,c),
(43,-56,o),
(68,-97,o),
(68,-152,cs),
(68,-236,o),
(-20,-265,o),
(-93,-265,cs),
(-192,-265,o),
(-227,-240,o),
(-227,-191,cs),
(-227,-181,ls),
(-227,-119,o),
(-190,-108,o),
(-166,-108,cs),
(-142,-108,o),
(-132,-118,o),
(-132,-132,cs),
(-132,-156,o),
(-155,-160,o),
(-183,-160,cs),
(-205,-160,o),
(-225,-154,o),
(-244,-144,c),
(-261,-217,l),
(-244,-227,o),
(-199,-244,o),
(-164,-244,cs),
(-74,-244,o),
(-20,-212,o),
(-20,-132,cs),
(-20,-81,o),
(-53,-20,o),
(-154,-20,cs),
(-262,-20,o),
(-329,-85,o),
(-329,-185,cs),
(-329,-293,o),
(-245,-364,o),
(-90,-364,cs)
);
}
);
};
layerId = "D8BA631F-EBB2-4072-BC3E-5C4A99E1B6C7";
shapes = (
{
closed = 1;
nodes = (
(90,-364,o),
(184,-283,o),
(184,-158,cs),
(184,-89,o),
(157,-35,o),
(121,0,c),
(132,-32,l),
(159,-13,o),
(179,24,o),
(179,72,cs),
(179,133,o),
(149,172,o),
(86,223,c),
(3,145,l),
(43,116,o),
(57,91,o),
(57,63,cs),
(57,31,o),
(39,10,o),
(-1,-20,c),
(43,-56,o),
(68,-97,o),
(68,-152,cs),
(68,-236,o),
(-20,-265,o),
(-93,-265,cs),
(-192,-265,o),
(-227,-240,o),
(-227,-191,cs),
(-227,-181,ls),
(-227,-119,o),
(-190,-108,o),
(-166,-108,cs),
(-142,-108,o),
(-132,-118,o),
(-132,-132,cs),
(-132,-156,o),
(-155,-160,o),
(-183,-160,cs),
(-205,-160,o),
(-225,-154,o),
(-244,-144,c),
(-261,-217,l),
(-244,-227,o),
(-199,-244,o),
(-164,-244,cs),
(-74,-244,o),
(-20,-212,o),
(-20,-132,cs),
(-20,-81,o),
(-53,-20,o),
(-154,-20,cs),
(-262,-20,o),
(-329,-85,o),
(-329,-185,cs),
(-329,-293,o),
(-245,-364,o),
(-90,-364,cs)
);
}
);
width = 195;
}
);
},
{
glyphname = faknda;
layers = (
{
anchors = (
{
name = Anchor5;
position = "{514, -24}";
}
);
background = {
shapes = (
{
closed = 1;
nodes = (
(412,-12,o),
(478,16,o),
(557,118,c),
(472,118,l),
(551,16,o),
(616,-12,o),
(733,-12,cs),
(914,-12,o),
(997,121,o),
(997,277,cs),
(997,479,o),
(882,586,o),
(726,586,cs),
(599,586,o),
(530,515,o),
(530,410,cs),
(530,314,o),
(583,245,o),
(728,245,cs),
(799,245,o),
(868,273,o),
(908,313,c),
(869,440,l),
(854,413,o),
(812,368,o),
(759,368,cs),
(716,368,o),
(690,385,o),
(690,418,cs),
(690,442,o),
(704,456,o),
(728,456,cs),
(772,456,o),
(815,411,o),
(815,286,cs),
(815,205,o),
(784,150,o),
(708,150,cs),
(648,150,o),
(610,180,o),
(598,238,c),
(430,238,l),
(419,180,o),
(381,150,o),
(321,150,cs),
(245,150,o),
(214,203,o),
(214,285,cs),
(214,411,o),
(257,456,o),
(301,456,cs),
(325,456,o),
(339,442,o),
(339,418,cs),
(339,385,o),
(313,368,o),
(270,368,cs),
(217,368,o),
(175,413,o),
(160,440,c),
(121,313,l),
(161,273,o),
(230,245,o),
(301,245,cs),
(446,245,o),
(499,314,o),
(499,410,cs),
(499,515,o),
(430,586,o),
(303,586,cs),
(147,586,o),
(32,479,o),
(32,277,cs),
(32,121,o),
(117,-12,o),
(294,-12,cs)
);
}
);
};
layerId = "D8BA631F-EBB2-4072-BC3E-5C4A99E1B6C7";
shapes = (
{
closed = 1;
nodes = (
(412,-12,o),
(478,16,o),
(557,118,c),
(472,118,l),
(551,16,o),
(616,-12,o),
(733,-12,cs),
(914,-12,o),
(997,121,o),
(997,277,cs),
(997,479,o),
(882,586,o),
(726,586,cs),
(599,586,o),
(530,515,o),
(530,410,cs),
(530,314,o),
(583,245,o),
(728,245,cs),
(799,245,o),
(868,273,o),
(908,313,c),
(869,440,l),
(854,413,o),
(812,368,o),
(759,368,cs),
(716,368,o),
(690,385,o),
(690,418,cs),
(690,442,o),
(704,456,o),
(728,456,cs),
(772,456,o),
(815,411,o),
(815,286,cs),
(815,205,o),
(784,150,o),
(708,150,cs),
(648,150,o),
(610,180,o),
(598,238,c),
(430,238,l),
(419,180,o),
(381,150,o),
(321,150,cs),
(245,150,o),
(214,203,o),
(214,285,cs),
(214,411,o),
(257,456,o),
(301,456,cs),
(325,456,o),
(339,442,o),
(339,418,cs),
(339,385,o),
(313,368,o),
(270,368,cs),
(217,368,o),
(175,413,o),
(160,440,c),
(121,313,l),
(161,273,o),
(230,245,o),
(301,245,cs),
(446,245,o),
(499,314,o),
(499,410,cs),
(499,515,o),
(430,586,o),
(303,586,cs),
(147,586,o),
(32,479,o),
(32,277,cs),
(32,121,o),
(117,-12,o),
(294,-12,cs)
);
}
);
width = 1029;
}
);
unicode = 3294;
},
{
glyphname = rrvocalicknda;
layers = (
{
anchors = (
{
name = Anchor5;
position = "{930, -24}";
}
);
background = {
shapes = (
{
closed = 1;
nodes = (
(486,-12,o),
(563,120,o),
(563,287,cs),
(563,434,o),
(469,586,o),
(240,586,cs),
(90,586,o),
(22,518,o),
(22,437,cs),
(22,328,o),
(112,291,o),
(199,291,cs),
(298,291,o),
(363,332,o),
(363,415,cs),
(363,431,o),
(358,455,o),
(342,477,c),
(225,470,l),
(244,466,o),
(259,453,o),
(259,434,cs),
(259,418,o),
(243,409,o),
(216,409,cs),
(190,409,o),
(177,418,o),
(177,434,cs),
(177,454,o),
(192,463,o),
(221,463,cs),
(249,463,o),
(273,458,o),
(293,450,cs),
(304,445,o),
(316,440,o),
(325,433,cs),
(362,405,o),
(379,353,o),
(379,288,cs),
(379,217,o),
(371,170,o),
(341,141,cs),
(333,133,o),
(323,129,o),
(311,124,cs),
(291,115,o),
(265,111,o),
(232,111,cs),
(188,111,o),
(181,125,o),
(181,140,cs),
(181,154,o),
(193,165,o),
(222,165,cs),
(247,165,o),
(263,153,o),
(263,135,cs),
(263,122,o),
(256,105,o),
(239,97,c),
(345,96,l),
(360,117,o),
(367,141,o),
(367,159,cs),
(367,245,o),
(299,283,o),
(201,283,cs),
(108,283,o),
(26,239,o),
(26,143,cs),
(26,50,o),
(104,-12,o),
(247,-12,cs)
);
},
{
closed = 1;
nodes = (
(882,-12,o),
(950,86,o),
(950,218,cs),
(950,374,o),
(840,480,o),
(678,542,c),
(610,427,l),
(704,393,o),
(760,322,o),
(760,241,cs),
(760,179,o),
(724,150,o),
(661,150,cs),
(602,150,o),
(562,181,o),
(518,247,c),
(416,132,l),
(503,32,o),
(590,-12,o),
(681,-12,cs)
);
},
{
closed = 1;
nodes = (
(700,418,ls),
(802,418,o),
(866,435,o),
(908,480,cs),
(934,508,o),
(950,546,o),
(950,597,cs),
(950,654,o),
(934,713,o),
(865,798,c),
(725,715,l),
(757,678,o),
(769,652,o),
(769,623,cs),
(769,606,o),
(764,594,o),
(753,587,cs),
(738,577,o),
(715,574,o),
(657,574,cs),
(567,574,l),
(567,418,l)
);
},
{
alignment = -1;
pos = (984,0);
ref = uuvowelsignknda;
}
);
};
layerId = "D8BA631F-EBB2-4072-BC3E-5C4A99E1B6C7";
shapes = (
{
closed = 1;
nodes = (
(486,-12,o),
(563,120,o),
(563,287,cs),
(563,434,o),
(469,586,o),
(240,586,cs),
(90,586,o),
(22,518,o),
(22,437,cs),
(22,328,o),
(112,291,o),
(199,291,cs),
(298,291,o),
(363,332,o),
(363,415,cs),
(363,431,o),
(358,455,o),
(342,477,c),
(225,470,l),
(244,466,o),
(259,453,o),
(259,434,cs),
(259,418,o),
(243,409,o),
(216,409,cs),
(190,409,o),
(177,418,o),
(177,434,cs),
(177,454,o),
(192,463,o),
(221,463,cs),
(249,463,o),
(273,458,o),
(293,450,cs),
(304,445,o),
(316,440,o),
(325,433,cs),
(362,405,o),
(379,353,o),
(379,288,cs),
(379,217,o),
(371,170,o),
(341,141,cs),
(333,133,o),
(323,129,o),
(311,124,cs),
(291,115,o),
(265,111,o),
(232,111,cs),
(188,111,o),
(181,125,o),
(181,140,cs),
(181,154,o),
(193,165,o),
(222,165,cs),
(247,165,o),
(263,153,o),
(263,135,cs),
(263,122,o),
(256,105,o),
(239,97,c),
(345,96,l),
(360,117,o),
(367,141,o),
(367,159,cs),
(367,245,o),
(299,283,o),
(201,283,cs),
(108,283,o),
(26,239,o),
(26,143,cs),
(26,50,o),
(104,-12,o),
(247,-12,cs)
);
},
{
closed = 1;
nodes = (
(882,-12,o),
(950,86,o),
(950,218,cs),
(950,374,o),
(840,480,o),
(678,542,c),
(610,427,l),
(704,393,o),
(760,322,o),
(760,241,cs),
(760,179,o),
(724,150,o),
(661,150,cs),
(602,150,o),
(562,181,o),
(518,247,c),
(416,132,l),
(503,32,o),
(590,-12,o),
(681,-12,cs)
);
},
{
closed = 1;
nodes = (
(700,418,ls),
(802,418,o),
(866,435,o),
(908,480,cs),
(934,508,o),
(950,546,o),
(950,597,cs),
(950,654,o),
(934,713,o),
(865,798,c),
(725,715,l),
(757,678,o),
(769,652,o),
(769,623,cs),
(769,606,o),
(764,594,o),
(753,587,cs),
(738,577,o),
(715,574,o),
(657,574,cs),
(567,574,l),
(567,418,l)
);
},
{
alignment = -1;
pos = (984,0);
ref = uuvowelsignknda;
}
);
width = 1860;
}
);
unicode = 3296;
},
{
glyphname = llvocalicknda;
widthMetricsKey = lvocalicknda;
layers = (
{
anchors = (
{
name = Anchor5;
position = "{476, -24}";
}
);
background = {
shapes = (
{
closed = 1;
nodes = (
(785,168,l),
(732,137,o),
(694,116,o),
(637,116,cs),
(603,116,o),
(592,128,o),
(592,145,cs),
(592,162,o),
(601,172,o),
(675,213,cs),
(795,280,o),
(821,343,o),
(821,409,cs),
(821,505,o),
(747,586,o),
(610,586,cs),
(513,586,o),
(456,553,o),
(403,502,c),
(423,505,l),
(367,560,o),
(317,586,o),
(232,586,cs),
(104,586,o),
(21,521,o),
(21,413,cs),
(21,370,o),
(33,328,o),
(45,299,c),
(223,348,l),
(217,361,o),
(212,376,o),
(212,394,cs),
(212,420,o),
(230,436,o),
(255,436,cs),
(292,436,o),
(323,412,o),
(328,343,c),
(494,343,l),
(501,396,o),
(535,427,o),
(584,427,cs),
(610,427,o),
(630,415,o),
(630,391,cs),
(630,368,o),
(614,353,o),
(555,317,cs),
(437,245,o),
(410,196,o),
(410,125,cs),
(410,44,o),
(476,-37,o),
(622,-37,cs),
(712,-37,o),
(794,-10,o),
(865,33,c)
);
},
{
closed = 1;
nodes = (
(537,62,l),
(447,2,o),
(423,-44,o),
(423,-110,cs),
(423,-189,o),
(489,-268,o),
(633,-268,cs),
(723,-268,o),
(805,-242,o),
(876,-199,c),
(797,-66,l),
(741,-101,o),
(703,-118,o),
(651,-118,cs),
(619,-118,o),
(602,-109,o),
(602,-87,cs),
(602,-69,o),
(610,-55,o),
(655,-30,c)
);
}
);
};
layerId = "D8BA631F-EBB2-4072-BC3E-5C4A99E1B6C7";
shapes = (
{
closed = 1;
nodes = (
(785,168,l),
(732,137,o),
(694,116,o),
(637,116,cs),
(603,116,o),
(592,128,o),
(592,145,cs),
(592,162,o),
(601,172,o),
(675,213,cs),
(795,280,o),
(821,343,o),
(821,409,cs),
(821,505,o),
(747,586,o),
(610,586,cs),
(513,586,o),
(456,553,o),
(403,502,c),
(423,505,l),
(367,560,o),
(317,586,o),
(232,586,cs),
(104,586,o),
(21,521,o),
(21,413,cs),
(21,370,o),
(33,328,o),
(45,299,c),
(223,348,l),
(217,361,o),
(212,376,o),
(212,394,cs),
(212,420,o),
(230,436,o),
(255,436,cs),
(292,436,o),
(323,412,o),
(328,343,c),
(494,343,l),
(501,396,o),
(535,427,o),
(584,427,cs),
(610,427,o),
(630,415,o),
(630,391,cs),
(630,368,o),
(614,353,o),
(555,317,cs),
(437,245,o),
(410,196,o),
(410,125,cs),
(410,44,o),
(476,-37,o),
(622,-37,cs),
(712,-37,o),
(794,-10,o),
(865,33,c)
);
},
{
closed = 1;
nodes = (
(537,62,l),
(447,2,o),
(423,-44,o),
(423,-110,cs),
(423,-189,o),
(489,-268,o),
(633,-268,cs),
(723,-268,o),
(805,-242,o),
(876,-199,c),
(797,-66,l),
(741,-101,o),
(703,-118,o),
(651,-118,cs),
(619,-118,o),
(602,-109,o),
(602,-87,cs),
(602,-69,o),
(610,-55,o),
(655,-30,c)
);
}
);
width = 876;
}
);
unicode = 3297;
},
{
glyphname = lvocalicvowelsignknda;
layers = (
{
anchors = (
{
name = exit;
position = "{183, -195}";
}
);
background = {
shapes = (
{
closed = 1;
nodes = (
(146,-102,o),
(93,-41,o),
(0,-41,cs),
(-67,-41,o),
(-118,-73,o),
(-164,-138,c),
(-77,-137,l),
(-124,-77,o),
(-165,-41,o),
(-236,-41,cs),
(-327,-41,o),
(-377,-97,o),
(-377,-168,cs),
(-377,-209,o),
(-366,-239,o),
(-358,-261,c),
(-246,-227,l),
(-252,-215,o),
(-257,-198,o),
(-257,-181,cs),
(-257,-164,o),
(-249,-140,o),
(-221,-140,cs),
(-203,-140,o),
(-177,-149,o),
(-174,-209,c),
(-66,-209,l),
(-62,-159,o),
(-38,-141,o),
(-13,-141,cs),
(14,-141,o),
(30,-159,o),
(30,-189,cs),
(30,-224,o),
(5,-247,o),
(-14,-265,c),
(85,-316,l),
(130,-276,o),
(146,-228,o),
(146,-185,cs)
);
},
{
closed = 1;
nodes = (
(94,-472,o),
(134,-457,o),
(163,-444,c),
(130,-355,l),
(92,-374,o),
(67,-382,o),
(39,-382,cs),
(9,-382,o),
(0,-372,o),
(0,-357,cs),
(0,-333,o),
(29,-320,o),
(85,-316,c),
(51,-234,l),
(-50,-240,o),
(-117,-284,o),
(-117,-359,cs),
(-117,-436,o),
(-51,-472,o),
(31,-472,cs)
);
}
);
};
layerId = "D8BA631F-EBB2-4072-BC3E-5C4A99E1B6C7";
shapes = (
{
closed = 1;
nodes = (
(146,-102,o),
(93,-41,o),
(0,-41,cs),
(-67,-41,o),
(-118,-73,o),
(-164,-138,c),
(-77,-137,l),
(-124,-77,o),
(-165,-41,o),
(-236,-41,cs),
(-327,-41,o),
(-377,-97,o),
(-377,-168,cs),
(-377,-209,o),
(-366,-239,o),
(-358,-261,c),
(-246,-227,l),
(-252,-215,o),
(-257,-198,o),
(-257,-181,cs),
(-257,-164,o),
(-249,-140,o),
(-221,-140,cs),
(-203,-140,o),
(-177,-149,o),
(-174,-209,c),
(-66,-209,l),
(-62,-159,o),
(-38,-141,o),
(-13,-141,cs),
(14,-141,o),
(30,-159,o),
(30,-189,cs),
(30,-224,o),
(5,-247,o),
(-14,-265,c),
(85,-316,l),
(130,-276,o),
(146,-228,o),
(146,-185,cs)
);
},
{
closed = 1;
nodes = (
(94,-472,o),
(134,-457,o),
(163,-444,c),
(130,-355,l),
(92,-374,o),
(67,-382,o),
(39,-382,cs),
(9,-382,o),
(0,-372,o),
(0,-357,cs),
(0,-333,o),
(29,-320,o),
(85,-316,c),
(51,-234,l),
(-50,-240,o),
(-117,-284,o),
(-117,-359,cs),
(-117,-436,o),
(-51,-472,o),
(31,-472,cs)
);
}
);
width = 80;
}
);
unicode = 3298;
},
{
glyphname = llvocalicvowelsignknda;
layers = (
{
anchors = (
{
name = exit;
position = "{183, -195}";
}
);
background = {
shapes = (
{
closed = 1;
nodes = (
(146,-102,o),
(93,-41,o),
(0,-41,cs),
(-67,-41,o),
(-118,-73,o),
(-164,-138,c),
(-77,-137,l),
(-124,-77,o),
(-164,-41,o),
(-236,-41,cs),
(-327,-41,o),
(-377,-97,o),
(-377,-168,cs),
(-377,-209,o),
(-366,-239,o),
(-358,-261,c),
(-246,-227,l),
(-252,-215,o),
(-257,-198,o),
(-257,-181,cs),
(-257,-164,o),
(-249,-140,o),
(-221,-140,cs),
(-203,-140,o),
(-177,-149,o),
(-174,-209,c),
(-66,-209,l),
(-62,-159,o),
(-38,-141,o),
(-13,-141,cs),
(14,-141,o),
(30,-159,o),
(30,-189,cs),
(30,-224,o),
(5,-247,o),
(-14,-265,c),
(37,-260,l),
(127,-263,l),
(136,-248,o),
(146,-215,o),
(146,-185,cs)
);
},
{
closed = 1;
nodes = (
(100,-412,o),
(137,-399,o),
(167,-385,c),
(136,-311,l),
(103,-328,o),
(77,-336,o),
(50,-336,cs),
(19,-336,o),
(7,-325,o),
(7,-310,cs),
(7,-295,o),
(18,-267,o),
(127,-263,c),
(65,-194,l),
(-37,-198,o),
(-109,-246,o),
(-109,-315,cs),
(-109,-374,o),
(-58,-412,o),
(39,-412,cs)
);
},
{
closed = 1;
nodes = (
(115,-525,o),
(152,-512,o),
(182,-498,c),
(151,-424,l),
(118,-441,o),
(92,-449,o),
(65,-449,cs),
(34,-449,o),
(22,-438,o),
(22,-423,cs),
(22,-413,o),
(28,-405,o),
(42,-398,c),
(-66,-360,l),
(-80,-376,o),
(-94,-398,o),
(-94,-428,cs),
(-94,-487,o),
(-43,-525,o),
(54,-525,cs)
);
}
);
};
layerId = "D8BA631F-EBB2-4072-BC3E-5C4A99E1B6C7";
shapes = (
{
closed = 1;
nodes = (
(146,-102,o),
(93,-41,o),
(0,-41,cs),
(-67,-41,o),
(-118,-73,o),
(-164,-138,c),
(-77,-137,l),
(-124,-77,o),
(-164,-41,o),
(-236,-41,cs),
(-327,-41,o),
(-377,-97,o),
(-377,-168,cs),
(-377,-209,o),
(-366,-239,o),
(-358,-261,c),
(-246,-227,l),
(-252,-215,o),
(-257,-198,o),
(-257,-181,cs),
(-257,-164,o),
(-249,-140,o),
(-221,-140,cs),
(-203,-140,o),
(-177,-149,o),
(-174,-209,c),
(-66,-209,l),
(-62,-159,o),
(-38,-141,o),
(-13,-141,cs),
(14,-141,o),
(30,-159,o),
(30,-189,cs),
(30,-224,o),
(5,-247,o),
(-14,-265,c),
(37,-260,l),
(127,-263,l),
(136,-248,o),
(146,-215,o),
(146,-185,cs)
);
},
{
closed = 1;
nodes = (
(100,-412,o),
(137,-399,o),
(167,-385,c),
(136,-311,l),
(103,-328,o),
(77,-336,o),
(50,-336,cs),
(19,-336,o),
(7,-325,o),
(7,-310,cs),
(7,-295,o),
(18,-267,o),
(127,-263,c),
(65,-194,l),
(-37,-198,o),
(-109,-246,o),
(-109,-315,cs),
(-109,-374,o),
(-58,-412,o),
(39,-412,cs)
);
},
{
closed = 1;
nodes = (
(115,-525,o),
(152,-512,o),
(182,-498,c),
(151,-424,l),
(118,-441,o),
(92,-449,o),
(65,-449,cs),
(34,-449,o),
(22,-438,o),
(22,-423,cs),
(22,-413,o),
(28,-405,o),
(42,-398,c),
(-66,-360,l),
(-80,-376,o),
(-94,-398,o),
(-94,-428,cs),
(-94,-487,o),
(-43,-525,o),
(54,-525,cs)
);
}
);
width = 80;
}
);
unicode = 3299;
},
{
glyphname = lvocalicvowelsignUIknda;
layers = (
{
background = {
shapes = (
{
closed = 1;
nodes = (
(146,-72,o),
(93,-16,o),
(0,-16,cs),
(-67,-16,o),
(-118,-45,o),
(-164,-105,c),
(-77,-104,l),
(-124,-49,o),
(-165,-16,o),
(-236,-16,cs),
(-327,-16,o),
(-377,-67,o),
(-377,-132,cs),
(-377,-170,o),
(-366,-197,o),
(-358,-218,c),
(-246,-186,l),
(-252,-175,o),
(-257,-160,o),
(-257,-144,cs),
(-257,-129,o),
(-249,-107,o),
(-221,-107,cs),
(-203,-107,o),
(-177,-115,o),
(-174,-170,c),
(-66,-170,l),
(-62,-124,o),
(-38,-108,o),
(-13,-108,cs),
(14,-108,o),
(30,-124,o),
(30,-152,cs),
(30,-170,o),
(24,-184,o),
(11,-197,c),
(127,-216,l),
(142,-191,o),
(146,-172,o),
(146,-148,cs)
);
},
{
closed = 1;
nodes = (
(94,-364,o),
(134,-350,o),
(163,-338,c),
(130,-259,l),
(92,-276,o),
(67,-283,o),
(40,-283,cs),
(16,-283,o),
(5,-274,o),
(5,-261,cs),
(5,-239,o),
(29,-219,o),
(127,-216,c),
(53,-153,l),
(-46,-157,o),
(-112,-192,o),
(-112,-264,cs),
(-112,-331,o),
(-51,-364,o),
(31,-364,cs)
);
}
);
};
layerId = "D8BA631F-EBB2-4072-BC3E-5C4A99E1B6C7";
shapes = (
{
closed = 1;
nodes = (
(146,-72,o),
(93,-16,o),
(0,-16,cs),
(-67,-16,o),
(-118,-45,o),
(-164,-105,c),
(-77,-104,l),
(-124,-49,o),
(-165,-16,o),
(-236,-16,cs),
(-327,-16,o),
(-377,-67,o),
(-377,-132,cs),
(-377,-170,o),
(-366,-197,o),
(-358,-218,c),
(-246,-186,l),
(-252,-175,o),
(-257,-160,o),
(-257,-144,cs),
(-257,-129,o),
(-249,-107,o),
(-221,-107,cs),
(-203,-107,o),
(-177,-115,o),
(-174,-170,c),
(-66,-170,l),
(-62,-124,o),
(-38,-108,o),
(-13,-108,cs),
(14,-108,o),
(30,-124,o),
(30,-152,cs),
(30,-170,o),
(24,-184,o),
(11,-197,c),
(127,-216,l),
(142,-191,o),
(146,-172,o),
(146,-148,cs)
);
},
{
closed = 1;
nodes = (
(94,-364,o),
(134,-350,o),
(163,-338,c),
(130,-259,l),
(92,-276,o),
(67,-283,o),
(40,-283,cs),
(16,-283,o),
(5,-274,o),
(5,-261,cs),
(5,-239,o),
(29,-219,o),
(127,-216,c),
(53,-153,l),
(-46,-157,o),
(-112,-192,o),
(-112,-264,cs),
(-112,-331,o),
(-51,-364,o),
(31,-364,cs)
);
}
);
width = 88;
}
);
},
{
glyphname = llvocalicvowelsignUIknda;
layers = (
{
background = {
shapes = (
{
closed = 1;
nodes = (
(146,-72,o),
(93,-16,o),
(0,-16,cs),
(-67,-16,o),
(-118,-45,o),
(-164,-105,c),
(-77,-104,l),
(-124,-49,o),
(-165,-16,o),
(-236,-16,cs),
(-327,-16,o),
(-377,-67,o),
(-377,-132,cs),
(-377,-170,o),
(-366,-197,o),
(-358,-218,c),
(-246,-186,l),
(-252,-175,o),
(-257,-160,o),
(-257,-144,cs),
(-257,-129,o),
(-249,-107,o),
(-221,-107,cs),
(-203,-107,o),
(-180,-119,o),
(-174,-160,c),
(-66,-160,l),
(-63,-127,o),
(-43,-108,o),
(-14,-108,cs),
(14,-108,o),
(30,-124,o),
(30,-145,cs),
(30,-156,o),
(30,-160,o),
(29,-164,c),
(144,-176,l),
(146,-167,o),
(146,-158,o),
(146,-148,cs)
);
},
{
closed = 1;
nodes = (
(109,-281,o),
(142,-273,o),
(169,-264,c),
(143,-208,l),
(108,-222,o),
(89,-226,o),
(67,-226,cs),
(37,-226,o),
(22,-222,o),
(22,-207,cs),
(22,-189,o),
(36,-176,o),
(144,-176,c),
(70,-127,l),
(-39,-129,o),
(-79,-167,o),
(-79,-210,cs),
(-79,-256,o),
(-33,-281,o),
(56,-281,cs)
);
},
{
closed = 1;
nodes = (
(124,-364,o),
(156,-355,o),
(184,-347,c),
(157,-291,l),
(123,-304,o),
(102,-308,o),
(79,-308,cs),
(57,-308,o),
(37,-305,o),
(37,-290,cs),
(37,-283,o),
(42,-276,o),
(57,-271,c),
(-33,-247,l),
(-53,-260,o),
(-63,-276,o),
(-63,-294,cs),
(-63,-337,o),
(-16,-364,o),
(68,-364,cs)
);
}
);
};
layerId = "D8BA631F-EBB2-4072-BC3E-5C4A99E1B6C7";
shapes = (
{
closed = 1;
nodes = (
(146,-72,o),
(93,-16,o),
(0,-16,cs),
(-67,-16,o),
(-118,-45,o),
(-164,-105,c),
(-77,-104,l),
(-124,-49,o),
(-165,-16,o),
(-236,-16,cs),
(-327,-16,o),
(-377,-67,o),
(-377,-132,cs),
(-377,-170,o),
(-366,-197,o),
(-358,-218,c),
(-246,-186,l),
(-252,-175,o),
(-257,-160,o),
(-257,-144,cs),
(-257,-129,o),
(-249,-107,o),
(-221,-107,cs),
(-203,-107,o),
(-180,-119,o),
(-174,-160,c),
(-66,-160,l),
(-63,-127,o),
(-43,-108,o),
(-14,-108,cs),
(14,-108,o),
(30,-124,o),
(30,-145,cs),
(30,-156,o),
(30,-160,o),
(29,-164,c),
(144,-176,l),
(146,-167,o),
(146,-158,o),
(146,-148,cs)
);
},
{
closed = 1;
nodes = (
(109,-281,o),
(142,-273,o),
(169,-264,c),
(143,-208,l),
(108,-222,o),
(89,-226,o),
(67,-226,cs),
(37,-226,o),
(22,-222,o),
(22,-207,cs),
(22,-189,o),
(36,-176,o),
(144,-176,c),
(70,-127,l),
(-39,-129,o),
(-79,-167,o),
(-79,-210,cs),
(-79,-256,o),
(-33,-281,o),
(56,-281,cs)
);
},
{
closed = 1;
nodes = (
(124,-364,o),
(156,-355,o),
(184,-347,c),
(157,-291,l),
(123,-304,o),
(102,-308,o),
(79,-308,cs),
(57,-308,o),
(37,-305,o),
(37,-290,cs),
(37,-283,o),
(42,-276,o),
(57,-271,c),
(-33,-247,l),
(-53,-260,o),
(-63,-276,o),
(-63,-294,cs),
(-63,-337,o),
(-16,-364,o),
(68,-364,cs)
);
}
);
width = 87;
}
);
},
{
glyphname = zeroknda;
layers = (
{
anchors = (
{
name = Anchor5;
position = "{350, -24}";
}
);
background = {
shapes = (
{
closed = 1;
nodes = (
(42,135,o),
(137,-12,o),
(349,-12,cs),
(574,-12,o),
(658,156,o),
(658,347,cs),
(658,553,o),
(566,702,o),
(349,702,cs),
(134,702,o),
(42,545,o),
(42,343,cs)
);
},
{
closed = 1;
nodes = (
(230,487,o),
(277,538,o),
(348,538,cs),
(425,538,o),
(470,488,o),
(470,347,cs),
(470,204,o),
(426,152,o),
(349,152,cs),
(277,152,o),
(230,200,o),
(230,343,cs)
);
}
);
};
layerId = "D8BA631F-EBB2-4072-BC3E-5C4A99E1B6C7";
shapes = (
{
closed = 1;
nodes = (
(42,135,o),
(137,-12,o),
(349,-12,cs),
(574,-12,o),
(658,156,o),
(658,347,cs),
(658,553,o),
(566,702,o),
(349,702,cs),
(134,702,o),
(42,545,o),
(42,343,cs)
);
},
{
closed = 1;
nodes = (
(230,487,o),
(277,538,o),
(348,538,cs),
(425,538,o),
(470,488,o),
(470,347,cs),
(470,204,o),
(426,152,o),
(349,152,cs),
(277,152,o),
(230,200,o),
(230,343,cs)
);
}
);
width = 700;
}
);
unicode = 3302;
},
{
glyphname = oneknda;
layers = (
{
anchors = (
{
name = Anchor5;
position = "{350, -24}";
}
);
background = {
shapes = (
{
closed = 1;
nodes = (
(140,702,o),
(42,553,o),
(42,365,cs),
(42,220,o),
(92,87,o),
(166,-13,c),
(317,76,l),
(257,174,o),
(230,254,o),
(230,357,cs),
(230,473,o),
(268,538,o),
(352,538,cs),
(425,538,o),
(470,488,o),
(470,360,cs),
(470,249,o),
(436,167,o),
(383,76,c),
(534,-13,l),
(604,81,o),
(658,220,o),
(658,360,cs),
(658,563,o),
(554,702,o),
(350,702,cs)
);
}
);
};
layerId = "D8BA631F-EBB2-4072-BC3E-5C4A99E1B6C7";
shapes = (
{
closed = 1;
nodes = (
(140,702,o),
(42,553,o),
(42,365,cs),
(42,220,o),
(92,87,o),
(166,-13,c),
(317,76,l),
(257,174,o),
(230,254,o),
(230,357,cs),
(230,473,o),
(268,538,o),
(352,538,cs),
(425,538,o),
(470,488,o),
(470,360,cs),
(470,249,o),
(436,167,o),
(383,76,c),
(534,-13,l),
(604,81,o),
(658,220,o),
(658,360,cs),
(658,563,o),
(554,702,o),
(350,702,cs)
);
}
);
width = 700;
}
);
unicode = 3303;
},
{
glyphname = twoknda;
layers = (
{
anchors = (
{
name = Anchor5;
position = "{350, -24}";
}
);
background = {
shapes = (
{
closed = 1;
nodes = (
(220,701,o),
(126,636,o),
(126,510,cs),
(126,409,o),
(181,341,o),
(281,341,cs),
(408,341,o),
(433,417,o),
(433,474,cs),
(433,489,o),
(432,499,o),
(430,508,c),
(319,503,l),
(319,489,o),
(313,479,o),
(298,479,cs),
(284,479,o),
(277,494,o),
(277,510,cs),
(277,547,o),
(305,567,o),
(354,567,cs),
(443,567,o),
(470,477,o),
(470,378,cs),
(470,297,o),
(454,245,o),
(418,212,cs),
(381,178,o),
(327,165,o),
(221,165,cs),
(33,165,l),
(33,0,l),
(251,0,ls),
(408,0,o),
(489,29,o),
(552,85,cs),
(620,146,o),
(658,244,o),
(658,365,cs),
(658,582,o),
(541,701,o),
(356,701,cs)
);
}
);
};
layerId = "D8BA631F-EBB2-4072-BC3E-5C4A99E1B6C7";
shapes = (
{
closed = 1;
nodes = (
(220,701,o),
(126,636,o),
(126,510,cs),
(126,409,o),
(181,341,o),
(281,341,cs),
(408,341,o),
(433,417,o),
(433,474,cs),
(433,489,o),
(432,499,o),
(430,508,c),
(319,503,l),
(319,489,o),
(313,479,o),
(298,479,cs),
(284,479,o),
(277,494,o),
(277,510,cs),
(277,547,o),
(305,567,o),
(354,567,cs),
(443,567,o),
(470,477,o),
(470,378,cs),
(470,297,o),
(454,245,o),
(418,212,cs),
(381,178,o),
(327,165,o),
(221,165,cs),
(33,165,l),
(33,0,l),
(251,0,ls),
(408,0,o),
(489,29,o),
(552,85,cs),
(620,146,o),
(658,244,o),
(658,365,cs),
(658,582,o),
(541,701,o),
(356,701,cs)
);
}
);
width = 700;
}
);
unicode = 3304;
},
{
glyphname = threeknda;
layers = (
{
anchors = (
{
name = Anchor5;
position = "{350, -24}";
}
);
background = {
shapes = (
{
closed = 1;
nodes = (
(108,353,o),
(51,285,o),
(51,198,cs),
(51,84,o),
(131,29,o),
(250,29,cs),
(355,29,o),
(433,71,o),
(489,135,c),
(553,203,o),
(579,294,o),
(579,390,cs),
(579,557,o),
(501,702,o),
(285,702,cs),
(143,702,o),
(62,628,o),
(62,528,cs),
(62,434,o),
(112,371,o),
(219,371,cs),
(299,371,o),
(357,416,o),
(357,499,cs),
(357,510,o),
(356,526,o),
(354,529,c),
(246,524,l),
(246,509,o),
(238,501,o),
(227,501,cs),
(217,501,o),
(211,508,o),
(211,524,cs),
(211,553,o),
(237,567,o),
(271,567,cs),
(361,567,o),
(396,507,o),
(396,397,cs),
(396,276,o),
(358,169,o),
(258,169,cs),
(230,169,o),
(214,179,o),
(214,196,cs),
(214,209,o),
(222,220,o),
(243,220,cs),
(267,220,o),
(294,207,o),
(343,144,c),
(371,113,l),
(426,47,o),
(486,-12,o),
(590,-12,cs),
(640,-12,o),
(677,-6,o),
(707,11,c),
(665,174,l),
(649,166,o),
(632,159,o),
(599,159,cs),
(536,159,o),
(491,200,o),
(445,255,c),
(424,254,l),
(369,312,o),
(308,353,o),
(222,353,cs)
);
}
);
};
layerId = "D8BA631F-EBB2-4072-BC3E-5C4A99E1B6C7";
shapes = (
{
closed = 1;
nodes = (
(108,353,o),
(51,285,o),
(51,198,cs),
(51,84,o),
(131,29,o),
(250,29,cs),
(355,29,o),
(433,71,o),
(489,135,c),
(553,203,o),
(579,294,o),
(579,390,cs),
(579,557,o),
(501,702,o),
(285,702,cs),
(143,702,o),
(62,628,o),
(62,528,cs),
(62,434,o),
(112,371,o),
(219,371,cs),
(299,371,o),
(357,416,o),
(357,499,cs),
(357,510,o),
(356,526,o),
(354,529,c),
(246,524,l),
(246,509,o),
(238,501,o),
(227,501,cs),
(217,501,o),
(211,508,o),
(211,524,cs),
(211,553,o),
(237,567,o),
(271,567,cs),
(361,567,o),
(396,507,o),
(396,397,cs),
(396,276,o),
(358,169,o),
(258,169,cs),
(230,169,o),
(214,179,o),
(214,196,cs),
(214,209,o),
(222,220,o),
(243,220,cs),
(267,220,o),
(294,207,o),
(343,144,c),
(371,113,l),
(426,47,o),
(486,-12,o),
(590,-12,cs),
(640,-12,o),
(677,-6,o),
(707,11,c),
(665,174,l),
(649,166,o),
(632,159,o),
(599,159,cs),
(536,159,o),
(491,200,o),
(445,255,c),
(424,254,l),
(369,312,o),
(308,353,o),
(222,353,cs)
);
}
);
width = 700;
}
);
unicode = 3305;
},
{
glyphname = fourknda;
layers = (
{
anchors = (
{
name = Anchor5;
position = "{350, -24}";
}
);
background = {
shapes = (
{
closed = 1;
nodes = (
(528,-12,o),
(592,38,o),
(592,125,cs),
(592,178,o),
(557,214,o),
(507,234,c),
(455,189,l),
(588,236,o),
(678,320,o),
(678,470,cs),
(678,568,o),
(639,640,o),
(573,702,c),
(436,579,l),
(476,539,o),
(490,507,o),
(490,468,cs),
(490,389,o),
(425,347,o),
(368,323,c),
(233,349,o),
(189,400,o),
(189,491,cs),
(189,548,o),
(222,569,o),
(249,569,cs),
(269,569,o),
(279,557,o),
(279,539,cs),
(279,518,o),
(262,503,o),
(217,503,cs),
(182,503,o),
(141,521,o),
(116,536,c),
(101,418,l),
(130,398,o),
(174,380,o),
(239,380,cs),
(389,380,o),
(435,461,o),
(435,539,cs),
(435,650,o),
(365,702,o),
(261,702,cs),
(104,702,o),
(22,606,o),
(22,473,cs),
(22,316,o),
(127,224,o),
(285,179,c),
(222,230,l),
(172,208,o),
(143,171,o),
(143,124,cs),
(143,45,o),
(195,-12,o),
(369,-12,cs)
);
},
{
closed = 1;
nodes = (
(329,118,o),
(315,128,o),
(315,143,cs),
(315,159,o),
(340,173,o),
(369,174,c),
(402,171,o),
(420,156,o),
(420,143,cs),
(420,124,o),
(401,118,o),
(367,118,cs)
);
}
);
};
layerId = "D8BA631F-EBB2-4072-BC3E-5C4A99E1B6C7";
shapes = (
{
closed = 1;
nodes = (
(528,-12,o),
(592,38,o),
(592,125,cs),
(592,178,o),
(557,214,o),
(507,234,c),
(455,189,l),
(588,236,o),
(678,320,o),
(678,470,cs),
(678,568,o),
(639,640,o),
(573,702,c),
(436,579,l),
(476,539,o),
(490,507,o),
(490,468,cs),
(490,389,o),
(425,347,o),
(368,323,c),
(233,349,o),
(189,400,o),
(189,491,cs),
(189,548,o),
(222,569,o),
(249,569,cs),
(269,569,o),
(279,557,o),
(279,539,cs),
(279,518,o),
(262,503,o),
(217,503,cs),
(182,503,o),
(141,521,o),
(116,536,c),
(101,418,l),
(130,398,o),
(174,380,o),
(239,380,cs),
(389,380,o),
(435,461,o),
(435,539,cs),
(435,650,o),
(365,702,o),
(261,702,cs),
(104,702,o),
(22,606,o),
(22,473,cs),
(22,316,o),
(127,224,o),
(285,179,c),
(222,230,l),
(172,208,o),
(143,171,o),
(143,124,cs),
(143,45,o),
(195,-12,o),
(369,-12,cs)
);
},
{
closed = 1;
nodes = (
(329,118,o),
(315,128,o),
(315,143,cs),
(315,159,o),
(340,173,o),
(369,174,c),
(402,171,o),
(420,156,o),
(420,143,cs),
(420,124,o),
(401,118,o),
(367,118,cs)
);
}
);
width = 700;
}
);
unicode = 3306;
},
{
glyphname = fiveknda;
layers = (
{
anchors = (
{
name = Anchor5;
position = "{350, -24}";
}
);
background = {
shapes = (
{
closed = 1;
nodes = (
(205,508,l),
(173,512,o),
(161,523,o),
(161,540,cs),
(161,553,o),
(169,563,o),
(183,563,cs),
(216,563,o),
(232,506,o),
(232,268,cs),
(232,159,o),
(222,131,o),
(192,131,cs),
(181,131,o),
(169,141,o),
(169,161,cs),
(169,217,o),
(215,265,o),
(366,297,c),
(533,343,l),
(631,384,o),
(678,457,o),
(678,553,cs),
(678,639,o),
(627,702,o),
(527,702,cs),
(429,702,o),
(379,640,o),
(379,562,cs),
(379,510,o),
(401,446,o),
(431,392,c),
(435,382,o),
(430,370,o),
(434,360,cs),
(467,289,o),
(477,244,o),
(477,197,cs),
(477,140,o),
(448,103,o),
(418,70,c),
(588,-25,l),
(627,29,o),
(655,77,o),
(655,168,cs),
(655,239,o),
(629,311,o),
(569,400,c),
(525,469,o),
(506,513,o),
(506,540,cs),
(506,562,o),
(516,570,o),
(529,570,cs),
(542,570,o),
(550,558,o),
(550,537,cs),
(550,486,o),
(501,462,o),
(427,446,c),
(306,417,ls),
(99,368,o),
(22,262,o),
(22,157,cs),
(22,59,o),
(76,-12,o),
(185,-12,cs),
(312,-12,o),
(382,90,o),
(382,294,cs),
(382,606,o),
(309,702,o),
(187,702,cs),
(91,702,o),
(23,647,o),
(23,546,cs),
(23,439,o),
(103,392,o),
(195,389,c)
);
}
);
};
layerId = "D8BA631F-EBB2-4072-BC3E-5C4A99E1B6C7";
shapes = (
{
closed = 1;
nodes = (
(205,508,l),
(173,512,o),
(161,523,o),
(161,540,cs),
(161,553,o),
(169,563,o),
(183,563,cs),
(216,563,o),
(232,506,o),
(232,268,cs),
(232,159,o),
(222,131,o),
(192,131,cs),
(181,131,o),
(169,141,o),
(169,161,cs),
(169,217,o),
(215,265,o),
(366,297,c),
(533,343,l),
(631,384,o),
(678,457,o),
(678,553,cs),
(678,639,o),
(627,702,o),
(527,702,cs),
(429,702,o),
(379,640,o),
(379,562,cs),
(379,510,o),
(401,446,o),
(431,392,c),
(435,382,o),
(430,370,o),
(434,360,c),
(467,289,o),
(477,244,o),
(477,197,cs),
(477,140,o),
(448,103,o),
(418,70,c),
(588,-25,l),
(627,29,o),
(655,77,o),
(655,168,cs),
(655,239,o),
(629,311,o),
(569,400,c),
(525,469,o),
(506,513,o),
(506,540,cs),
(506,562,o),
(516,570,o),
(529,570,cs),
(542,570,o),
(550,558,o),
(550,537,cs),
(550,486,o),
(501,462,o),
(427,446,c),
(306,417,l),
(99,368,o),
(22,262,o),
(22,157,cs),
(22,59,o),
(76,-12,o),
(185,-12,cs),
(312,-12,o),
(382,90,o),
(382,294,cs),
(382,606,o),
(309,702,o),
(187,702,cs),
(91,702,o),
(23,647,o),
(23,546,cs),
(23,439,o),
(103,392,o),
(195,389,c)
);
}
);
width = 700;
}
);
unicode = 3307;
},
{
glyphname = sixknda;
layers = (
{
anchors = (
{
name = Anchor5;
position = "{350, -24}";
}
);
background = {
shapes = (
{
closed = 1;
nodes = (
(560,447,o),
(510,530,o),
(359,530,cs),
(308,530,o),
(261,522,o),
(219,507,cs),
(104,466,o),
(35,382,o),
(35,259,cs),
(35,169,o),
(63,107,o),
(115,66,cs),
(176,19,o),
(260,0,o),
(400,0,cs),
(667,0,l),
(667,165,l),
(419,165,ls),
(330,165,o),
(268,168,o),
(230,201,cs),
(210,218,o),
(199,243,o),
(199,279,cs),
(199,315,o),
(222,347,o),
(246,365,c),
(274,377,l),
(291,385,o),
(320,393,o),
(349,393,cs),
(383,393,o),
(395,381,o),
(395,365,cs),
(395,347,o),
(383,337,o),
(357,337,cs),
(333,337,o),
(319,348,o),
(319,374,cs),
(319,394,o),
(325,414,o),
(334,439,cs),
(352,488,o),
(370,534,o),
(370,574,cs),
(370,658,o),
(319,702,o),
(218,702,cs),
(165,702,o),
(123,694,o),
(83,682,c),
(119,535,l),
(128,538,o),
(144,542,o),
(162,542,cs),
(189,542,o),
(201,527,o),
(201,506,cs),
(201,478,o),
(200,459,o),
(196,427,cs),
(193,402,o),
(191,377,o),
(191,342,cs),
(191,290,o),
(216,200,o),
(365,200,cs),
(493,200,o),
(560,265,o),
(560,367,cs)
);
}
);
};
layerId = "D8BA631F-EBB2-4072-BC3E-5C4A99E1B6C7";
shapes = (
{
closed = 1;
nodes = (
(560,447,o),
(510,530,o),
(359,530,cs),
(308,530,o),
(261,522,o),
(219,507,c),
(104,466,o),
(35,382,o),
(35,259,cs),
(35,169,o),
(63,107,o),
(115,66,cs),
(176,19,o),
(260,0,o),
(400,0,cs),
(667,0,l),
(667,165,l),
(419,165,ls),
(330,165,o),
(268,168,o),
(230,201,cs),
(210,218,o),
(199,243,o),
(199,279,cs),
(199,315,o),
(222,347,o),
(246,365,c),
(274,377,l),
(291,385,o),
(320,393,o),
(349,393,cs),
(383,393,o),
(395,381,o),
(395,365,cs),
(395,347,o),
(383,337,o),
(357,337,cs),
(333,337,o),
(319,348,o),
(319,374,cs),
(319,394,o),
(325,414,o),
(334,439,cs),
(352,488,o),
(370,534,o),
(370,574,cs),
(370,658,o),
(319,702,o),
(218,702,cs),
(165,702,o),
(123,694,o),
(83,682,c),
(119,535,l),
(128,538,o),
(144,542,o),
(162,542,cs),
(189,542,o),
(201,527,o),
(201,506,cs),
(201,478,o),
(200,459,o),
(196,427,cs),
(193,402,o),
(191,377,o),
(191,342,cs),
(191,290,o),
(216,200,o),
(365,200,cs),
(493,200,o),
(560,265,o),
(560,367,cs)
);
}
);
width = 700;
}
);
unicode = 3308;
},
{
glyphname = sevenknda;
layers = (
{
anchors = (
{
name = Anchor5;
position = "{350, -24}";
}
);
background = {
shapes = (
{
closed = 1;
nodes = (
(143,702,o),
(84,633,o),
(84,548,cs),
(84,461,o),
(155,418,o),
(241,411,c),
(267,523,l),
(250,525,o),
(244,530,o),
(244,540,cs),
(244,552,o),
(255,562,o),
(281,562,cs),
(317,562,o),
(333,542,o),
(333,516,cs),
(333,476,o),
(313,448,o),
(228,402,cs),
(116,342,o),
(46,283,o),
(46,178,cs),
(46,118,o),
(68,73,o),
(108,44,cs),
(148,14,o),
(195,0,o),
(292,0,cs),
(667,0,l),
(667,165,l),
(295,165,ls),
(267,165,o),
(256,165,o),
(246,170,cs),
(238,174,o),
(234,181,o),
(234,189,cs),
(234,209,o),
(243,221,o),
(354,286,cs),
(455,345,o),
(521,411,o),
(521,518,cs),
(521,645,o),
(430,702,o),
(295,702,cs)
);
}
);
};
layerId = "D8BA631F-EBB2-4072-BC3E-5C4A99E1B6C7";
shapes = (
{
closed = 1;
nodes = (
(143,702,o),
(84,633,o),
(84,548,cs),
(84,461,o),
(155,418,o),
(241,411,c),
(267,523,l),
(250,525,o),
(244,530,o),
(244,540,cs),
(244,552,o),
(255,562,o),
(281,562,cs),
(317,562,o),
(333,542,o),
(333,516,cs),
(333,476,o),
(313,448,o),
(228,402,cs),
(116,342,o),
(46,283,o),
(46,178,cs),
(46,118,o),
(68,73,o),
(108,44,cs),
(148,14,o),
(195,0,o),
(292,0,cs),
(667,0,l),
(667,165,l),
(295,165,ls),
(267,165,o),
(256,165,o),
(246,170,cs),
(238,174,o),
(234,181,o),
(234,189,cs),
(234,209,o),
(243,221,o),
(354,286,cs),
(455,345,o),
(521,411,o),
(521,518,cs),
(521,645,o),
(430,702,o),
(295,702,cs)
);
}
);
width = 700;
}
);
unicode = 3309;
},
{
glyphname = eightknda;
layers = (
{
anchors = (
{
name = Anchor5;
position = "{350, -24}";
}
);
background = {
shapes = (
{
closed = 1;
nodes = (
(134,702,o),
(26,596,o),
(26,400,cs),
(26,220,o),
(105,-12,o),
(388,-12,cs),
(550,-12,o),
(676,53,o),
(676,245,cs),
(676,372,o),
(626,454,o),
(626,497,cs),
(626,517,o),
(641,523,o),
(664,523,cs),
(685,523,l),
(685,690,l),
(620,690,ls),
(550,690,o),
(514,684,o),
(480,659,cs),
(453,639,o),
(437,606,o),
(437,554,cs),
(437,437,o),
(488,378,o),
(488,251,cs),
(488,196,o),
(464,153,o),
(379,153,cs),
(249,153,o),
(205,281,o),
(205,398,cs),
(205,529,o),
(237,569,o),
(270,569,cs),
(290,569,o),
(302,557,o),
(302,537,cs),
(302,514,o),
(289,497,o),
(245,497,cs),
(203,497,o),
(169,510,o),
(144,523,c),
(136,407,l),
(162,386,o),
(211,367,o),
(264,367,cs),
(403,367,o),
(437,452,o),
(437,536,cs),
(437,654,o),
(378,702,o),
(282,702,cs)
);
}
);
};
layerId = "D8BA631F-EBB2-4072-BC3E-5C4A99E1B6C7";
shapes = (
{
closed = 1;
nodes = (
(134,702,o),
(26,596,o),
(26,400,cs),
(26,220,o),
(105,-12,o),
(388,-12,cs),
(550,-12,o),
(676,53,o),
(676,245,cs),
(676,372,o),
(626,454,o),
(626,497,cs),
(626,517,o),
(641,523,o),
(664,523,cs),
(685,523,l),
(685,690,l),
(620,690,ls),
(550,690,o),
(514,684,o),
(480,659,cs),
(453,639,o),
(437,606,o),
(437,554,cs),
(437,437,o),
(488,378,o),
(488,251,cs),
(488,196,o),
(464,153,o),
(379,153,cs),
(249,153,o),
(205,281,o),
(205,398,cs),
(205,529,o),
(237,569,o),
(270,569,cs),
(290,569,o),
(302,557,o),
(302,537,cs),
(302,514,o),
(289,497,o),
(245,497,cs),
(203,497,o),
(169,510,o),
(144,523,c),
(136,407,l),
(162,386,o),
(211,367,o),
(264,367,cs),
(403,367,o),
(437,452,o),
(437,536,cs),
(437,654,o),
(378,702,o),
(282,702,cs)
);
}
);
width = 700;
}
);
unicode = 3310;
},
{
glyphname = nineknda;
layers = (
{
anchors = (
{
name = Anchor5;
position = "{350, -24}";
}
);
background = {
shapes = (
{
closed = 1;
nodes = (
(527,441,o),
(460,484,o),
(357,484,cs),
(265,484,o),
(199,448,o),
(138,396,c),
(92,350,o),
(65,302,o),
(65,226,cs),
(65,82,o),
(169,0,o),
(338,0,cs),
(358,0,l),
(358,165,l),
(324,165,ls),
(272,165,o),
(230,177,o),
(230,238,cs),
(230,272,o),
(237,306,o),
(250,327,cs),
(264,350,o),
(291,367,o),
(328,367,cs),
(347,367,o),
(361,359,o),
(361,343,cs),
(361,327,o),
(349,319,o),
(323,319,cs),
(281,319,o),
(255,340,o),
(244,365,cs),
(235,388,o),
(233,409,o),
(233,430,cs),
(233,467,o),
(245,491,o),
(269,505,cs),
(298,522,o),
(342,526,o),
(430,526,cs),
(679,526,l),
(679,690,l),
(442,690,ls),
(296,690,o),
(214,675,o),
(153,631,cs),
(100,592,o),
(65,540,o),
(65,456,cs),
(65,388,o),
(91,341,o),
(135,291,cs),
(187,234,o),
(258,202,o),
(348,202,cs),
(456,202,o),
(527,251,o),
(527,342,cs)
);
}
);
};
layerId = "D8BA631F-EBB2-4072-BC3E-5C4A99E1B6C7";
shapes = (
{
closed = 1;
nodes = (
(527,441,o),
(460,484,o),
(357,484,cs),
(265,484,o),
(199,448,o),
(138,396,c),
(92,350,o),
(65,302,o),
(65,226,cs),
(65,82,o),
(169,0,o),
(338,0,cs),
(358,0,l),
(358,165,l),
(324,165,ls),
(272,165,o),
(230,177,o),
(230,238,cs),
(230,272,o),
(237,306,o),
(250,327,cs),
(264,350,o),
(291,367,o),
(328,367,cs),
(347,367,o),
(361,359,o),
(361,343,cs),
(361,327,o),
(349,319,o),
(323,319,cs),
(281,319,o),
(255,340,o),
(244,365,cs),
(235,388,o),
(233,409,o),
(233,430,cs),
(233,467,o),
(245,491,o),
(269,505,cs),
(298,522,o),
(342,526,o),
(430,526,cs),
(679,526,l),
(679,690,l),
(442,690,ls),
(296,690,o),
(214,675,o),
(153,631,cs),
(100,592,o),
(65,540,o),
(65,456,cs),
(65,388,o),
(91,341,o),
(135,291,c),
(187,234,o),
(258,202,o),
(348,202,cs),
(456,202,o),
(527,251,o),
(527,342,cs)
);
}
);
width = 700;
}
);
unicode = 3311;
},
{
glyphname = uni0CF1;
layers = (
{
anchors = (
{
name = Anchor5;
position = "{311, -24}";
}
);
background = {
shapes = (
{
closed = 1;
nodes = (
(604,506,l),
(586,574,l),
(39,574,l),
(21,506,l),
(217,289,l),
(15,68,l),
(33,0,l),
(589,0,l),
(607,68,l),
(404,292,l)
);
},
{
closed = 1;
nodes = (
(334,153,l),
(345,141,o),
(357,127,o),
(371,114,c),
(354,115,o),
(335,115,o),
(317,115,cs),
(294,115,ls),
(277,115,o),
(259,115,o),
(243,114,c),
(255,125,o),
(268,138,o),
(279,151,cs),
(308,185,l)
);
},
{
closed = 1;
nodes = (
(288,428,l),
(278,439,o),
(267,452,o),
(257,460,c),
(276,459,o),
(288,459,o),
(301,459,cs),
(320,459,ls),
(334,459,o),
(351,459,o),
(368,460,c),
(357,451,o),
(349,441,o),
(339,430,cs),
(312,398,l)
);
}
);
};
hints = (
{
horizontal = 1;
place = (-223,10);
type = Stem;
}
);
layerId = "D8BA631F-EBB2-4072-BC3E-5C4A99E1B6C7";
shapes = (
{
closed = 1;
nodes = (
(604,506,l),
(586,574,l),
(39,574,l),
(21,506,l),
(217,289,l),
(15,68,l),
(33,0,l),
(589,0,l),
(607,68,l),
(404,292,l)
);
},
{
closed = 1;
nodes = (
(334,153,l),
(345,141,o),
(357,127,o),
(371,114,c),
(354,115,o),
(335,115,o),
(317,115,cs),
(294,115,ls),
(277,115,o),
(259,115,o),
(243,114,c),
(255,125,o),
(268,138,o),
(279,151,cs),
(308,185,l)
);
},
{
closed = 1;
nodes = (
(288,428,l),
(278,439,o),
(267,452,o),
(257,460,c),
(276,459,o),
(288,459,o),
(301,459,cs),
(320,459,ls),
(334,459,o),
(351,459,o),
(368,460,c),
(357,451,o),
(349,441,o),
(339,430,cs),
(312,398,l)
);
}
);
width = 622;
}
);
unicode = 3313;
},
{
glyphname = uni0CF2;
layers = (
{
anchors = (
{
name = Anchor5;
position = "{471, -24}";
}
);
background = {
shapes = (
{
closed = 1;
nodes = (
(379,50,o),
(456,131,o),
(456,270,cs),
(456,400,o),
(385,487,o),
(243,487,cs),
(105,487,o),
(28,406,o),
(28,267,cs),
(28,126,o),
(109,50,o),
(241,50,cs)
);
},
{
closed = 1;
nodes = (
(205,174,o),
(186,205,o),
(186,269,cs),
(186,328,o),
(200,363,o),
(243,363,cs),
(280,363,o),
(298,330,o),
(298,268,cs),
(298,207,o),
(284,174,o),
(241,174,cs)
);
},
{
closed = 1;
nodes = (
(837,50,o),
(914,131,o),
(914,270,cs),
(914,400,o),
(844,487,o),
(701,487,cs),
(563,487,o),
(486,406,o),
(486,267,cs),
(486,126,o),
(567,50,o),
(699,50,cs)
);
},
{
closed = 1;
nodes = (
(663,174,o),
(644,205,o),
(644,269,cs),
(644,328,o),
(658,363,o),
(701,363,cs),
(738,363,o),
(756,330,o),
(756,268,cs),
(756,207,o),
(742,174,o),
(699,174,cs)
);
}
);
};
layerId = "D8BA631F-EBB2-4072-BC3E-5C4A99E1B6C7";
shapes = (
{
closed = 1;
nodes = (
(379,50,o),
(456,131,o),
(456,270,cs),
(456,400,o),
(385,487,o),
(243,487,cs),
(105,487,o),
(28,406,o),
(28,267,cs),
(28,126,o),
(109,50,o),
(241,50,cs)
);
},
{
closed = 1;
nodes = (
(205,174,o),
(186,205,o),
(186,269,cs),
(186,328,o),
(200,363,o),
(243,363,cs),
(280,363,o),
(298,330,o),
(298,268,cs),
(298,207,o),
(284,174,o),
(241,174,cs)
);
},
{
closed = 1;
nodes = (
(837,50,o),
(914,131,o),
(914,270,cs),
(914,400,o),
(844,487,o),
(701,487,cs),
(563,487,o),
(486,406,o),
(486,267,cs),
(486,126,o),
(567,50,o),
(699,50,cs)
);
},
{
closed = 1;
nodes = (
(663,174,o),
(644,205,o),
(644,269,cs),
(644,328,o),
(658,363,o),
(701,363,cs),
(738,363,o),
(756,330,o),
(756,268,cs),
(756,207,o),
(742,174,o),
(699,174,cs)
);
}
);
width = 942;
}
);
unicode = 3314;
},
{
glyphname = rephknda;
layers = (
{
background = {
shapes = (
{
closed = 1;
nodes = (
(605,574,l),
(289,574,ls),
(178,574,o),
(114,559,o),
(72,522,cs),
(42,496,o),
(23,464,o),
(23,419,cs),
(23,334,o),
(70,292,o),
(138,257,c),
(144,303,l),
(66,274,o),
(30,220,o),
(30,160,cs),
(30,26,o),
(150,0,o),
(258,0,cs),
(300,0,l),
(300,157,l),
(273,157,ls),
(239,157,o),
(223,163,o),
(223,183,cs),
(223,191,o),
(227,197,o),
(234,201,cs),
(241,205,o),
(251,207,o),
(277,207,cs),
(434,207,l),
(434,362,l),
(271,362,ls),
(247,362,o),
(235,365,o),
(227,370,cs),
(220,375,o),
(216,382,o),
(216,392,cs),
(216,400,o),
(219,406,o),
(224,410,cs),
(231,416,o),
(244,419,o),
(268,419,cs),
(605,419,l)
);
}
);
};
layerId = "D8BA631F-EBB2-4072-BC3E-5C4A99E1B6C7";
shapes = (
{
closed = 1;
nodes = (
(605,574,l),
(289,574,ls),
(178,574,o),
(114,559,o),
(72,522,cs),
(42,496,o),
(23,464,o),
(23,419,cs),
(23,334,o),
(70,292,o),
(138,257,c),
(144,303,l),
(66,274,o),
(30,220,o),
(30,160,cs),
(30,26,o),
(150,0,o),
(258,0,cs),
(300,0,l),
(300,157,l),
(273,157,ls),
(239,157,o),
(223,163,o),
(223,183,cs),
(223,191,o),
(227,197,o),
(234,201,cs),
(241,205,o),
(251,207,o),
(277,207,cs),
(434,207,l),
(434,362,l),
(271,362,ls),
(247,362,o),
(235,365,o),
(227,370,cs),
(220,375,o),
(216,382,o),
(216,392,cs),
(216,400,o),
(219,406,o),
(224,410,cs),
(231,416,o),
(244,419,o),
(268,419,cs),
(605,419,l)
);
}
);
width = 624;
}
);
},
{
glyphname = phanuktaknda;
layers = (
{
background = {
shapes = (
{
closed = 1;
nodes = (
(346,-215,o),
(381,-177,o),
(381,-128,cs),
(381,-80,o),
(343,-41,o),
(285,-41,cs),
(227,-41,o),
(190,-80,o),
(190,-128,cs),
(190,-177,o),
(222,-215,o),
(285,-215,cs)
);
},
{
closed = 1;
nodes = (
(769,-215,o),
(804,-177,o),
(804,-128,cs),
(804,-80,o),
(766,-41,o),
(709,-41,cs),
(650,-41,o),
(615,-80,o),
(615,-128,cs),
(615,-177,o),
(645,-215,o),
(709,-215,cs)
);
},
{
alignment = -1;
ref = phaknda;
}
);
};
layerId = "D8BA631F-EBB2-4072-BC3E-5C4A99E1B6C7";
shapes = (
{
closed = 1;
nodes = (
(346,-215,o),
(381,-177,o),
(381,-128,cs),
(381,-80,o),
(343,-41,o),
(285,-41,cs),
(227,-41,o),
(190,-80,o),
(190,-128,cs),
(190,-177,o),
(222,-215,o),
(285,-215,cs)
);
},
{
closed = 1;
nodes = (
(769,-215,o),
(804,-177,o),
(804,-128,cs),
(804,-80,o),
(766,-41,o),
(709,-41,cs),
(650,-41,o),
(615,-80,o),
(615,-128,cs),
(615,-177,o),
(645,-215,o),
(709,-215,cs)
);
},
{
alignment = -1;
ref = phaknda;
}
);
width = 932;
}
);
},
{
glyphname = kasubscriptknda;
layers = (
{
anchors = (
{
name = exit;
position = "{255, -195}";
}
);
background = {
shapes = (
{
closed = 1;
nodes = (
(171,-379,o),
(219,-333,o),
(219,-267,cs),
(219,-236,o),
(205,-203,o),
(172,-181,c),
(177,-194,l),
(240,-195,l),
(240,-101,l),
(92,-101,l),
(112,-111,l),
(132,-87,o),
(146,-57,o),
(146,-17,cs),
(146,10,o),
(143,45,o),
(111,105,c),
(0,74,l),
(22,34,o),
(29,1,o),
(29,-25,cs),
(29,-61,o),
(13,-88,o),
(-10,-113,c),
(8,-101,l),
(-160,-101,l),
(-160,-195,l),
(-102,-194,l),
(-97,-184,l),
(-125,-207,o),
(-139,-235,o),
(-139,-267,cs),
(-139,-336,o),
(-81,-379,o),
(38,-379,cs)
);
},
{
closed = 1;
nodes = (
(-4,-280,o),
(-24,-262,o),
(-24,-232,cs),
(-24,-206,o),
(-4,-186,o),
(40,-186,cs),
(81,-186,o),
(104,-204,o),
(104,-233,cs),
(104,-259,o),
(86,-280,o),
(40,-280,cs)
);
}
);
};
layerId = "D8BA631F-EBB2-4072-BC3E-5C4A99E1B6C7";
shapes = (
{
closed = 1;
nodes = (
(171,-379,o),
(219,-333,o),
(219,-267,cs),
(219,-236,o),
(205,-203,o),
(172,-181,c),
(177,-194,l),
(240,-195,l),
(240,-101,l),
(92,-101,l),
(112,-111,l),
(132,-87,o),
(146,-57,o),
(146,-17,cs),
(146,10,o),
(143,45,o),
(111,105,c),
(0,74,l),
(22,34,o),
(29,1,o),
(29,-25,cs),
(29,-61,o),
(13,-88,o),
(-10,-113,c),
(8,-101,l),
(-160,-101,l),
(-160,-195,l),
(-102,-194,l),
(-97,-184,l),
(-125,-207,o),
(-139,-235,o),
(-139,-267,cs),
(-139,-336,o),
(-81,-379,o),
(38,-379,cs)
);
},
{
closed = 1;
nodes = (
(-4,-280,o),
(-24,-262,o),
(-24,-232,cs),
(-24,-206,o),
(-4,-186,o),
(40,-186,cs),
(81,-186,o),
(104,-204,o),
(104,-233,cs),
(104,-259,o),
(86,-280,o),
(40,-280,cs)
);
}
);
width = 185;
}
);
},
